<svg xmlns="http://www.w3.org/2000/svg" width="720" height="460" viewBox="0 0 720 460"><defs><linearGradient id="bg" x2="1" y2="1"><stop stop-color="#e4e7ff"/><stop offset="1" stop-color="#f6e9ff"/></linearGradient><filter id="shadow"><feDropShadow dx="0" dy="12" stdDeviation="12" flood-color="#5144a6" flood-opacity=".15"/></filter></defs><rect width="720" height="460" rx="32" fill="url(#bg)"/><circle cx="650" cy="65" r="120" fill="#bfb5ff" opacity=".4"/><circle cx="40" cy="440" r="130" fill="#c7e5ff" opacity=".7"/><g filter="url(#shadow)"><rect x="70" y="55" width="580" height="350" rx="20" fill="#fff"/><path d="M70 103H650" stroke="#edf0f8"/><circle cx="95" cy="80" r="5" fill="#fa8fac"/><circle cx="112" cy="80" r="5" fill="#f7c96b"/><circle cx="129" cy="80" r="5" fill="#7ad3b2"/><rect x="490" y="70" width="130" height="20" rx="10" fill="#f0efff"/><path d="M360 240 190 166M360 240 526 166M360 240 190 318M360 240 526 318" stroke="#c6bce9" stroke-width="3"/><circle cx="360" cy="240" r="64" fill="#7961eb"/><path d="m360 202 11 26 28 12-28 12-11 27-12-27-28-12 28-12z" fill="white"/><rect x="114" y="129" width="148" height="79" rx="13" fill="#ffe8bd"/><rect x="456" y="129" width="148" height="79" rx="13" fill="#d5f0e8"/><rect x="114" y="277" width="148" height="79" rx="13" fill="#fce0ed"/><rect x="456" y="277" width="148" height="79" rx="13" fill="#dce9ff"/><rect x="134" y="149" width="82" height="7" rx="3" fill="#827791" opacity=".6"/><rect x="134" y="167" width="104" height="5" rx="2" fill="#827791" opacity=".3"/><rect x="134" y="180" width="67" height="5" rx="2" fill="#827791" opacity=".3"/><rect x="476" y="149" width="82" height="7" rx="3" fill="#827791" opacity=".6"/><rect x="476" y="167" width="104" height="5" rx="2" fill="#827791" opacity=".3"/><rect x="476" y="180" width="67" height="5" rx="2" fill="#827791" opacity=".3"/><rect x="134" y="297" width="82" height="7" rx="3" fill="#827791" opacity=".6"/><rect x="134" y="315" width="104" height="5" rx="2" fill="#827791" opacity=".3"/><rect x="134" y="328" width="67" height="5" rx="2" fill="#827791" opacity=".3"/><rect x="476" y="297" width="82" height="7" rx="3" fill="#827791" opacity=".6"/><rect x="476" y="315" width="104" height="5" rx="2" fill="#827791" opacity=".3"/><rect x="476" y="328" width="67" height="5" rx="2" fill="#827791" opacity=".3"/></g></svg>