<?xml version="1.0" encoding="utf-8"?>
<!-- Generator: Adobe Illustrator 27.5.0, SVG Export Plug-In . SVG Version: 6.00 Build 0)  -->
<svg version="1.1" xmlns="http://www.w3.org/2000/svg" xmlns:xlink="http://www.w3.org/1999/xlink" x="0px" y="0px"
	 viewBox="0 0 500 500" style="enable-background:new 0 0 500 500;" xml:space="preserve">
<g id="BACKGROUND">
	<rect id="XMLID_28_" y="0" style="fill:#FFFFFF;" width="500" height="500"/>
</g>
<g id="OBJEKTS">
	<g id="XMLID_55_">
	</g>
	<g id="XMLID_122_">
	</g>
	<g>
		<g style="opacity:0.2;">
			<path style="fill:#363636;" d="M400.946,396.655H105.905c-1.587,0-2.874-1.126-2.874-2.515l0,0c0-1.389,1.287-2.515,2.874-2.515
				h295.041c1.587,0,2.874,1.126,2.874,2.515l0,0C403.82,395.529,402.533,396.655,400.946,396.655z"/>
		</g>
		<path style="opacity:0.49;fill:#8FD4F7;" d="M127.372,382.389c0,0,273.676,0,273.686,0c5.365,0,18.979-19.47,21.65-24.174
			c7.007-12.341,13.145-25.296,18.54-38.415c10.742-26.119,18.129-53.812,19.415-82.116c0.912-20.078-1.873-41.791-15.354-56.698
			c-8.658-9.573-20.824-15.299-30.008-24.368c-18.351-18.12-22.096-46.427-36.987-67.483
			c-17.226-24.358-52.343-36.326-78.852-22.638c-14.478,7.476-24.725,21.003-37.41,31.231
			c-28.611,23.068-67.218,27.893-103.195,35.398c-35.978,7.506-74.701,21.213-92.422,53.411
			c-14.367,26.105-10.692,61.492-7.457,90.112c2.263,20.016,17.991,42.678,28.7,59.442
			C98.763,353.443,112.205,369.027,127.372,382.389z"/>
		<path style="fill:#53C6ED;" d="M271.65,382.389c19.668,0,40.923,2.323,60.49,0.003c64.648-7.665,117.095-78.227,96.817-142.527
			c-9.22-29.235-33.895-50.488-57.446-70.111c-39.279-32.729-86.683-83.716-142.406-81.447
			c-18.725,0.763-36.776,8.152-52.191,18.811c-15.415,10.659-28.388,24.488-40.131,39.094
			c-15.748,19.587-29.498,40.778-40.994,63.128c-11.34,22.045-17.251,42.193-19.597,66.78c-1.469,15.39,0.074,31.34,6.593,45.358
			c11.451,24.626,36.491,38.08,56.491,54.835c15.33,12.843,40.809,6.632,59.664,6.53
			C223.177,382.712,247.413,382.389,271.65,382.389z"/>
		<path style="fill:#0C7B7D;" d="M162.632,309.49c0.809,1.938,1.54,3.9,2.111,5.909c2.908,10.24,1.487,21.243-1.353,31.501
			c-2.425,8.758-5.932,17.348-11.518,24.517c-11.777,15.113-29.901,19.978-48.203,18.121c-16.019-1.625-32.627-0.127-41.001-17.494
			c-5.322-11.037-5.017-23.894-3.745-36.081c1.272-12.188,3.396-24.526,1.335-36.606c-1.761-10.32-6.141-22.258,0.638-30.235
			c3.293-3.875,8.575-5.677,11.724-9.671c4.318-5.478,3.392-13.486,0.708-19.924c-2.683-6.439-6.876-12.254-8.742-18.975
			c-3.631-13.081,3.29-28.279,15.541-34.128c4.048-1.933,8.705-3.042,11.755-6.331c5.053-5.449,3.464-13.976,3.788-21.4
			c0.291-6.674,2.447-13.258,6.16-18.812c14.741-22.048,40.491-3.762,36.617,18.325c-3.381,19.276-14.452,41.107-1.892,59.855
			c6.31,9.419,18.459,14.484,22.61,25.035c5.497,13.974-5.861,29.219-4.493,44.173C155.392,295.147,159.567,302.147,162.632,309.49z
			"/>
		<path style="opacity:0.49;fill:#2088BD;" d="M262.483,386.463c19.668,0,40.923,2.323,60.49,0.003
			c35.641-4.226,64.465-25.892,81.699-56.799c11.089-19.887,14.922-35.329,8.944-57.548c-5.949-22.11-14.525-43.465-19.371-65.88
			c-4.26-19.702-5.615-40.079-11.863-59.244c-6.247-19.165-18.631-37.754-37.519-44.796c-18.654-6.955-39.817-1.288-57.306,8.222
			c-17.489,9.511-32.777,22.678-50.24,32.237c-13.606,7.448-28.417,12.641-41.54,20.911c-12.387,7.807-22.951,18.213-31.814,29.815
			c-8.997,11.777-12.321,23.3-17.703,36.882c-5.49,13.852-13.243,26.804-22.858,38.186c-10.701,12.667-24.352,24.728-26.47,41.174
			c-1.098,8.522,1.177,17.169,4.651,25.028c7.745,17.524,21.741,32.167,38.785,40.882c8.213,4.199,16.07,9.418,25.303,11.1
			c10.775,1.964,21.838,0.301,32.691,0.227C219.734,386.719,241.108,386.463,262.483,386.463z"/>
		<path style="fill:#045169;" d="M414.62,303.16c-5.858-5.803-7.917-10.932,0.708-23.82c8.385-12.53,2.321-32.956-14.885-34.684
			c-6.397-0.642-13.758-3.751-12.118-11.753c0.969-4.725,4.619-8.366,8.065-11.741c3.446-3.375,7.035-7.115,7.814-11.875
			c1.236-7.551-4.435-10.587-7.483-16.243c-2.957-5.486-2.291-11.788-0.763-17.624c1.766-6.744,4.263-13.917,1.891-20.471
			c-2.844-7.856-12.253-13.357-11.529-21.681c0.287-3.298,2.239-6.364,2.058-9.669c-1.056-19.223-24.082-23.241-26.003-2.407
			c-0.626,6.783,1.166,13.52,2.358,20.226c1.192,6.707,1.73,13.912-1.196,20.064c-3.552,7.469-11.39,11.808-16.774,18.086
			c-5.472,6.382-8.315,14.865-8.214,23.271c0.116,9.608,3.876,19.192,2.063,28.628c-1.881,9.79-9.409,17.469-17.247,23.63
			c-7.837,6.16-16.507,11.612-22.373,19.672c-6.429,8.833-7.902,19.03-6.856,29.641c0.755,7.663,10.604,19.384,5.686,26.035
			c-0.92,1.244-2.181,2.188-3.269,3.288c-4.205,4.253-5.588,10.75-4.634,16.654c4.286,26.531,41.849,30.995,62.765,36.619
			c17.016,4.576,38.045,0.342,52.527-9.695c9.592-6.648,17.763-21.933,22.155-32.427c3.976-9.499,4.591-21.404-2.046-29.278
			C422.704,310.128,418.021,306.53,414.62,303.16z"/>
		<path style="fill:#0C7B7D;" d="M298.322,295.776c5.977-1.568,11.203-4.819,15.656-9.065c9.699-9.248,15.108-23.141,18.63-35.923
			c2.376-8.624,3.731-17.581,3.327-26.517c-0.399-8.834-2.501-17.493-4.678-26.064c-1.858-7.313-3.809-14.689-7.377-21.337
			c-3.193-5.95-7.599-11.156-12.167-16.129c-4.965-5.404-10.495-11.356-10.609-18.694c-0.098-6.366,3.978-12.028,5.173-18.281
			c3.027-15.839-12.54-29.664-13.31-45.771c-0.436-9.128,3.834-19.014-0.626-26.99c-0.952-1.703-2.305-3.226-4.038-4.122
			c-4.105-2.122-9.37-0.16-12.445,3.289c-3.735,4.189-6.961,11.758-8.902,17.023c-2.591,7.028-3.237,14.968-2.965,22.399
			c0.17,4.645,1.411,10.549,0.062,15.081c-1.169,3.925-4.499,5.757-7.445,8.734c-6.172,6.24-11.578,14.015-11.73,23.112
			c-0.112,6.711,2.67,13.216,2.589,19.928c-0.107,8.775-4.984,17.417-8.07,25.409c-3.697,9.574-6.702,18.77-8.677,28.892
			c-1.766,9.051-3.253,18.26-2.621,27.46c0.785,11.421,5.045,22.521,11.83,31.716c3.598,4.876,8.187,8.177,12.307,12.449
			c4.078,4.228,6.117,7.907,12.311,9.921C274.984,295.691,287.516,298.61,298.322,295.776z"/>
		<path style="fill:#045169;" d="M230.618,118.468c-2.333,5.595-5.05,11.542-3.007,16.787c0.886,2.276,2.581,4.056,4.06,5.952
			c5.225,6.7,9.385,17.21,7.726,26.305c-1.467,8.047-7.887,11.694-5.322,20.957c1.358,4.904,4.101,9.189,5.908,13.91
			c4.202,10.984,2.947,24.341-3.298,35.076c-13.568,23.324-46.653,27.845-69.065,23.328c-14.613-2.945-29.889-9.736-23.242-28.254
			c2.919-8.132,8.496-15.324,10.699-23.64c2.444-9.222,0.544-19.148,4.325-27.977c3.861-9.017,12.748-14.853,18.399-22.922
			c8.019-11.45,8.741-25.994,10.558-39.591c2.521-18.867,11.459-42.29,34.076-37.28c3.666,0.812,7.27,2.381,9.589,5.302
			c2.845,3.585,3.349,8.654,3.077,13.445c-0.322,5.672-1.586,11.358-3.721,16.739C231.136,117.219,230.879,117.842,230.618,118.468z
			"/>
		<g id="XMLID_316_">
			<g id="XMLID_321_">
				<path id="XMLID_322_" style="fill:#FFFFFF;" d="M403.691,191.314v188.858c0,8.028-6.508,14.536-14.536,14.536H111.889
					c-8.028,0-14.536-6.508-14.536-14.536V191.314c0-8.028,6.508-14.536,14.536-14.536h277.266
					C397.183,176.778,403.691,183.286,403.691,191.314z"/>
				<path id="XMLID_632_" d="M403.955,190.754v189.978c0,7.852-6.388,14.239-14.24,14.239H111.329
					c-7.852,0-14.24-6.388-14.24-14.239V190.754c0-7.852,6.388-14.24,14.24-14.24h278.386
					C397.567,176.514,403.955,182.902,403.955,190.754z"/>
			</g>
			<g id="XMLID_319_">
				<path id="XMLID_629_" style="fill:#FFFFFF;" d="M376.791,183.978v203.373H124.924V183.978H376.791z"/>
			</g>
			<g id="XMLID_317_">
				
					<ellipse transform="matrix(0.6653 -0.7465 0.7465 0.6653 -80.8013 387.159)" style="fill:none;stroke:#AFBAC4;stroke-width:0.75;stroke-miterlimit:10;" cx="391.428" cy="283.704" rx="7.001" ry="7.001"/>
			</g>
		</g>
		<g>
			
				<line style="fill:none;stroke:#2155B5;stroke-width:3;stroke-miterlimit:10;" x1="133.82" y1="203.995" x2="209.82" y2="203.995"/>
			
				<line style="fill:none;stroke:#2155B5;stroke-width:3;stroke-miterlimit:10;" x1="225.82" y1="203.143" x2="361.82" y2="203.143"/>
			
				<line style="fill:none;stroke:#2155B5;stroke-width:3;stroke-miterlimit:10;" x1="225.82" y1="215.495" x2="361.82" y2="215.495"/>
			
				<line style="fill:none;stroke:#2155B5;stroke-width:3;stroke-miterlimit:10;" x1="225.82" y1="227.848" x2="361.82" y2="227.848"/>
			<line style="fill:none;stroke:#2155B5;stroke-width:3;stroke-miterlimit:10;" x1="225.82" y1="240.2" x2="361.82" y2="240.2"/>
			<path style="fill:none;stroke:#2155B5;stroke-width:3;stroke-miterlimit:10;" d="M339.27,252.553c5.517,0,17.033,0,22.549,0"/>
			
				<line style="fill:none;stroke:#2155B5;stroke-width:3;stroke-miterlimit:10;" x1="225.82" y1="252.553" x2="287.54" y2="252.553"/>
			
				<line style="fill:none;stroke:#2155B5;stroke-width:3;stroke-miterlimit:10;" x1="225.82" y1="332.496" x2="361.82" y2="332.496"/>
			
				<line style="fill:none;stroke:#2155B5;stroke-width:3;stroke-miterlimit:10;" x1="225.82" y1="343.496" x2="361.82" y2="343.496"/>
			
				<line style="fill:none;stroke:#2155B5;stroke-width:3;stroke-miterlimit:10;" x1="225.82" y1="354.496" x2="361.82" y2="354.496"/>
			
				<line style="fill:none;stroke:#2155B5;stroke-width:3;stroke-miterlimit:10;" x1="225.82" y1="365.496" x2="361.82" y2="365.496"/>
			
				<line style="fill:none;stroke:#2155B5;stroke-width:3;stroke-miterlimit:10;" x1="133.82" y1="219.495" x2="209.82" y2="219.495"/>
			
				<line style="fill:none;stroke:#2155B5;stroke-width:3;stroke-miterlimit:10;" x1="133.82" y1="234.995" x2="209.82" y2="234.995"/>
			
				<line style="fill:none;stroke:#2155B5;stroke-width:3;stroke-miterlimit:10;" x1="133.82" y1="248.495" x2="209.82" y2="248.495"/>
			
				<line style="fill:none;stroke:#2155B5;stroke-width:3;stroke-miterlimit:10;" x1="133.82" y1="261.996" x2="209.82" y2="261.996"/>
			
				<line style="fill:none;stroke:#2155B5;stroke-width:3;stroke-miterlimit:10;" x1="133.82" y1="275.496" x2="209.82" y2="275.496"/>
			
				<line style="fill:none;stroke:#2155B5;stroke-width:3;stroke-miterlimit:10;" x1="133.82" y1="288.996" x2="209.82" y2="288.996"/>
			
				<line style="fill:none;stroke:#2155B5;stroke-width:3;stroke-miterlimit:10;" x1="133.82" y1="302.496" x2="209.82" y2="302.496"/>
			
				<line style="fill:none;stroke:#2155B5;stroke-width:3;stroke-miterlimit:10;" x1="133.82" y1="315.996" x2="209.82" y2="315.996"/>
			<rect x="133.82" y="326.496" style="opacity:0.49;fill:#2088BD;" width="76" height="46"/>
			<rect x="227.32" y="261.496" style="opacity:0.49;fill:#2088BD;" width="74" height="57"/>
			<path style="opacity:0.49;fill:#2088BD;" d="M349.548,261.996c1.264,5.512,2.068,11.047,0.539,16.641
				c-1.378,5.039-4.28,9.583-8.214,13.013c-3.68,3.207-8.162,5.374-12.908,6.472c-5.806,1.344-11.334,0.449-17.145,0.019v20.856h50
				v-57H349.548z"/>
		</g>
		<g>
			<path style="fill:#FFB387;" d="M285.903,293.595c-0.446-1.826-1.124-3.682-0.812-5.535c1.287,0.09,2.275,1.204,2.826,2.37
				c0.551,1.166,0.819,2.462,1.479,3.571c0.644,1.083,1.621,1.921,2.591,2.726c0.403,0.335,0.824,0.69,1.014,1.178
				c0.291,0.749-0.039,1.593-0.457,2.279c-0.583,0.957-1.368,1.821-2.371,2.322c-1.897,0.947-5.05-0.011-5.107-2.503
				c-0.019-0.834,0.651-1.436,0.887-2.195C286.386,296.417,286.245,294.996,285.903,293.595z"/>
			<path style="fill:#FFB387;" d="M315.662,303.496c3.786,0.254,7.628-0.564,11.05-2.354c0.556-0.291,1.172-0.616,1.763-0.426
				c0.849,0.271,1.152,1.525,0.798,2.412c-0.354,0.887-1.146,1.459-1.93,1.907c-1.818,1.041-3.82,1.695-5.862,1.915
				c-2.219,0.239-4.655,0.032-6.456,1.471c-0.874,0.698-1.694,1.805-2.766,1.645c-0.446-0.066-0.835-0.354-1.2-0.641
				c-1.932-1.517-4.106-2.934-1.439-5.064C311.363,302.969,313.645,303.36,315.662,303.496z"/>
			<g id="XMLID_219_">
				<path style="fill:#D4004A;" d="M285.287,295.687c-0.73,1.53-1.504,3.03-2.562,4.516c-3.565,5.006-7.151,10.038-11.49,14.391
					c-0.528,0.53-1.088,1.063-1.79,1.321c-0.502,0.184-1.045,0.216-1.579,0.245c-4.756,0.262-9.577,0.385-14.266,1.018
					c-3.379,0.456-9.03-0.068-11.681,2.583c-5.511,3.89-0.865,11.094,1.74,15.31c0.605,0.98,1.328,2.046,2.453,2.291
					c0.817,0.178,1.654-0.129,2.433-0.436c8.608-3.348,17.394-5.863,25.965-9.119c1.456-0.553,2.932-1.117,4.184-2.044
					c1.81-1.342,3.006-3.333,4.155-5.272c1.758-2.967,3.517-5.934,5.275-8.901c1.651-2.785,3.316-5.588,4.528-8.599
					c0.172-0.428,0.347-0.828,0.497-1.215C290.387,299.939,287.776,297.888,285.287,295.687z"/>
			</g>
			<g>
				
					<ellipse transform="matrix(0.4738 -0.8806 0.8806 0.4738 -74.504 418.2056)" style="opacity:0.49;fill:#85A9FF;" cx="312.687" cy="271.445" rx="31.757" ry="31.757"/>
				<path style="opacity:0.49;fill:#1B729E;" d="M304.822,300.101c4.21,1.282,8.891,1.696,13.27,1.49
					c11.763-0.552,20.36-8.762,24.365-19.475c3.345-8.948,2.934-19.585-3.842-26.43H296.82v41.909
					C299.572,298.004,302.188,299.298,304.822,300.101z"/>
				
					<ellipse transform="matrix(0.4738 -0.8806 0.8806 0.4738 -74.504 418.2056)" style="fill:none;stroke:#19034D;stroke-width:5;stroke-miterlimit:10;" cx="312.687" cy="271.445" rx="31.757" ry="31.757"/>
				<path style="fill:none;stroke:#FFFFFF;stroke-miterlimit:10;" d="M317.545,246.361c-5.863-0.423-11.845,0.971-16.917,3.942"/>
				<path style="fill:none;stroke:#FFFFFF;stroke-miterlimit:10;" d="M296.103,254.456c-5.26,4.776-8.229,11.971-7.87,19.066
					c0.359,7.096,4.04,13.954,9.754,18.175"/>
			</g>
			<g id="XMLID_110_">
				<path style="fill:#FFB387;" d="M243.206,317.058c-0.107-1.671,0.123-3.415,0.389-4.833c0.814-4.346,1.531-8.727,0.426-13.099
					c-0.445-1.76-1.17-3.577-0.704-5.331c0.609-2.296,3.253-3.142,5.307-3.599c2.603-0.579,5.027-0.776,7.516-1.828
					c0.909-0.384,3.393-0.886,4.176,0.036c0.358,0.421,0.43,1.008,0.488,1.558c0.459,4.406,0.881,9.06-0.962,13.088
					c-1.208,2.64-3.338,4.869-4.017,7.692c-0.576,2.394-0.03,4.901-0.074,7.363c-0.114,6.428-6.005,7.456-10.524,3.71
					C243.861,320.683,243.325,318.916,243.206,317.058z"/>
			</g>
			<g id="XMLID_108_">
				<path style="fill:#F02B66;" d="M308.895,305.447c-0.137-0.035-0.275-0.059-0.416-0.068c-1.824-0.109-4.075,2.124-5.435,3.122
					c-1.901,1.397-3.788,2.812-5.679,4.222c-3.79,2.826-7.594,5.637-11.534,8.253c-1.789,1.188-3.013,2.255-5.089,1.683
					c-1.711-0.472-3.756-1.905-5.489-2.605c-4.349-1.757-8.687-3.547-13.048-5.273c-2.618-1.058-5.299-2.13-8.09-2.433
					c-0.395-0.043-0.792-0.07-1.191-0.08c-3.223-0.08-6.682,1.227-8.279,4.027c-3.207,5.623,1.389,11.92,6.027,14.917
					c2.047,1.323,4.41,2.056,6.739,2.773c3.046,0.938,6.092,1.876,9.138,2.815c7.341,2.261,15.471,4.487,22.477,1.336
					c2.191-0.986,4.129-2.45,5.997-3.961c4.435-3.588,8.202-7.264,11.865-11.587c2.265-2.674,4.375-5.516,6.419-8.36
					c0.762-1.06,2.654-2.979,2.811-4.328c0.011-0.091,0-0.183-0.012-0.274c-0.052-0.4-2.207-1.686-2.655-1.992
					c-1.203-0.819-2.592-1.451-3.944-1.979C309.305,305.575,309.103,305.5,308.895,305.447z"/>
			</g>
			<g id="XMLID_105_">
				<path style="fill:#FFB387;" d="M283.587,414.819c1.01-1.422,5.128-2.381,6.918-1.647c2.215,0.907,4.3,4.519,4.903,6.717
					c0.138,0.504,0.248,1.013,0.334,1.525c-1.391,6.261-2.98,12.502-3.898,18.834c-0.018-0.002-0.035-0.001-0.053-0.003
					c-3.263-0.344-6.838-0.879-9.567-2.874c0.012-3.868,0.2-7.732,0.47-11.59C282.863,423.377,282.239,416.718,283.587,414.819z"/>
			</g>
			<g id="XMLID_104_">
				<path style="fill:#FFB387;" d="M192.099,430.617c2.7-1.767,6.773-2.556,9.82-3.307c3.827-0.944,7.835-1.375,11.587-0.322
					c1.267,0.356,2.507,0.89,3.464,1.787c0.957,0.898,1.604,2.201,1.51,3.564c-0.376,5.475-6.89,5.779-10.79,6.34
					c-3.619,0.521-7.253,0.868-10.887,1.039c-2.78,0.131-5.917-0.125-6.893-3.245c-0.586-1.873,0.101-4.151,1.645-5.454
					C191.73,430.873,191.911,430.74,192.099,430.617z"/>
			</g>
			<g id="XMLID_101_">
				<path style="fill:#2155B5;" d="M260.762,377.595c-0.011-0.969,0.211-13.412-0.515-13.667c-3.365-1.185-7.171-0.973-10.668-0.831
					c-2.537,0.103-9.2-1.27-11.108,0.812c-1.125,1.227-1.086,4.656-1.375,6.272c-0.47,2.63-0.939,5.259-1.409,7.889
					c-0.576,3.228-1.155,6.485-1.069,9.767c0.144,5.491,2.021,10.761,2.655,16.157c0.359,3.054-0.276,6.513-0.349,9.599
					c-0.049,2.087-0.073,4.174-0.067,6.261c0.005,1.897,0.515,3.16-1.456,2.463c-2.733-0.967-4.69-1.353-7.626-0.484
					c-3.136,0.928-6.131,2.596-9.387,2.721c-2.173,0.083-4.316-0.534-6.489-0.617c-2.554-0.097-5.075,0.546-7.558,1.184
					c-1.455,0.374-2.863,0.815-3.58,1.818c1.458,4.476,2.663,8.994,3.546,13.678c0.381,2.023,0.733,4.052,1.085,6.08
					c0.246,0.005,0.516,0.005,0.826-0.001c1.775-0.032,3.546-0.168,5.309-0.376c7.345-0.867,14.5-2.968,21.846-3.834
					c6.923-0.816,16.678,0.414,22.111-5.024c4.221-4.226,3.724-10.884,4.093-16.486c0.571-8.668,0.941-17.351,1.111-26.038
					C260.803,389.158,260.827,383.376,260.762,377.595z"/>
			</g>
			<path style="fill:#2155B5;" d="M306.019,382.285c-0.535-1.017-1.29-1.83-2.357-2.216c-1.261-0.456-2.696-0.282-3.906,0.294
				c-4.793,2.284-8.951,6.988-12.838,10.518c-0.74,0.672-1.489,1.337-2.256,1.979c0.054,0.547,0.052,1.154-0.028,1.863
				c-0.191,1.696-0.389,3.417-1.033,4.997c-0.741,1.817-2.051,3.387-2.593,5.273c-0.639,2.221-0.142,4.629-0.636,6.887
				c-0.233,1.065-0.681,2.069-1.028,3.104c-1.326,3.958-1.155,8.319-2.175,12.333c-0.273,1.074,0.562,2.089,1.669,2.04
				c3.332-0.147,8.823,0.282,9.633,0.282h7.946c0.684,0,1.301-0.423,1.543-1.064c3.525-9.353,6.273-18.999,8.185-28.81
				c0.693-3.554,1.279-7.156,1.182-10.775C307.277,387.11,307.078,384.298,306.019,382.285z"/>
			<path style="fill:#2155B5;" d="M283.366,395.875c1.231-0.092,2.438-0.173,3.609-0.222c2.737-0.114,5.672-0.265,8.391,0.029
				c2.753,0.298,5.843,1.23,8.405-0.305c2.177-1.304,3.089-3.977,3.527-6.477c0.58-3.31,0.513-7.043-1.647-9.617
				c-0.599-0.714-1.331-1.301-2.057-1.884c-6.921-5.549-15.663-7.115-24.114-9.29c-3.017-0.777-6.13-1.506-8.704-3.261
				c-3.025-2.063-3.267-6.37-6.588-7.673c-3.697-1.45-8.92,1.044-12.465,1.985c-5.071,1.346-6.803,4.007-7.319,8.977
				c-1.022,9.847,5.076,17.11,11.891,23.237C263.569,397.916,274.148,396.567,283.366,395.875z"/>
			<g id="XMLID_91_">
				<path style="fill:#F02B66;" d="M270.201,360.716c0.082,1.432-0.005,2.575-0.426,2.979c-1.394,1.341-9.647,0.317-11.558,0.368
					c-3.751,0.102-7.502,0.203-11.253,0.304c-2.691,0.073-5.371,0.354-8.06,0.447c-1.755,0.061-1.626-0.102-1.582-1.804
					c0.036-1.394,0.065-2.788,0.076-4.182c0.048-6.072-0.534-11.934-1.721-17.882c-1.243-6.224-2.598-12.627-1.514-18.98
					c0.3-1.757,0.793-3.502,1.692-5.041c1.108-1.896,3.237-4.317,5.312-5.182c1.813-0.755,4.596-0.748,6.519-0.663
					c9.115,0.404,19.896,5.655,21.713,15.377c0.744,3.982,0.001,8.067-0.359,12.102c-0.397,4.453-0.32,8.931-0.033,13.388
					C269.095,353.315,270.028,357.671,270.201,360.716z"/>
			</g>
			<g id="XMLID_58_">
				<path id="XMLID_59_" style="fill:#19034D;" d="M243.081,295.7c-0.145-1.397-0.121-2.79,0.574-3.974
					c0.333-0.566,0.8-1.041,1.296-1.472c1.691-1.471,3.768-2.491,5.963-2.941c2.095-0.43,4.029-1.311,6.074-1.896
					c1.877-0.537,3.529-1.706,5.518-2.009c0.46-0.07,0.955-0.095,1.367,0.12c0.594,0.31,0.856,1.057,0.773,1.722
					c-0.083,0.665-0.444,1.26-0.836,1.803c-0.71,0.983-1.549,1.872-2.49,2.637c0.495-0.227,1.104-0.44,1.552-0.131
					c0.388,0.267,0.463,0.837,0.295,1.277c-0.168,0.44-0.523,0.779-0.872,1.094c-1.319,1.192-2.953,2.889-4.755,3.277
					c-0.918,0.197-1.493,0.286-1.647,1.448c-0.094,0.71-0.035,1.504-0.489,2.058c-0.584,0.712-1.725,0.664-2.42,1.269
					c-0.467,0.407-0.655,1.037-0.852,1.625c-0.486,1.45-1.2,2.89-2.414,3.821c-1.225,0.939-3.414,1.486-4.927,1.611
					c-0.388,0.032-0.849,0.004-1.063-0.321c-0.141-0.215-0.125-0.493-0.107-0.749c0.204-2.808,0.105-5.637-0.294-8.424
					C243.242,296.94,243.145,296.32,243.081,295.7z"/>
			</g>
			<g id="XMLID_53_">
				<defs>
					<path id="SVGID_1_" d="M240.343,316.286c0.69-2.986,2.107-12.575,2.591-14.395c-0.042-0.646,0.616-3.066,0.696-3.701
						c0.462-3.632,1.588-6.796,5.074-8.09c3.456-1.283,7.615-0.174,9.595,3.052c0.042,0.068,0.076,0.14,0.115,0.209
						c0.987,1.098,1.696,2.472,2.008,3.975c0.659,3.166-0.418,7.39-2.742,9.544c0.283,3.031,0.483,6.991,0.769,8.6
						c0.152,0.856,0.908,2.079,0.402,2.894c-3.433,5.532-10.746,5.128-15.679,2.022C240.903,318.967,239.62,319.419,240.343,316.286
						z"/>
				</defs>
				<clipPath id="SVGID_00000088853706410750124870000012769203019491532436_">
					<use xlink:href="#SVGID_1_"  style="overflow:visible;"/>
				</clipPath>
			</g>
			<path style="fill:#19034D;" d="M281.022,440.294c0.703-3.473,3.019-3.21,6.067-3.758c2.664-0.479,5.069,1.352,7.388,2.416
				c3.035,1.394,6.584,3.172,9.889,3.608c0.629,0.083,1.272,0.17,1.837,0.46c0.564,0.29,1.044,0.827,1.086,1.46
				c0.056,0.845-0.646,1.541-1.353,2.008c-2.852,1.883-6.496,1.986-9.784,1.734c-4.668-0.357-9.336-0.715-14.005-1.072
				c-0.357-0.027-0.732-0.061-1.028-0.261c-0.616-0.416-0.609-1.309-0.535-2.049C280.718,443.502,280.712,441.827,281.022,440.294z"
				/>
			<path style="fill:#19034D;" d="M197.336,440.893c0.174,2.961,0.752,5.944,2.549,8.248c0.216,0.277,0.454,0.565,0.503,0.92
				c0.104,0.766-0.692,1.309-1.394,1.546c-1.494,0.505-3.179,0.576-4.594-0.136c-2.686-1.349-3.523-4.828-4.577-7.751
				c-0.745-2.065-1.739-4.031-2.951-5.837c-0.8-1.192-1.72-2.373-1.981-3.805c-0.612-3.348,2.945-3.717,5.146-4.49
				c0.62-0.218,1.253-0.428,1.907-0.452c1.405-0.05,2.745,0.799,3.6,1.971c0.855,1.172,1.28,2.631,1.508,4.087
				c0.144,0.921,0.216,1.854,0.215,2.786C197.265,438.932,197.278,439.911,197.336,440.893z"/>
			<path style="fill:#FFB387;" d="M252.961,296.112c3.182-3.357,7.843,5.213,1.463,5.557c-0.665,0.036-1.298-0.343-1.733-0.847
				c-0.89-1.03-1.048-2.628-0.378-3.812C252.519,296.646,252.736,296.349,252.961,296.112z"/>
			
				<linearGradient id="SVGID_00000102520143474719026380000007357059145705524882_" gradientUnits="userSpaceOnUse" x1="992.1903" y1="401.9377" x2="976.0402" y2="391.6195" gradientTransform="matrix(-1 0 0 1 1234.5898 0)">
				<stop  offset="0.6027" style="stop-color:#2E71B0;stop-opacity:0"/>
				<stop  offset="0.9955" style="stop-color:#000000"/>
			</linearGradient>
			<path style="opacity:0.62;fill:url(#SVGID_00000102520143474719026380000007357059145705524882_);" d="M260.226,401.002
				c0.09-1.27,0.366-2.519,0.45-3.789c0.074-1.126-0.302-2.293,0.117-3.374c-3.931-2.111-7.434-5.011-10.255-8.467
				c-0.31-0.38-1.605-2.606-2.022-2.6c-0.476,0.007-0.782,1.559-0.906,1.916c-0.437,1.262-1.073,2.59-1.301,3.911
				c-0.377,2.186-0.424,4.429-0.136,6.628c0.558,4.263,2.908,7.601,6.186,10.359c0.928,0.781,1.953,1.499,3.129,1.795
				c1.176,0.296,2.535,0.102,3.4-0.748c0.957-0.94,1.108-2.405,1.204-3.743C260.137,402.26,260.181,401.631,260.226,401.002z"/>
			
				<linearGradient id="SVGID_00000109711336538612120510000014029723865302376853_" gradientUnits="userSpaceOnUse" x1="258.6346" y1="349.2381" x2="266.1654" y2="332.6226">
				<stop  offset="0.6027" style="stop-color:#F02B66;stop-opacity:0"/>
				<stop  offset="0.9955" style="stop-color:#000000"/>
			</linearGradient>
			<path style="fill:url(#SVGID_00000109711336538612120510000014029723865302376853_);" d="M259.092,332.388
				c1.233,2.652,2.219,5.607,3.154,8.363c0.639,1.885,1.242,3.787,1.929,5.655c0.404,1.098,0.895,3.033,2.077,1.555
				c1.292-1.62,1.557-4.984,2.044-6.938c0.244-0.98,0.784-2.26,0.807-3.299C265.676,336.148,262.369,334.306,259.092,332.388z"/>
			<path style="fill:#F5BA00;" d="M265.265,281.907l-6.438,2.512c-0.061-0.285-0.21-0.566-0.471-0.811
				c-2.12-1.994-6.27-3.319-9.061-2.489c-3.36,0.998-6.558,4.78-6.786,8.413c-0.033,0.531-0.114,0.94,0.1,1.297l-7.244,2.822
				c-0.397,0.158-0.552,0.708-0.345,1.228c0.206,0.52,0.696,0.814,1.093,0.656l29.9-11.742c0.397-0.158,0.552-0.708,0.345-1.228
				C266.152,282.043,265.663,281.749,265.265,281.907z"/>
			<g>
				<path style="fill:#19034D;stroke:#19034D;stroke-width:2;stroke-miterlimit:10;" d="M267.82,355.996c0-1.657-1.343-3-3-3
					s-3,1.343-3,3l-1.832,17.401c-0.09,0.855,0.58,1.599,1.44,1.599h6.784c0.859,0,1.53-0.744,1.44-1.599L267.82,355.996z"/>
				<circle style="fill:#1B729E;stroke:#19034D;stroke-width:2;stroke-miterlimit:10;" cx="264.82" cy="374.996" r="5"/>
			</g>
			<g>
				<path style="fill:#19034D;stroke:#19034D;stroke-width:2;stroke-miterlimit:10;" d="M279.82,355.996c0-1.657-1.343-3-3-3
					s-3,1.343-3,3l-1.832,17.401c-0.09,0.855,0.58,1.599,1.44,1.599h6.784c0.859,0,1.53-0.744,1.44-1.599L279.82,355.996z"/>
				<circle style="fill:#1B729E;stroke:#19034D;stroke-width:2;stroke-miterlimit:10;" cx="276.82" cy="374.996" r="5"/>
			</g>
			<path style="fill:none;stroke:#19034D;stroke-width:2;stroke-miterlimit:10;" d="M241.82,310.996
				c-1.661,20.002,8.748,36.998,17,43c11,8,15,6,21.891,4.975"/>
			<path style="fill:#19034D;" d="M275.47,357.782c-0.039-0.004-0.077-0.004-0.115-0.008c-0.115-0.276-0.353-0.504-0.728-0.536
				c-0.554-0.048-1.107-0.076-1.659-0.09c-2.247-0.103-4.504-0.093-6.74,0.138c-0.909,0.094-1.161,1.336-0.221,1.636
				c0.138,0.044,0.276,0.088,0.415,0.132c0.033,0.011,0.063,0.003,0.095,0.009c-0.089,0.267-0.047,0.58,0.179,0.847
				c0.054,0.063,0.114,0.117,0.171,0.176c0.049,0.179,0.159,0.33,0.321,0.433c-0.033,0.466,0.262,0.99,0.811,0.965
				c0.539-0.025,1.078-0.049,1.616-0.074c1.657,0.303,3.528,0.139,4.976,0.112c0.472-0.009,0.766-0.399,0.813-0.799
				c0.19-0.409,0.031-0.973-0.507-1.179c-0.044-0.017-0.092-0.027-0.137-0.043c0.099-0.015,0.198-0.025,0.297-0.041
				c0.1-0.017,0.181-0.056,0.255-0.103c0.121-0.017,0.242-0.029,0.363-0.047C276.607,359.166,276.269,357.863,275.47,357.782z"/>
		</g>
		<g>
			<path style="opacity:0.23;fill:#363636;" d="M102.82,408.496h-6c-1.657,0-3-1.343-3-3l0,0c0-1.657,1.343-3,3-3h6
				c1.657,0,3,1.343,3,3l0,0C105.82,407.152,104.477,408.496,102.82,408.496z"/>
			<path style="opacity:0.23;fill:#363636;" d="M389.82,410.996h-18c-1.105,0-2-0.895-2-2l0,0c0-1.105,0.895-2,2-2h18
				c1.105,0,2,0.895,2,2l0,0C391.82,410.1,390.924,410.996,389.82,410.996z"/>
			<path style="fill:#08A38C;" d="M78.052,358.578c0.739-7.826,1.813-15.188-1.028-23.536c-1.707-5.018-1.959-10.125-3.854-15.163
				c-2.304-6.129-5.667-11.813-7.651-18.071c-2.396-7.559-2.767-16.027-0.77-23.726c1.602-6.177,8.128-8.908,6.655-0.531
				c-1.655,9.412-0.286,19.333,3.858,27.944c4.164,8.655,11.106,16.225,12.65,25.705c1.516,9.308-2.493,18.577-3.124,27.986
				c-0.564,8.414,1.621,16.662,4.512,24.488c2.114,5.724,7.389,12.423,8.34,18.275c1.187,7.304-5.41,3.716-8.268,1.065
				c-3.975-3.687-6.401-9.087-7.966-14.182c-2.052-6.68-3.823-14.905-3.825-21.892C77.58,364.056,77.796,361.289,78.052,358.578z"/>
			<path style="fill:#08A38C;" d="M367.99,385.315c0.906-2.298,2.019-4.58,2.833-6.918c0.35-1.004,0.679-2.056,0.559-3.112
				c-0.172-1.521-1.232-2.774-1.828-4.184c-1.996-4.72,1.425-10.167,0.372-15.182c-0.321-1.528-1.044-2.935-1.607-4.391
				c-0.834-2.157-4.008-10.598-0.559-11.72c0.808-0.263,1.683,0.128,2.373,0.624c3.426,2.464,4.217,7.189,4.316,11.407
				c0.135,5.77-1.342,11.74-0.161,17.449c0.43,2.077,1.243,4.075,1.52,6.184c0.302,2.303-0.797,3.639-1.617,5.728
				c-1.55,3.946-2.195,8.372-0.991,12.501c0.976,3.348,3.059,6.242,5.057,9.1c0.596,0.853,1.202,1.742,1.394,2.765
				c0.191,1.023-0.147,2.221-1.059,2.721c-1.017,0.557-2.275,0.076-3.295-0.475c-4.164-2.248-5.848-6.467-7.748-10.497
				C365.537,393.048,366.474,389.16,367.99,385.315z"/>
			<path style="fill:#08A38C;" d="M395.314,395.11c0.211-2.771-0.624-5.396-0.932-8.292c-0.266-2.5-0.214-5.308,0.377-7.764
				c0.409-1.702,1.479-3.078,1.954-4.798c1.228-4.441,1.555-9.141,0.963-13.71c-0.332-2.567-0.952-5.117-0.885-7.704
				c0.116-4.474,2.254-8.605,3.615-12.869c1.361-4.264,1.809-9.357-1.017-12.828c-0.657-0.807-1.722-1.534-2.675-1.116
				c-0.45,0.197-0.764,0.616-0.991,1.051c-0.927,1.781-0.665,3.911-0.747,5.916c-0.3,7.302-5.41,13.899-5.058,21.198
				c0.2,4.156,2.182,8.131,1.983,12.288c-0.156,3.26-1.637,6.284-2.904,9.291c-1.267,3.008-2.361,6.29-1.699,9.486
				c0.587,2.838,1.27,4.51,0.23,7.283c-0.675,1.801-1.625,3.496-2.451,5.23c-1.248,2.619-3.037,3.185-5.906,3.425
				c-2.134,0.179-4.694,0.745-5.374,2.776c-0.412,1.231,0.092,2.64,1.015,3.553c0.923,0.913,2.195,1.393,3.47,1.638
				c4.022,0.773,8.306-0.651,11.382-3.356c2.555-2.247,4.309-5.304,5.262-8.551C395.14,396.528,395.261,395.814,395.314,395.11z"/>
			<path style="fill:#08A38C;" d="M377.514,407.353c-2.273-1.633-3.275-4.636-3.601-7.504c-0.333-2.934-0.103-5.936,0.672-8.777
				c1.529-5.604,5.138-10.566,5.686-16.366c0.421-4.459-1.032-8.878-1.168-13.356c-0.12-3.947,0.787-7.884,0.522-11.824
				c-0.255-3.799-1.582-7.412-2.679-11.043c-2.391-7.918-3.727-16.185-3.959-24.486c-0.046-1.646,0.348-3.804,1.908-4.01
				c1.586-0.209,2.465,1.838,2.82,3.471c1.977,9.097,3.597,18.172,6.138,27.088c1.146,4.021,2.244,8.227,1.483,12.339
				c-0.387,2.089-1.245,4.086-1.431,6.202c-0.275,3.135,0.941,6.182,1.54,9.271c0.47,2.422,0.551,4.917,0.258,7.366
				c-0.319,2.669-1.533,4.946-2.078,7.507c-0.962,4.52-2.718,10.359-0.939,14.861c0.999,2.526,3.922,5.584,2.206,8.318
				C383.484,408.654,379.388,408.699,377.514,407.353z"/>
			<path style="fill:#08A38C;" d="M90.247,380.872c1.447-4.161,4.081-7.976,4.538-12.358c0.375-3.591-0.763-7.161-0.913-10.769
				c-0.264-6.363,2.524-12.391,4.693-18.379c3.44-9.499,5.426-19.523,5.867-29.616c0.289-6.61,0.013-13.615,3.298-19.358
				c0.602-1.053,1.462-2.134,2.668-2.27c1.297-0.146,2.481,0.928,2.912,2.16c0.432,1.232,0.292,2.582,0.146,3.879
				c-1.315,11.732-2.631,23.464-3.946,35.196c-0.414,3.691-0.835,7.414-2.016,10.935c-0.991,2.954-2.508,5.735-3.201,8.773
				c-1.918,8.41,2.687,17.661-0.61,25.632c-1.158,2.801-3.216,5.173-4.266,8.016c-1.306,3.535-0.928,7.51,0.248,11.09
				c1.042,3.173,3.173,7.362,0.538,10.335c-2.913,3.286-5.47,0.173-7.214-2.49C89.034,395.608,87.862,387.727,90.247,380.872z"/>
			<path style="fill:#08A38C;" d="M99.388,390.216c2.913-1.972,5.919-4.285,7.934-7.204c1.801-2.608,4.254-4.564,5.583-7.535
				c1.199-2.68,1.712-5.622,1.911-8.551c0.418-6.13-0.488-12.263-0.807-18.398c-0.319-6.136,0.001-12.506,2.678-18.036
				c1.047-2.161,2.481-4.195,4.464-5.551c1.511-1.033,3.545-1.624,5.166-0.773c2.06,1.082,2.453,3.985,1.653,6.169
				c-0.8,2.184-2.449,3.933-3.682,5.906c-2.283,3.654-2.999,8.408-3.412,12.624c-0.524,5.355-0.771,10.736-0.74,16.116
				c0.031,5.272,0.256,10.859-2.348,15.444c-3.327,5.855-10.869,9.303-11.902,15.957c1.645,2.184,5.089,0.812,7.358-0.713
				c3.708-2.493,7.556-5.137,9.685-9.064c2.396-4.421,2.315-9.961,5.169-14.102c0.862-1.25,2.421-2.42,3.783-1.749
				c1.603,0.79,1.262,3.143,0.676,4.831c-1.755,5.051-3.49,10.11-5.264,15.154c-1.263,3.591-3.1,8.004-7.101,9.156
				c-1.417,0.408-2.923,0.406-4.357,0.749c-3.009,0.72-5.439,2.87-8.184,4.3c-3.17,1.651-6.834,2.336-10.386,1.941
				c-2.264-0.252-4.674-1.08-5.856-3.027c-1.068-1.758-0.862-4.061,0.011-5.924C93.045,394.469,96.318,392.294,99.388,390.216z"/>
			<path style="opacity:0.23;fill:#363636;" d="M335.672,405.16c-0.934,0.395-1.889,1.284-1.611,2.259
				c0.225,0.789,1.123,1.144,1.915,1.355c0.99,0.264,2.049,0.472,3.026,0.165c1.393-0.439,2.977-2.656,1.567-3.922
				C339.493,404.052,336.797,404.685,335.672,405.16z"/>
			<path style="opacity:0.23;fill:#363636;" d="M344.267,403.661c0.424,0.867,1.652,0.848,2.598,0.66
				c0.436-0.086,0.882-0.186,1.253-0.432C351.573,401.595,342.52,400.086,344.267,403.661z"/>
			<path style="opacity:0.23;fill:#363636;" d="M342.524,410.912c-0.215,0.511-0.047,1.126,0.309,1.55
				c0.357,0.424,0.873,0.684,1.4,0.857c1.377,0.454,2.922,0.376,4.247-0.214c2.17-0.966,1.696-3.454-0.446-4.003
				C346.591,408.733,343.14,409.444,342.524,410.912z"/>
			<path style="opacity:0.23;fill:#363636;" d="M74.829,408.877c-0.461,0.378-0.885,0.888-0.895,1.484
				c-0.013,0.756,0.634,1.359,1.297,1.721c1.66,0.906,3.768,0.936,5.452,0.076c0.741-0.378,1.429-0.957,1.695-1.745
				C83.627,406.714,76.343,407.636,74.829,408.877z"/>
			<path style="opacity:0.23;fill:#363636;" d="M88.203,415.092c0.346-0.716,0.041-1.74-0.727-2.079
				c-0.158-0.07-0.331-0.099-0.504-0.119c-1.184-0.133-5.297,0.312-4.567,2.368c0.208,0.587,0.852,0.887,1.45,1.059
				c0.788,0.227,1.627,0.342,2.428,0.17C87.087,416.321,87.847,415.831,88.203,415.092z"/>
			<path style="opacity:0.23;fill:#363636;" d="M89.091,410.21c0.534-0.048,1.109-0.173,1.455-0.583
				c0.983-1.166-0.928-1.646-1.785-1.625c-0.669,0.016-1.874,0.203-1.865,1.085C86.906,410.137,88.338,410.277,89.091,410.21z"/>
			<path style="opacity:0.23;fill:#363636;" d="M73.354,417.661c0.862-0.018,1.736-0.036,2.573,0.171
				c0.59,0.146,1.238,0.517,1.279,1.123c0.027,0.407-0.25,0.788-0.604,0.99c-0.354,0.202-0.773,0.255-1.18,0.272
				c-1.053,0.046-2.928-0.007-3.7-0.86C70.625,418.143,72.45,417.681,73.354,417.661z"/>
			<path style="opacity:0.23;fill:#363636;" d="M120.395,403.667c-0.353,0.219-0.713,0.512-0.78,0.922
				c-0.06,0.365,0.134,0.727,0.377,1.006c0.506,0.58,1.239,0.927,1.992,1.084c0.753,0.157,1.532,0.137,2.299,0.078
				c0.673-0.052,1.354-0.134,1.981-0.386c0.627-0.252,1.202-0.691,1.493-1.3c0.177-0.371,0.233-0.837,0.001-1.176
				c-0.17-0.248-0.46-0.381-0.74-0.49C124.785,402.541,122.489,402.367,120.395,403.667z"/>
			<path style="opacity:0.23;fill:#363636;" d="M107.269,409.599c1.804,0.046,3.705,0.292,5.137,1.391
				c0.129,0.099,0.258,0.212,0.306,0.367c0.09,0.293-0.145,0.581-0.38,0.777c-0.851,0.712-1.923,1.105-2.999,1.375
				c-1.539,0.387-3.13,0.547-4.715,0.53c-1.464-0.015-3.382,0.005-4.754-0.559c-0.762-0.313-1.598-1.232-1.458-2.126
				c0.19-1.215,2.233-1.206,3.168-1.361C103.454,409.685,105.364,409.551,107.269,409.599z"/>
		</g>
		<g id="XMLID_323_">
			<g id="XMLID_468_">
				<path style="fill:#FFB387;" d="M130.645,208.303l14.999-1.448c-0.282,2.737-0.287,10.906-2.338,18.533
					c-0.017,0.064-1.393,3.821-5.029,3.275c-1.357-0.204-3.455-2.981-4.341-3.234C133.993,222.198,131.197,210.389,130.645,208.303z
					"/>
			</g>
			<g id="XMLID_456_">
				<path style="fill:#F02B66;" d="M128.843,190.552c0.154,4.18,0.609,8.351,0.715,12.532c0.023,0.93,0.496,8.443,0.841,9.847
					c5.566-1.089,11.146-2.184,16.616-3.662c0.778-6.403,1.476-12.913,2.129-19.344c0.161-1.588,0.29-3.195,0.304-4.792
					c0.01-1.181-0.29-2.242-0.151-3.44c0.305-2.635,1.626-5.14,1.34-7.842c-0.235-2.224-1.55-4.158-2.482-6.191
					c-1.904-4.155-1.686-8.669-2.646-13.043c-0.613-2.794-2.198-6.836-5.491-4.032c-10.412,8.87-12.148,13.168-11.796,17.536
					C128.822,175.547,128.569,183.105,128.843,190.552z"/>
			</g>
			<path style="fill:#19034D;" d="M190.097,70.82c0.694,0.877,1.429,1.715,2.288,2.431c3.073,2.562,7.262,3.208,11.224,3.757
				c-2.846,6.353-8.72,11.268-15.477,12.946c-2.827,0.702-5.888,0.846-8.593-0.234c-3.322-1.326-5.8-3.96-7.414-7.055
				c-1.103-2.116-1.61-4.392-2.389-6.625c-0.727-2.085-1.897-4.045-2.221-6.27c-1.603-11.018,14.669-7.869,19.335-3.002
				C188.047,68.015,189.025,69.465,190.097,70.82z"/>
			<g id="XMLID_467_">
				<path style="fill:#2155B5;" d="M124.731,243.379c0.428-1.107,1.289-2.184,1.866-2.941c1.932-2.533,3.792-5.182,5.074-8.113
					c1.057-2.416,1.211-5.135,2.247-7.514c0,0,6.062,2.842,9.776-4.133c1.189-2.233,2.153,1.682,2.37,2.263
					c0.839,2.246,1.831,4.44,2.934,6.568c0.529,1.02-6.896,6.193-7.727,6.877c-2.828,2.327-5.11,5.153-7.819,7.613
					c-0.337,0.609-1.11,1.04-1.685,1.372c-1.597,1.127-5.19,2.677-6.817,0.639C124.319,245.22,124.379,244.289,124.731,243.379z"/>
			</g>
			<g id="XMLID_466_">
				<path style="fill:#FFB387;" d="M112.424,205.418c0.175-0.271,0.354-0.539,0.537-0.805c0.158-0.229,0.343-0.472,0.614-0.532
					c0.313-0.07,0.617,0.129,0.88,0.313c1.406,0.983,2.895,1.77,4.432,2.522c0.991,0.484,2.425,1.791,3.402,1.989
					c0.561,0.114,1.203,0.157,1.571,0.595c-0.848,1.678-1.696,3.357-2.544,5.035c-1.156,2.288-2.312,4.576-3.511,6.841
					c-1.287,2.431-2.896,5.333-5.931,4.436c-1.981-0.586-5.782-2.917-5.765-5.313c0.008-1.122,0.415-2.197,0.817-3.245
					C108.486,213.184,110.067,209.074,112.424,205.418z"/>
			</g>
			<g id="XMLID_465_">
				<path style="fill:#FFB387;" d="M181.606,80.628c-0.038,0.719-1.739,2.141-2.261,2.594c-1.322,1.147-3.276,2.049-5.052,1.775
					c-2.058-0.318-3.873-1.627-5.131-3.286c-1.258-1.659-2.01-3.648-2.545-5.66c-0.505-1.9-1.34-4.6-0.968-6.575
					c0.3-1.597,2.462-2.088,3.779-2.418c2.346-0.588,4.842-0.565,7.177,0.066c0.748,0.202,1.5,0.477,2.08,0.991
					c0.456,0.404,0.782,0.935,1.066,1.474c1.029,1.955,1.509,4.207,1.848,6.377c0.157,1.002,0.123,1.993,0.148,2.99
					C181.684,79.513,181.635,80.071,181.606,80.628z"/>
			</g>
			<g id="XMLID_464_">
				<path style="fill:#FFB387;" d="M189.449,93.047c-0.469-0.186-0.989-0.175-1.492-0.22c-2.505-0.223-4.169-2.333-5.076-4.52
					c-1-2.41-1.179-4.714-1.16-7.303c0.009-1.131,0.017-2.262,0.026-3.393c-0.24,0.816-0.853,1.485-1.572,1.94
					c-1.399,0.886-3.232,1.21-4.825,1.57c-1.612,0.364-3.245,0.633-4.886,0.829c1.273,2.575,1.736,6.307,1.616,8.922
					c-0.137,2.988-2.281,3.387-4.435,4.181c-0.481,0.283-0.863,0.612-1.144,0.992c-0.541,0.733-0.73,1.641-0.643,2.702
					c0.057,0.699,0.523,1.289,0.996,1.806c1.079,1.179,2.237,2.074,3.485,2.861c0.9,0.567,1.846,1.078,2.844,1.599
					c2.277,1.188,4.822,2.128,7.43,1.761c2.739-0.385,5.455-2.229,7.148-4.387c1.085-1.382,2.039-2.904,2.43-4.637
					C190.467,96.539,190.916,93.627,189.449,93.047z"/>
			</g>
			<g id="XMLID_463_">
				<path style="fill:#FFB387;" d="M155.192,104.648c0.648-0.638,1.357-1.23,2.033-1.783c1.832-1.5,3.967-2.794,6.328-2.971
					c2.819-0.211,6.159,1.737,6.08,4.819c-0.045,1.774-0.564,3.501-1.176,5.167c-1.308,3.563-5.016,5.75-8.168,7.627
					c-3.484,2.075-7.295,3.606-11.255,4.484c-0.385,0.085-0.791,0.164-1.169,0.049c-0.354-0.109-0.635-0.374-0.896-0.637
					c-7.549-7.549-9.872-19.164-11.415-29.309c-0.056-0.367-0.115-0.744-0.304-1.064c-0.221-0.374-0.594-0.628-0.953-0.873
					c-1.786-1.222-3.585-2.642-4.386-4.653c-0.801-2.011-0.181-4.736,1.819-5.562c1.937-0.8,4.09,0.441,5.691,1.793
					c3.317,2.8,5.484,6.996,7.551,10.77c2.812,5.135,4.993,10.583,7.121,16.027c0.036,0.093,1.862-2.475,1.955-2.598
					C154.388,105.485,154.778,105.057,155.192,104.648z"/>
			</g>
			<g id="XMLID_462_">
				<path style="fill:#2155B5;" d="M158.801,99.057c2.797-1.536,5.603-3.298,8.701-4.18c0.198-0.056,0.411-0.109,0.605-0.041
					c0.116,0.041,0.213,0.122,0.307,0.201c2.544,2.137,5.082,3.112,8.456,3.097c4.166-0.019,8.195-2.021,10.72-5.309
					c0.083-0.108,0.17-0.22,0.29-0.284c0.131-0.07,0.285-0.076,0.433-0.08c2.773-0.075,5.599,0.177,8.237,1.078
					c2.524,0.862,3.885,2.686,4.863,5.153c1.47,3.707,1.538,8.324-1.11,11.306c-0.927,1.044-2.164,1.876-2.699,3.165
					c-0.318,0.767-0.35,1.617-0.378,2.447c0,4.952-0.333,9.928-0.499,14.877c-0.138,4.119,0.597,8.325,0.069,12.426
					c-0.749,5.806-16.562,4.625-19.089,4.421c-1.316-0.106-9.267,1.858-9.707,0.511c-0.901-2.754-2.812-4.9-2.409-7.792
					c0.404-2.894-0.213-3.626-0.139-8.718c0.046-3.187-0.309-6.139-1.033-10.774c0,0-0.533-4.047-0.775-5.974
					C163.168,110.8,162.181,99.766,158.801,99.057z"/>
			</g>
			<g id="XMLID_461_">
				<path style="fill:#F02B66;" d="M165.548,136.785l31.259,1.14c1.036,5.059,2.916,10.885,5.326,18.085c0,0-2.064,1.982-2.27,2.287
					c-0.223,0.331-1.482-1.882-1.873-1.803c-1.919,0.388-3.896,0.33-5.853,0.281c-10.031-0.25-24.289,2.056-29.741-0.994
					C163.567,147.415,165.139,138.986,165.548,136.785z"/>
			</g>
			<g id="XMLID_460_">
				<path style="fill:#2155B5;" d="M168.128,110.504c1.416-2.601,2.86-5.755,2.97-6.124c0.531-1.78,0.791-3.699,0.306-5.491
					c-0.485-1.793-1.83-3.43-3.633-3.875c-2.29-0.565-4.572,0.83-6.443,2.266c-2.876,2.208-5.552,4.675-7.987,7.362
					c4.05,3.113,8.1,6.225,12.15,9.338C165.895,114.289,167.002,112.572,168.128,110.504z"/>
			</g>
			<g id="XMLID_459_">
				<path style="fill:#F02B66;" d="M196.127,160.462c-1.231-3.715-1.868-7.528-4.49-10.558c-3.461-3.999-9.645-6.163-14.378-8.148
					c-1.32-0.554-2.656-1.077-3.948-1.696c-1.121-0.537-2.041-1.381-3.1-2.036c-1.392-0.86-3.018-1.337-4.654-1.367
					c-0.606,2.776-1.569,5.474-2.857,8.007c-0.825,1.622-1.885,3.12-3.413,4.142c-1.637,1.095-3.582,1.602-5.347,2.441
					c-2.329,1.107-3.824,3.005-6.208,3.985c-3.511,1.443-7.151,0.583-10.787,1.072c-4.269,0.574-6.905,1.482-9.058,5.141
					c3.438-0.706,5.073,1.141,7.664,2.72c2.752,1.676,5.956,2.815,8.785,4.418c5.538,3.138,11.01,6.61,17.214,8.287
					c4.381,1.185,8.926,1.031,13.367,1.454c5.163,0.492,10.574,0.05,15.761,0.05c2.371-1.229,4.404-3.032,5.586-5.405
					C198.234,169.015,197.459,164.482,196.127,160.462z"/>
				<path style="fill:#C75555;" d="M145.377,178.325c5.163,0.492,10.574,0.05,15.761,0.05c2.134,0,4.828-3.842,5.307-5.533
					c0.921-3.256,1.173-7.652,0.761-11.013c-0.45-3.679-2.244-7.388-5.465-9.223c-1.673-0.952-3.601-1.34-5.502-1.642
					c-2.961-0.471-5.95-0.768-8.946-0.889c-3.144-0.127-6.394-0.045-9.423,0.893c-2.187,0.678-6.299,2.061-7.663,3.88
					c-2.874,3.834-4.332,8.839-3.384,13.536c0.727,3.6,3.196,7.591,6.656,9.158C136.703,179.001,141.802,177.984,145.377,178.325z"
					/>
				<path style="fill:#F02B66;" d="M122.765,167.751c-1.405,3.94-2.349,8.126-3.273,11.156c-2.545,8.34-5.405,16.584-8.574,24.708
					c-0.92,2.359-1.866,4.708-2.838,7.046c-0.487,1.172,13.569,4.013,14.654,4.143c3.21,0.38,5.388-8.947,6.784-11.079
					c3.239-4.951,6.741-9.352,9.204-14.814c1.17-2.593,2.176-5.279,2.685-8.078c0.415-2.283,0.495-4.612,0.574-6.931
					c0.101-2.96,0.201-5.92,0.302-8.88c0.057-1.667,0.103-3.393-0.535-4.934c-1.884-4.546-9.17-4.594-12.647-2.23
					C126.169,159.851,124.22,163.669,122.765,167.751z"/>
			</g>
			<g id="XMLID_455_">
				<path style="fill:#FFB387;" d="M169.424,120.531c-0.595-0.052-1.189-0.114-1.782-0.186c-1.077-0.13-2.179-0.3-3.125-0.833
					c-2.513-1.414-1.533-4.631-0.51-6.767c0.552-1.153,1.263-2.275,2.316-3c1.482-1.021,3.394-1.106,5.193-1.156
					c4.513-0.125,9.723,0.324,13.981-1.482c2.517-1.068,4.518-3.037,6.713-4.666c1.802-1.338,3.857-2.454,6.136-2.603
					c3.745-0.245,4.205,5.631,3.678,8.296c-0.578,2.919-2.545,5.432-4.966,7.162c-2.421,1.73-5.274,2.754-8.147,3.527
					C182.582,120.527,175.952,121.106,169.424,120.531z"/>
			</g>
			<g id="XMLID_452_">
				<path style="fill:#2155B5;" d="M188.811,108.051c0.704,0.783,9.196,9.15,9.316,8.975c1.977-2.905,3.979-5.859,5.084-9.195
					c1.898-5.731,0.397-12.42-5.924-14.336c-0.897-0.272-1.862-0.426-2.769-0.189c-2.093,0.547-2.512,3.043-3.387,4.677
					c-1.4,2.613-2.781,5.285-4.216,7.899C187.536,106.614,188.168,107.337,188.811,108.051z"/>
			</g>
			
				<linearGradient id="SVGID_00000135652666890250962370000000820530239114250676_" gradientUnits="userSpaceOnUse" x1="173.3061" y1="144.4301" x2="172.4225" y2="157.1318">
				<stop  offset="0.1214" style="stop-color:#E06060;stop-opacity:0"/>
				<stop  offset="0.9374" style="stop-color:#000000;stop-opacity:0.57"/>
			</linearGradient>
			<path style="fill:url(#SVGID_00000135652666890250962370000000820530239114250676_);" d="M177.975,155.622
				c3.064-0.922,4.675-3.797,6.598-6.157c0.462-0.567,0.927-1.138,1.281-1.779c0.63-1.142,0.856-2.623,0.156-3.723
				c-0.896-1.409-2.838-1.627-4.508-1.611c-7.1,0.07-14.311,1.828-20.145,5.875c-3.574,2.48-0.883,4.974,2.281,5.689
				c1.847,0.417,3.694,0.834,5.541,1.251c2.231,0.504,4.504,1.011,6.784,0.829C176.639,155.943,177.319,155.819,177.975,155.622z"/>
			<g id="XMLID_400_">
				<path style="fill:#C75555;" d="M150.617,177.043c0.978,0.42,1.987,0.785,3.017,1.112c1.075,0.341,2.198,0.514,3.327,0.514H191.9
					c4.483,0,8.652-2.688,10.155-6.911c0.089-0.251,0.17-0.505,0.242-0.761c1.654-5.931,1.215-12.447-1.315-18.069
					c-0.767-1.704-1.545-4.582-2.665-6.002c-0.965-1.224-2.72-1.083-4.446-0.885c-1.384,0.159-1.415,0.531-2.579,1.078
					c-1.364,0.641-2.884,1.089-4.287,1.683c-3.569,1.543-7.182,3.41-11.159,3.196c-4.619-0.249-9.325-1.231-13.916-1.829
					c-5.907-0.771-11.981-1.484-17.957-1.145c-4.392,0.249-8.947,1.09-12.439,3.765c-3.486,2.67-5.477,6.822-7.072,10.913
					c-1.134,2.908-2.133,5.87-2.992,8.87c-0.491,1.714,0.117,3.636,1.621,4.592c3.763,2.39,8.19-3.952,12.229-4.19
					C140.557,172.666,145.919,175.027,150.617,177.043z"/>
			</g>
			<g id="XMLID_391_">
				<path style="fill:#FFFFFF;" d="M171.079,80.145c0.013,0.024,0.02,0.049,0.045,0.074c1.695,1.776,3.695,0.776,3.667-0.982
					c0-0.006-0.003-0.01-0.003-0.016C173.612,79.695,172.285,79.934,171.079,80.145z"/>
			</g>
			<g id="XMLID_392_">
				<g id="XMLID_395_">
					<g id="XMLID_396_">
						<path style="fill:#2155B5;" d="M93.219,219.332c-1.348-0.187-2.733-0.417-4.056-0.096c-1.323,0.321-2.581,1.358-2.683,2.715
							c-0.073,0.973,0.297,1.495,1.036,2.134c0.567,0.49,1.272,0.934,1.97,1.216c1.146,0.463,16.503,6.168,23.28,7.382
							c1.336,0.239,1.971-0.467,2.25-1.195c0.87-2.275,1.693-4.9,2.394-7.275c0.24-0.811-0.492-1.571-1.315-1.373
							c-7.667,1.843-9.864-4.126-9.864-4.126C100.175,219.99,93.232,219.294,93.219,219.332z"/>
					</g>
				</g>
			</g>
			<path style="fill:#19034D;" d="M170.924,62.586c-2.507-0.151-6.521-0.352-8.155,2.029c-0.87,1.268-0.98,2.949-0.568,4.43
				c0.311,1.118,0.953,2.208,1.986,2.735c1.024,0.523,2.247,0.415,3.382,0.231c1.923-0.311,3.816-0.801,5.647-1.464
				c2.464-0.891,5.137-1.041,6.023,2.104c0.181,0.642,0.154,1.444,0.708,1.815c0.12,0.081,0.268,0.132,0.41,0.105
				c0.086-0.016,0.165-0.06,0.242-0.104c1.475-0.842,4.678-2.593,3.901-4.749c-0.371-1.028-1.421-1.822-2.141-2.6
				c-0.92-0.996-1.676-2.178-2.871-2.897c-0.876-0.527-1.895-0.755-2.9-0.942C174.716,62.933,172.823,62.701,170.924,62.586z"/>
			<g id="XMLID_25_">
				<path style="fill:#F02B66;" d="M150.617,177.043c0.978,0.42,1.987,0.785,3.017,1.112c1.075,0.341,2.198,0.514,3.327,0.514H191.9
					c4.483,0,8.652-2.688,10.155-6.911c0.089-0.251,0.17-0.505,0.242-0.761c1.654-5.931,1.215-12.447-1.315-18.069
					c-0.767-1.704-1.545-4.582-2.665-6.002c-0.965-1.224-2.72-1.083-4.446-0.885c-1.384,0.159-1.415,0.531-2.579,1.078
					c-1.364,0.641-2.884,1.089-4.287,1.683c-3.569,1.543-7.182,3.41-11.159,3.196c-4.619-0.249-9.325-1.231-13.916-1.829
					c-5.907-0.771-11.981-1.484-17.957-1.145c-4.392,0.249-8.947,1.09-12.439,3.765c-3.486,2.67-5.477,6.822-7.072,10.913
					c-1.134,2.908-2.133,5.87-2.992,8.87c-0.491,1.714,0.117,3.636,1.621,4.592c3.763,2.39,8.19-3.952,12.229-4.19
					C140.557,172.666,145.919,175.027,150.617,177.043z"/>
			</g>
			
				<linearGradient id="SVGID_00000094589604135213215350000008451550971865688746_" gradientUnits="userSpaceOnUse" x1="114.8486" y1="183.5336" x2="137.3302" y2="187.3292">
				<stop  offset="0.1214" style="stop-color:#E06060;stop-opacity:0"/>
				<stop  offset="0.9374" style="stop-color:#000000;stop-opacity:0.57"/>
			</linearGradient>
			<path style="fill:url(#SVGID_00000094589604135213215350000008451550971865688746_);" d="M122.802,214.428
				c0.393,0.051,0.808,0.09,1.172-0.066c0.465-0.199,0.746-0.668,0.993-1.109c2.487-4.453,4.683-9.123,6.684-13.881
				c1.997-4.747,3.8-9.579,5.504-14.368c2.411-6.771,4.631-13.551,6.73-20.467c0.471-1.551,0.895-3.388-0.103-4.665
				c-0.417-0.534-1.029-0.879-1.658-1.13c-4.122-1.643-8.989,0.554-11.739,4.036c-3.209,4.062-4.303,9.682-5.498,14.586
				c-1.4,5.748-2.458,11.571-3.578,17.378c-0.643,3.333-1.061,6.907-2.156,10.126c-0.8,2.352-1.485,5.202-3.08,7.128
				c-0.113,0.136-0.238,0.299-0.195,0.471c0.043,0.174,0.235,0.26,0.404,0.321C118.383,213.546,120.584,214.141,122.802,214.428z"/>
			<path style="fill:#F02B66;" d="M152.379,169.944c0.058-1.492-0.042-2.99-0.292-4.457c-0.447-2.622-1.502-5.291-4.155-6.215
				c-2.204-0.768-4.5-1.272-6.845-1.242c-4.84,0.06-8.907,2.629-10.705,7.184c-2.357,5.972-2.503,12.581-2.063,18.986
				c0.439,6.405,1.431,12.792,1.231,19.209l-0.178,1.25c1.243-1.214,3.074-1.534,4.679-2.196c3.349-1.382,5.78-4.309,7.942-7.216
				c2.641-3.551,3.038-8.139,5.051-11.997c1.497-2.87,3.582-5.152,4.524-8.33C152.046,173.305,152.313,171.629,152.379,169.944z"/>
			
				<linearGradient id="SVGID_00000179615753506264559880000009381802605791329970_" gradientUnits="userSpaceOnUse" x1="165.526" y1="157.9432" x2="167.5877" y2="187.9856">
				<stop  offset="0.1214" style="stop-color:#F02B66;stop-opacity:0"/>
				<stop  offset="0.9374" style="stop-color:#000000;stop-opacity:0.57"/>
			</linearGradient>
			<path style="fill:url(#SVGID_00000179615753506264559880000009381802605791329970_);" d="M188.658,178.669
				c-11.478-4.415-23.656-8.95-34.001-15.666c-3.465-2.249-6.492-4.629-10.818-4.706c4.948,5.225,7.102,12.067,6.276,19.108
				c0.551,1.754,1.918,1.454,5.3,1.298c2.211-0.102,4.431-0.049,6.641,0.031c-0.235-0.018-0.469-0.033-0.704-0.051
				C161.17,178.669,178.477,178.669,188.658,178.669z"/>
			<g id="XMLID_327_">
				<path style="fill:#FFB387;" d="M178.898,74.462c0.084-0.379,0.279-0.715,0.543-0.952c0.334-0.438,1.003-0.573,1.521-0.473
					c0.728,0.141,1.333,0.79,1.483,1.556c0.329,1.686-1.503,2.899-2.815,1.93C179.011,76.067,178.729,75.228,178.898,74.462z"/>
			</g>
			
				<linearGradient id="SVGID_00000164503113287635467700000003926382153677683094_" gradientUnits="userSpaceOnUse" x1="178.2295" y1="108.0029" x2="193.0159" y2="100.3786">
				<stop  offset="0.6027" style="stop-color:#2E71B0;stop-opacity:0"/>
				<stop  offset="0.9955" style="stop-color:#000000"/>
			</linearGradient>
			<path style="opacity:0.62;fill:url(#SVGID_00000164503113287635467700000003926382153677683094_);" d="M188.273,104.487
				c0.99-1.714,1.898-3.473,2.807-5.231c-0.23,0.15-0.532,0.083-0.806,0.084c-0.453,0.003-0.877,0.207-1.283,0.406
				c-1.644,0.808-3.695,1.712-4.812,3.237c-0.556,0.759-1.633,3.723-0.372,4.249c0.853,0.356,2.943-0.797,3.516-1.374
				c0.355-0.358,0.618-0.796,0.871-1.232C188.22,104.58,188.247,104.534,188.273,104.487z"/>
			
				<linearGradient id="SVGID_00000093889417457301847400000003400474175429139886_" gradientUnits="userSpaceOnUse" x1="179.0175" y1="94.6366" x2="174.4526" y2="79.1746">
				<stop  offset="0.5608" style="stop-color:#FFB387;stop-opacity:0"/>
				<stop  offset="0.9773" style="stop-color:#000000"/>
			</linearGradient>
			<path style="fill:url(#SVGID_00000093889417457301847400000003400474175429139886_);" d="M178.899,81.247
				c-0.99,0.798-1.845,1.598-3.094,2.09c-0.015,0.006-0.03,0.012-0.045,0.017c-1.188,0.457-2.475,0.643-3.745,0.551
				c2.321,1.537,4.451,3.333,6.616,5.09c0.062,0.004,0.124,0.008,0.186,0.015C178.699,86.409,178.649,83.766,178.899,81.247z"/>
			<g>
				<polygon style="fill:#19034D;" points="172.124,76.014 163.012,78.941 162.325,74.695 171.895,74.599 				"/>
				<g>
					<path style="fill:#0C7B7D;" d="M63.348,76.951l0.001,0.008c0.056-0.008,0.112-0.016,0.169-0.023L63.348,76.951z"/>
					<path style="fill:#0C7B7D;" d="M71.864,106.23l-3.612,1.026C69.579,107.014,70.773,106.662,71.864,106.23z"/>
					<path style="fill:#0C7B7D;" d="M71.864,106.23l92.118-26.158c1.591-0.452,2.591-2.023,2.327-3.656l0,0
						c-0.262-1.617-1.683-2.789-3.32-2.737l-97.732,3.104c8.451-0.352,13.051,6.451,14.295,14.135
						C80.694,97.98,78.303,103.681,71.864,106.23z"/>
				</g>
				<g>
					
						<ellipse transform="matrix(0.0269 -0.9996 0.9996 0.0269 -28.5239 155.0408)" style="opacity:0.34;fill:#0C3DF0;" cx="65.376" cy="92.172" rx="14.194" ry="14.194"/>
					
						<ellipse transform="matrix(0.0269 -0.9996 0.9996 0.0269 -28.5239 155.0408)" style="fill:none;stroke:#19034D;stroke-width:6;stroke-miterlimit:10;" cx="65.376" cy="92.172" rx="14.194" ry="14.194"/>
					<g>
						<path style="fill:none;stroke:#FFFFFF;stroke-miterlimit:10;" d="M57.442,88.345c-0.757,2.431-0.547,5.149,0.575,7.435
							c1.122,2.286,3.142,4.115,5.528,5.004"/>
					</g>
				</g>
				<g>
					<defs>
						<polygon id="SVGID_00000147916745314929623340000003170658294156348857_" points="170.816,73.321 70.452,76.536 
							75.124,105.408 164.847,79.515 						"/>
					</defs>
					<clipPath id="SVGID_00000042721410520236998590000007646857440157100971_">
						<use xlink:href="#SVGID_00000147916745314929623340000003170658294156348857_"  style="overflow:visible;"/>
					</clipPath>
					<g style="clip-path:url(#SVGID_00000042721410520236998590000007646857440157100971_);">
						<g>
							<path style="fill:#19034D;" d="M88.941,103.172l-0.137-0.849c7.492-1.212,12.6-8.294,11.388-15.786
								c-1.213-7.492-8.294-12.6-15.786-11.388L84.269,74.3c7.96-1.288,15.484,4.14,16.772,12.1
								C102.329,94.36,96.902,101.884,88.941,103.172z"/>
						</g>
						<g>
							<path style="fill:#19034D;" d="M110.183,97.12l-0.137-0.849c6.087-0.985,10.238-6.739,9.253-12.826
								c-0.985-6.087-6.739-10.238-12.826-9.253l-0.137-0.849c6.555-1.061,12.752,3.409,13.812,9.965S116.738,96.059,110.183,97.12z
								"/>
						</g>
						<g>
							<path style="fill:#19034D;" d="M148.421,85.703l-0.137-0.849c3.277-0.53,5.513-3.629,4.982-6.906
								c-0.531-3.278-3.629-5.513-6.906-4.982l-0.137-0.849c3.746-0.606,7.287,1.948,7.893,5.694
								C154.721,81.557,152.166,85.097,148.421,85.703z"/>
						</g>
						<g>
							<path style="fill:#19034D;" d="M130.576,91.206l-0.137-0.849c4.682-0.758,7.875-5.184,7.117-9.866
								c-0.758-4.683-5.184-7.875-9.866-7.118l-0.137-0.849c5.151-0.834,10.019,2.679,10.853,7.829
								C139.238,85.504,135.726,90.372,130.576,91.206z"/>
						</g>
					</g>
				</g>
			</g>
			<g id="XMLID_405_">
				<g id="XMLID_445_">
					<g id="XMLID_446_">
						<g id="XMLID_447_">
							<path style="fill:#FFB387;" d="M171.742,107.444c1.163,3.235,2.621,7.61,0.935,10.054c-0.628,0.91-1.618,1.517-2.653,1.905
								c-1.273,0.478-2.694,0.658-3.999,0.277c-4.818-1.407-4.642-7.579-5.418-11.541c-1.079-5.51-1.492-11.121-1.905-16.712
								c-0.112-1.515-0.219-3.074,0.236-4.524c0.416-1.328,2.203-3.719,3.763-2.877c1.058,0.571,1.363,2.914,1.836,3.923
								c0.857,1.829,1.639,3.692,2.37,5.575c1.508,3.877,2.796,7.835,4.083,11.79C171.189,105.925,171.456,106.65,171.742,107.444z"
								/>
						</g>
					</g>
				</g>
				<g id="XMLID_408_">
					<g id="XMLID_443_">
						<g id="XMLID_444_">
							<path style="fill:#FFB387;" d="M157.687,72.744c2.279,1.519,3.173,1.919,4.716,4.579c0.959,1.653-0.771,2.155-1.463,1.165
								c-1.485-2.126-2.209-2.803-4.367-4.242C155.572,73.579,156.686,72.077,157.687,72.744z"/>
						</g>
					</g>
					<g id="XMLID_441_">
						<g id="XMLID_442_">
							<path style="fill:#FFB387;" d="M156.408,74.366c2.573,1.825,2.462,2.38,4.615,4.668c0.824,0.876-0.641,2.038-1.463,1.165
								c-2.047-2.175-1.822-2.597-4.267-4.331C154.313,75.172,155.425,73.668,156.408,74.366z"/>
						</g>
					</g>
					<g id="XMLID_439_">
						<g id="XMLID_440_">
							<path style="fill:#FFB387;" d="M154.358,76.713c0.403-0.579,0.885-0.428,1.34-0.078c0.573,0.443,0.245,0.245,0.774,0.741
								c1.038,0.972,1.986,2.021,2.845,3.155c0.725,0.957-0.733,2.128-1.463,1.165c-0.716-0.945-1.488-1.847-2.343-2.67
								c-0.412-0.397-0.735-0.788-1.045-1.141C154.005,77.362,154.104,77.078,154.358,76.713z"/>
						</g>
					</g>
					<g id="XMLID_409_">
						<g id="XMLID_438_">
							<path style="fill:#FFB387;" d="M154.455,78.911c1.679,1.315,2.034,1.78,3.333,3.46c0.735,0.951-0.724,2.12-1.463,1.165
								c-1.198-1.548-1.436-1.91-2.984-3.123C152.396,79.673,153.504,78.166,154.455,78.911z"/>
						</g>
					</g>
				</g>
				<g id="XMLID_406_">
					<g id="XMLID_407_">
						<path style="fill:#FFB387;" d="M156.189,81.608c-0.327,0.317-0.579,0.674-0.656,1.1c-0.224,1.239,0.954,3.446,1.417,4.577
							c0.58,1.418,1.44,2.939,2.924,3.319c1.289,0.331,2.699-0.384,3.426-1.498c0.955-1.463,0.816-3.607,0.796-5.293
							c-0.017-1.459-0.445-5.674-1.963-6.618c-1.12-0.696-3.458,2.409-4.127,3.006C157.504,80.651,156.739,81.074,156.189,81.608z"
							/>
					</g>
				</g>
			</g>
		</g>
	</g>
</g>
<g id="DESIGNED_BY_FREEPIK">
	<g id="XMLID_302_">
		<g id="XMLID_328_">
			<g id="XMLID_351_">
				<path id="XMLID_376_" style="fill:#112129;" d="M260.104,468.492c-0.432,0.443-0.803,0.931-1.108,1.453l-0.465-0.241
					c-0.067-0.298-0.349-0.503-0.659-0.466c-0.331,0.039-0.568,0.339-0.529,0.67c0.039,0.331,0.339,0.568,0.67,0.529
					c0.065-0.008,0.127-0.026,0.184-0.052l0.451,0.234c-0.251,0.554-0.433,1.139-0.539,1.744l0.746,0.132
					c0.23-1.306,0.85-2.507,1.792-3.473L260.104,468.492z"/>
				<path id="XMLID_375_" style="fill:#112129;" d="M265.592,466.19c-0.171,0-0.341,0.006-0.51,0.017l-0.074-0.626
					c0.188-0.149,0.296-0.389,0.266-0.645c-0.046-0.393-0.402-0.674-0.795-0.628c-0.393,0.046-0.674,0.402-0.628,0.795
					c0.03,0.254,0.189,0.461,0.405,0.564l0.073,0.624c-0.714,0.116-1.403,0.332-2.06,0.646l0.327,0.684
					c0.934-0.447,1.942-0.673,2.995-0.673c0.496,0,0.993,0.053,1.475,0.158l0.16-0.741
					C266.692,466.249,266.142,466.19,265.592,466.19z"/>
				<path id="XMLID_374_" style="fill:#112129;" d="M272.194,468.737c0.331-0.04,0.566-0.342,0.526-0.672
					c-0.04-0.331-0.341-0.566-0.672-0.526c-0.309,0.038-0.535,0.304-0.53,0.609l-0.416,0.363c-0.418-0.43-0.89-0.813-1.408-1.139
					l-0.404,0.641c1.134,0.715,2.021,1.726,2.563,2.925l0.69-0.313c-0.251-0.554-0.567-1.072-0.942-1.545l0.402-0.351
					C272.065,468.742,272.129,468.745,272.194,468.737z"/>
				<path id="XMLID_373_" style="fill:#112129;" d="M265.044,476.398c-0.386,0.023-0.775,0.035-1.157,0.035
					c-0.88,0-1.733-0.061-2.478-0.179c-0.39-0.062-0.846-0.155-1.27-0.292c1.047,1.861,3.07,3.125,5.388,3.125
					c2.855,0,5.262-1.916,5.949-4.504c-0.682,0.449-1.505,0.825-2.458,1.123C267.839,476.073,266.463,476.313,265.044,476.398z"/>
				<path id="XMLID_352_" style="fill:#112129;" d="M265.592,467.706c-3.352,0-6.08,2.666-6.08,5.943
					c0,0.426,0.046,0.849,0.137,1.261c0.674,0.483,2.706,0.89,5.348,0.731c2.879-0.173,5.297-0.957,6.672-2.159
					c-0.005-0.195-0.021-0.39-0.045-0.582C271.244,469.939,268.65,467.706,265.592,467.706z M263.432,474.221
					c-1.02,0-1.85-0.83-1.85-1.85c0-1.02,0.83-1.85,1.85-1.85c1.02,0,1.85,0.83,1.85,1.85
					C265.282,473.391,264.452,474.221,263.432,474.221z M268.17,473.312c-0.75,0-1.36-0.61-1.36-1.36c0-0.75,0.61-1.361,1.36-1.361
					s1.36,0.61,1.36,1.361C269.53,472.702,268.92,473.312,268.17,473.312z"/>
			</g>
			<path id="XMLID_349_" style="fill:#112129;" d="M281.595,469.573c-0.295-0.116-0.805-0.309-1.382-0.237
				c-0.551,0.069-0.844,0.341-0.844,1.007v0.866h2.228v1.717h-2.228v5.455h-1.932v-5.455h-1.34v-1.717h1.34v-0.888
				c0-1.68,0.896-2.783,2.568-2.783c0.643,0,1.157,0.122,1.59,0.308L281.595,469.573z"/>
			<path id="XMLID_347_" style="fill:#112129;" d="M286.298,472.905c-0.177-0.03-0.358-0.046-0.526-0.046
				c-0.896,0-1.51,0.548-1.51,1.613v3.908h-1.932v-7.172h1.873v0.785c0.451-0.673,1.14-0.977,2.021-0.977
				c0.414,0,0.848,0.128,1.094,0.337L286.298,472.905z"/>
			<path id="XMLID_344_" style="fill:#112129;" d="M293.965,474.783c0,0.222-0.015,0.489-0.037,0.651h-5.085
				c0.207,1.036,0.933,1.488,1.843,1.488c0.622,0,1.295-0.252,1.813-0.688l1.133,1.243c-0.814,0.748-1.85,1.088-3.057,1.088
				c-2.198,0-3.723-1.495-3.723-3.753c0-2.258,1.48-3.797,3.626-3.797C292.544,471.016,293.958,472.548,293.965,474.783z
				 M288.851,474.117h3.175c-0.178-0.918-0.733-1.436-1.562-1.436C289.554,472.681,289.021,473.229,288.851,474.117z"/>
			<path id="XMLID_341_" style="fill:#112129;" d="M301.618,474.783c0,0.222-0.015,0.489-0.037,0.651h-5.085
				c0.207,1.036,0.933,1.488,1.843,1.488c0.622,0,1.295-0.252,1.813-0.688l1.132,1.243c-0.814,0.748-1.85,1.088-3.057,1.088
				c-2.198,0-3.723-1.495-3.723-3.753c0-2.258,1.48-3.797,3.627-3.797C300.197,471.016,301.611,472.548,301.618,474.783z
				 M296.504,474.117h3.175c-0.178-0.918-0.733-1.436-1.562-1.436C297.207,472.681,296.674,473.229,296.504,474.117z"/>
			<path id="XMLID_335_" style="fill:#112129;" d="M309.964,474.791c0,2.154-1.495,3.775-3.471,3.775
				c-0.962,0-1.643-0.378-2.109-0.933v3.708h-1.924v-10.133h1.887V472c0.466-0.585,1.155-0.984,2.139-0.984
				C308.469,471.016,309.964,472.637,309.964,474.791z M304.287,474.791c0,1.132,0.748,1.976,1.843,1.976
				c1.14,0,1.85-0.881,1.85-1.976c0-1.095-0.71-1.976-1.85-1.976C305.035,472.814,304.287,473.658,304.287,474.791z"/>
			<path id="XMLID_331_" style="fill:#112129;" d="M313.068,468.862c0,0.696-0.54,1.229-1.236,1.229
				c-0.696,0-1.229-0.533-1.229-1.229c0-0.696,0.533-1.243,1.229-1.243C312.527,467.619,313.068,468.166,313.068,468.862z
				 M312.809,478.38h-1.932v-7.172h1.932V478.38z"/>
			<path id="XMLID_329_" style="fill:#112129;" d="M316.032,473.762l2.701-2.554h2.368l-3.479,3.375l3.501,3.797h-2.376
				l-2.716-2.901v2.901H314.1v-10.658h1.932V473.762z"/>
		</g>
		<g id="XMLID_410_">
			<path id="XMLID_435_" style="fill:#112129;" d="M184.412,478.315v-1.055c-0.527,0.718-1.391,1.23-2.387,1.23
				c-1.846,0-3.149-1.406-3.149-3.706c0-2.256,1.289-3.721,3.149-3.721c0.952,0,1.816,0.469,2.387,1.245v-3.765h1.099v9.77H184.412z
				 M184.412,476.396v-3.208c-0.395-0.615-1.245-1.143-2.124-1.143c-1.421,0-2.27,1.172-2.27,2.739c0,1.567,0.85,2.724,2.27,2.724
				C183.168,477.51,184.017,477.012,184.412,476.396z"/>
			<path id="XMLID_432_" style="fill:#112129;" d="M186.932,474.771c0-2.051,1.465-3.706,3.486-3.706
				c2.139,0,3.398,1.67,3.398,3.794v0.279h-5.727c0.088,1.333,1.025,2.446,2.549,2.446c0.805,0,1.626-0.322,2.182-0.893l0.527,0.718
				c-0.703,0.703-1.655,1.084-2.812,1.084C188.44,478.491,186.932,476.982,186.932,474.771z M190.403,471.973
				c-1.509,0-2.256,1.274-2.314,2.358h4.643C192.718,473.276,192.015,471.973,190.403,471.973z"/>
			<path id="XMLID_430_" style="fill:#112129;" d="M194.607,477.378l0.571-0.791c0.469,0.542,1.362,1.011,2.329,1.011
				c1.084,0,1.67-0.513,1.67-1.216c0-1.714-4.38-0.659-4.38-3.281c0-1.098,0.952-2.036,2.636-2.036c1.201,0,2.051,0.454,2.622,1.025
				l-0.513,0.762c-0.424-0.513-1.201-0.894-2.109-0.894c-0.967,0-1.567,0.483-1.567,1.113c0,1.552,4.38,0.527,4.38,3.281
				c0,1.187-0.952,2.138-2.783,2.138C196.306,478.491,195.325,478.139,194.607,477.378z"/>
			<path id="XMLID_427_" style="fill:#112129;" d="M201.477,469.497c0-0.41,0.337-0.747,0.732-0.747c0.41,0,0.747,0.337,0.747,0.747
				c0,0.41-0.337,0.732-0.747,0.732C201.814,470.229,201.477,469.908,201.477,469.497z M201.667,478.315v-7.075h1.099v7.075H201.667
				z"/>
			<path id="XMLID_424_" style="fill:#112129;" d="M204.582,480.132l0.556-0.82c0.586,0.703,1.289,0.967,2.3,0.967
				c1.172,0,2.27-0.571,2.27-2.124v-1.011c-0.513,0.718-1.377,1.26-2.373,1.26c-1.845,0-3.149-1.377-3.149-3.662
				c0-2.27,1.289-3.676,3.149-3.676c0.952,0,1.802,0.469,2.373,1.245v-1.069h1.098v6.87c0,2.344-1.641,3.076-3.369,3.076
				C206.237,481.186,205.417,480.952,204.582,480.132z M209.709,476.279v-3.091c-0.381-0.615-1.23-1.143-2.109-1.143
				c-1.421,0-2.27,1.128-2.27,2.695c0,1.553,0.849,2.695,2.27,2.695C208.478,477.436,209.328,476.895,209.709,476.279z"/>
			<path id="XMLID_422_" style="fill:#112129;" d="M217.413,478.315v-4.629c0-1.245-0.63-1.641-1.582-1.641
				c-0.864,0-1.685,0.527-2.095,1.099v5.17h-1.099v-7.075h1.099v1.025c0.498-0.586,1.464-1.201,2.519-1.201
				c1.479,0,2.256,0.747,2.256,2.285v4.966H217.413z"/>
			<path id="XMLID_419_" style="fill:#112129;" d="M219.932,474.771c0-2.051,1.465-3.706,3.486-3.706
				c2.139,0,3.398,1.67,3.398,3.794v0.279h-5.727c0.088,1.333,1.025,2.446,2.548,2.446c0.806,0,1.626-0.322,2.183-0.893l0.527,0.718
				c-0.703,0.703-1.655,1.084-2.812,1.084C221.441,478.491,219.932,476.982,219.932,474.771z M223.404,471.973
				c-1.509,0-2.256,1.274-2.314,2.358h4.643C225.718,473.276,225.015,471.973,223.404,471.973z"/>
			<path id="XMLID_416_" style="fill:#112129;" d="M233.35,478.315v-1.055c-0.527,0.718-1.392,1.23-2.388,1.23
				c-1.846,0-3.149-1.406-3.149-3.706c0-2.256,1.289-3.721,3.149-3.721c0.952,0,1.817,0.469,2.388,1.245v-3.765h1.098v9.77H233.35z
				 M233.35,476.396v-3.208c-0.396-0.615-1.245-1.143-2.124-1.143c-1.421,0-2.27,1.172-2.27,2.739c0,1.567,0.849,2.724,2.27,2.724
				C232.105,477.51,232.954,477.012,233.35,476.396z"/>
			<path id="XMLID_413_" style="fill:#112129;" d="M239.692,478.315v-9.77h1.098v3.765c0.572-0.776,1.421-1.245,2.388-1.245
				c1.845,0,3.149,1.465,3.149,3.721c0,2.299-1.304,3.706-3.149,3.706c-0.996,0-1.86-0.513-2.388-1.23v1.055H239.692z M242.9,477.51
				c1.436,0,2.285-1.157,2.285-2.724c0-1.568-0.85-2.739-2.285-2.739c-0.864,0-1.728,0.527-2.109,1.143v3.208
				C241.171,477.012,242.036,477.51,242.9,477.51z"/>
			<path id="XMLID_411_" style="fill:#112129;" d="M247.528,480.088c0.161,0.073,0.425,0.117,0.601,0.117
				c0.483,0,0.805-0.161,1.055-0.747l0.469-1.069l-2.959-7.148h1.187l2.358,5.801l2.344-5.801h1.201l-3.545,8.51
				c-0.425,1.025-1.143,1.421-2.08,1.435c-0.234,0-0.601-0.044-0.805-0.103L247.528,480.088z"/>
		</g>
	</g>
</g>
</svg>
