<?xml version="1.0" encoding="utf-8"?>
<!-- Generator: Adobe Illustrator 27.5.0, SVG Export Plug-In . SVG Version: 6.00 Build 0)  -->
<svg version="1.1" xmlns="http://www.w3.org/2000/svg" xmlns:xlink="http://www.w3.org/1999/xlink" x="0px" y="0px"
	 viewBox="0 0 500 500" style="enable-background:new 0 0 500 500;" xml:space="preserve">
<g id="BACKGROUND">
	<rect style="fill:#FFFFFF;" width="500" height="500"/>
</g>
<g id="OBJECTS">
	<g>
		<g>
			<linearGradient id="SVGID_1_" gradientUnits="userSpaceOnUse" x1="331.4669" y1="163.3842" x2="404.6392" y2="163.3842">
				<stop  offset="2.500000e-07" style="stop-color:#E7FFE7"/>
				<stop  offset="1" style="stop-color:#BBEEF6"/>
			</linearGradient>
			<circle style="opacity:0.5;fill:url(#SVGID_1_);" cx="368.053" cy="163.384" r="36.586"/>
			
				<linearGradient id="SVGID_00000034791019582234153700000005415453636533287298_" gradientUnits="userSpaceOnUse" x1="320.7757" y1="94.3882" x2="366.5207" y2="94.3882">
				<stop  offset="2.500000e-07" style="stop-color:#E7FFE7"/>
				<stop  offset="1" style="stop-color:#BBEEF6"/>
			</linearGradient>
			
				<circle style="opacity:0.5;fill:url(#SVGID_00000034791019582234153700000005415453636533287298_);" cx="343.648" cy="94.388" r="22.872"/>
			
				<linearGradient id="SVGID_00000170271490506133494020000001616159762631974023_" gradientUnits="userSpaceOnUse" x1="412.9807" y1="183.6918" x2="435.8532" y2="183.6918">
				<stop  offset="2.500000e-07" style="stop-color:#E7FFE7"/>
				<stop  offset="1" style="stop-color:#BBEEF6"/>
			</linearGradient>
			<circle style="fill:url(#SVGID_00000170271490506133494020000001616159762631974023_);" cx="424.417" cy="183.692" r="11.436"/>
			
				<linearGradient id="SVGID_00000167357936414703294310000014634294502495652242_" gradientUnits="userSpaceOnUse" x1="76.006" y1="189.6164" x2="94.1384" y2="189.6164">
				<stop  offset="2.500000e-07" style="stop-color:#E7FFE7"/>
				<stop  offset="1" style="stop-color:#BBEEF6"/>
			</linearGradient>
			<circle style="fill:url(#SVGID_00000167357936414703294310000014634294502495652242_);" cx="85.072" cy="189.616" r="9.066"/>
			
				<linearGradient id="SVGID_00000033351071893357354110000012562992599442748331_" gradientUnits="userSpaceOnUse" x1="412.9807" y1="389.2574" x2="435.8532" y2="389.2574">
				<stop  offset="2.500000e-07" style="stop-color:#E7FFE7"/>
				<stop  offset="1" style="stop-color:#BBEEF6"/>
			</linearGradient>
			<circle style="fill:url(#SVGID_00000033351071893357354110000012562992599442748331_);" cx="424.417" cy="389.257" r="11.436"/>
			
				<linearGradient id="SVGID_00000167388230838986918080000006702842153592133802_" gradientUnits="userSpaceOnUse" x1="398.8426" y1="98.9069" x2="412.9807" y2="98.9069">
				<stop  offset="2.500000e-07" style="stop-color:#E7FFE7"/>
				<stop  offset="1" style="stop-color:#BBEEF6"/>
			</linearGradient>
			<circle style="fill:url(#SVGID_00000167388230838986918080000006702842153592133802_);" cx="405.912" cy="98.907" r="7.069"/>
			
				<linearGradient id="SVGID_00000050637531560708683930000009249249265826178436_" gradientUnits="userSpaceOnUse" x1="68.3868" y1="364.5382" x2="82.525" y2="364.5382">
				<stop  offset="2.500000e-07" style="stop-color:#E7FFE7"/>
				<stop  offset="1" style="stop-color:#BBEEF6"/>
			</linearGradient>
			<circle style="fill:url(#SVGID_00000050637531560708683930000009249249265826178436_);" cx="75.456" cy="364.538" r="7.069"/>
			
				<linearGradient id="SVGID_00000057142726817276095550000009605147964630107822_" gradientUnits="userSpaceOnUse" x1="73.3041" y1="105.2448" x2="87.4422" y2="105.2448">
				<stop  offset="2.500000e-07" style="stop-color:#E7FFE7"/>
				<stop  offset="1" style="stop-color:#BBEEF6"/>
			</linearGradient>
			<path style="fill:url(#SVGID_00000057142726817276095550000009605147964630107822_);" d="M87.442,105.245
				c0,3.904-3.165,7.069-7.069,7.069c-3.904,0-7.069-3.165-7.069-7.069c0-3.904,3.165-7.069,7.069-7.069
				C84.277,98.176,87.442,101.341,87.442,105.245z"/>
			
				<linearGradient id="SVGID_00000049902759621818753390000000115354121302015627_" gradientUnits="userSpaceOnUse" x1="412.0374" y1="129.9462" x2="419.1065" y2="129.9462">
				<stop  offset="2.500000e-07" style="stop-color:#E7FFE7"/>
				<stop  offset="1" style="stop-color:#BBEEF6"/>
			</linearGradient>
			<path style="fill:url(#SVGID_00000049902759621818753390000000115354121302015627_);" d="M419.106,129.946
				c0,1.952-1.582,3.535-3.534,3.535c-1.952,0-3.535-1.582-3.535-3.535c0-1.952,1.582-3.535,3.535-3.535
				C417.524,126.412,419.106,127.994,419.106,129.946z"/>
			
				<linearGradient id="SVGID_00000049915796583782689980000010929855689406262174_" gradientUnits="userSpaceOnUse" x1="62.8125" y1="164.2805" x2="69.8815" y2="164.2805">
				<stop  offset="2.500000e-07" style="stop-color:#E7FFE7"/>
				<stop  offset="1" style="stop-color:#BBEEF6"/>
			</linearGradient>
			<path style="fill:url(#SVGID_00000049915796583782689980000010929855689406262174_);" d="M69.881,164.28
				c0,1.952-1.582,3.535-3.534,3.535c-1.952,0-3.535-1.583-3.535-3.535c0-1.952,1.582-3.535,3.535-3.535
				C68.299,160.746,69.881,162.328,69.881,164.28z"/>
			
				<linearGradient id="SVGID_00000134962348601133861020000007579332746105123485_" gradientUnits="userSpaceOnUse" x1="441.7988" y1="364.5382" x2="448.8679" y2="364.5382">
				<stop  offset="2.500000e-07" style="stop-color:#E7FFE7"/>
				<stop  offset="1" style="stop-color:#BBEEF6"/>
			</linearGradient>
			<path style="fill:url(#SVGID_00000134962348601133861020000007579332746105123485_);" d="M448.868,364.538
				c0,1.952-1.583,3.534-3.535,3.534c-1.952,0-3.534-1.582-3.534-3.534c0-1.952,1.582-3.535,3.534-3.535
				C447.285,361.004,448.868,362.586,448.868,364.538z"/>
			
				<linearGradient id="SVGID_00000176758728735325660280000012374518314596965513_" gradientUnits="userSpaceOnUse" x1="149.6755" y1="48.972" x2="156.7445" y2="48.972">
				<stop  offset="2.500000e-07" style="stop-color:#E7FFE7"/>
				<stop  offset="1" style="stop-color:#BBEEF6"/>
			</linearGradient>
			<path style="fill:url(#SVGID_00000176758728735325660280000012374518314596965513_);" d="M156.744,48.972
				c0,1.952-1.582,3.535-3.534,3.535c-1.952,0-3.535-1.583-3.535-3.535c0-1.952,1.582-3.535,3.535-3.535
				C155.162,45.438,156.744,47.02,156.744,48.972z"/>
		</g>
		<ellipse style="fill:#F1F0FE;" cx="247.305" cy="422.502" rx="184.493" ry="18.716"/>
		
			<linearGradient id="SVGID_00000126290205377600912090000012350143861227677351_" gradientUnits="userSpaceOnUse" x1="72.9722" y1="251.3056" x2="445.3333" y2="251.3056">
			<stop  offset="2.500000e-07" style="stop-color:#E7FFE7"/>
			<stop  offset="1" style="stop-color:#BBEEF6"/>
		</linearGradient>
		<path style="fill:url(#SVGID_00000126290205377600912090000012350143861227677351_);" d="M146.409,176.026
			c-25.434,18.016-48.458,40.969-62.373,69.736c-7.59,15.69-12.379,33.345-10.743,50.87c2.722,29.147,21.465,58.193,47.786,67.626
			c32.977,11.818,75.337,5.238,93.368-0.362c49.51-15.377,103.24-21.02,152.541-4.92c11.238,3.67,22.564,8.499,34.304,7.682
			c20.165-1.403,36.532-19.989,41.692-40.571c5.16-20.582,1.124-42.525-5.388-62.677c-10.284-31.825-26.884-61.586-49.558-85.244
			c-23.463-24.481-94.117-69.439-187.071-32.194C181.747,153.673,163.474,163.938,146.409,176.026z"/>
		<g>
			<g>
				
					<linearGradient id="SVGID_00000109005106538667066310000012968712116118314660_" gradientUnits="userSpaceOnUse" x1="70.6773" y1="288.637" x2="120.9105" y2="288.637">
					<stop  offset="0" style="stop-color:#B2DDEF"/>
					<stop  offset="1" style="stop-color:#29A7DF"/>
				</linearGradient>
				<path style="fill:url(#SVGID_00000109005106538667066310000012968712116118314660_);" d="M109.428,326.291
					c-0.054-7.068,0.16-14.404-2.696-20.87c-2.658-6.019-7.679-10.599-12.24-15.342c-9.604-9.985-17.811-21.7-21.569-35.034
					c-4.277-15.177-2.383-31.998,5.161-45.844c17.105,12.972,34.321,28.651,38.736,49.659c2.945,14.013-0.263,28.471-1.723,42.715
					c-2.255,21.997-0.27,44.42,5.814,65.679c-1.243,1.501-3.894,0.774-4.938-0.872c-2.291-3.613-3.273-12.722-4.293-17.067
					C109.913,341.793,109.486,333.994,109.428,326.291z"/>
				
					<linearGradient id="SVGID_00000078732829156120280140000001808491831863587998_" gradientUnits="userSpaceOnUse" x1="117.1796" y1="319.4514" x2="163.7993" y2="319.4514">
					<stop  offset="0" style="stop-color:#B2DDEF"/>
					<stop  offset="1" style="stop-color:#29A7DF"/>
				</linearGradient>
				<path style="fill:url(#SVGID_00000078732829156120280140000001808491831863587998_);" d="M117.441,343.751
					c-0.271-3.249-0.535-6.578,0.325-9.723c0.804-2.943,2.543-5.54,3.602-8.4c3.152-8.512-0.039-18.017,0.934-27.042
					c0.923-8.561,5.522-16.223,10.011-23.57c5.167-8.457,10.333-16.914,15.499-25.371c4.692,7.188,9.423,14.449,12.43,22.489
					c4.807,12.851,4.854,27.553-0.538,40.169c-5.393,12.616-16.33,22.897-29.474,26.831c-2.523,0.755-5.422,1.517-6.63,3.858
					c-0.739,1.433-0.644,3.135-0.531,4.743c0.939,13.301,3.616,27.812,2.651,41.041c-8.824,3.145-5.459-10.017-5.748-14.651
					C119.34,363.994,118.284,353.869,117.441,343.751z"/>
				
					<linearGradient id="SVGID_00000085249642196426552950000002260535977750822589_" gradientUnits="userSpaceOnUse" x1="58.9219" y1="338.823" x2="123.0083" y2="338.823">
					<stop  offset="0.0036" style="stop-color:#3AC3E3"/>
					<stop  offset="1" style="stop-color:#584E9F"/>
				</linearGradient>
				<path style="fill:url(#SVGID_00000085249642196426552950000002260535977750822589_);" d="M119.867,357.166
					c-1.215-5.388-3.052-11.003-7.304-14.528c-1.964-1.629-4.329-2.703-6.372-4.232c-10.099-7.554-9.728-23.535-18.772-32.324
					c-7.984-7.76-21.525-8.124-28.498-16.804c0.975,13.915,2.072,28.278,8.504,40.656c6.432,12.378,19.689,22.332,33.509,20.438
					c1.698-0.233,3.492-0.625,5.074,0.034c1.386,0.578,2.335,1.86,3.149,3.122c6.424,9.967,8.716,22.511,6.232,34.105
					c-0.239,1.116,6.323,0.896,7.303-0.21c0.794-0.897-0.152-6.009-0.201-7.129C122.149,372.466,121.597,364.838,119.867,357.166z"
					/>
			</g>
			
				<linearGradient id="SVGID_00000039820089182146319510000002053182706776184236_" gradientUnits="userSpaceOnUse" x1="92.706" y1="402.8158" x2="146.6757" y2="402.8158">
				<stop  offset="0" style="stop-color:#F38C96"/>
				<stop  offset="1" style="stop-color:#ED5391"/>
			</linearGradient>
			<polygon style="fill:url(#SVGID_00000039820089182146319510000002053182706776184236_);" points="141.828,419.104 
				97.554,419.104 92.706,386.527 146.676,386.527 			"/>
			<rect x="90.121" y="377.447" style="fill:#8C165A;" width="59.14" height="9.08"/>
		</g>
		<g>
			<polygon style="fill:#2E3092;" points="338.522,417.997 342.35,417.997 327.311,322.807 318.586,322.807 			"/>
			<polygon style="fill:#2E3092;" points="267.029,417.997 263.201,417.997 278.24,322.807 286.965,322.807 			"/>
			
				<linearGradient id="SVGID_00000075140079188118565220000016133858106854536085_" gradientUnits="userSpaceOnUse" x1="269.5363" y1="321.4716" x2="345.0128" y2="321.4716">
				<stop  offset="0" style="stop-color:#F38C96"/>
				<stop  offset="1" style="stop-color:#ED5391"/>
			</linearGradient>
			
				<ellipse style="fill:url(#SVGID_00000075140079188118565220000016133858106854536085_);" cx="307.275" cy="321.472" rx="37.738" ry="11.957"/>
		</g>
		<g>
			<g>
				<path style="fill:#2E3092;" d="M267.027,420.653c-7.152,4.338-17.186,7.52-25.521,8.223c-1.308,0.11-2.698,0.167-3.852-0.458
					c-1.154-0.625-1.9-2.184-1.209-3.299c2.521-1.881,8.08-3.853,11.643-6.544c2.357-1.78,4.621-3.861,5.786-6.575
					c0.809-1.885,1.059-4.014,2.156-5.748c3.51-5.549,10.998,0.002,10.998,0.002C265.18,409.946,271.897,417.699,267.027,420.653z"
					/>
				
					<linearGradient id="SVGID_00000083055054796301296380000013039076973323836856_" gradientUnits="userSpaceOnUse" x1="252.5287" y1="349.8199" x2="332.9705" y2="349.8199">
					<stop  offset="0.0036" style="stop-color:#3AC3E3"/>
					<stop  offset="1" style="stop-color:#584E9F"/>
				</linearGradient>
				<path style="fill:url(#SVGID_00000083055054796301296380000013039076973323836856_);" d="M332.94,302.13
					c-2.899,10.533-10.471,13.793-18.301,17.414c-9.966,4.611-18.157,9.842-24.635,14.443c-6.489,4.611-11.276,8.583-14.402,10.647
					c-0.072,0.052-0.144,0.103-0.206,0.144c-6.829,4.436-8.367,61.475-8.367,61.475c-3.188,0.918-11.028,3.002-12.483,0.01
					c-1.444-2.961-2.744-62.579-1.548-68.088c0.01-0.041,0.021-0.083,0.031-0.124c0.402-1.455,4.663-6.592,10.801-12.926
					c1.393-1.444,2.899-2.961,4.477-4.519c10.987-10.801,25.523-23.233,35.457-27.369c2.032-0.856,3.879-1.352,5.457-1.413
					C312.792,291.68,333.879,298.695,332.94,302.13z"/>
				
					<linearGradient id="SVGID_00000105390994726630652120000014413795003855929785_" gradientUnits="userSpaceOnUse" x1="226.6892" y1="319.4931" x2="303.7605" y2="319.4931">
					<stop  offset="0.0036" style="stop-color:#3AC3E3"/>
					<stop  offset="1" style="stop-color:#584E9F"/>
				</linearGradient>
				<path style="fill:url(#SVGID_00000105390994726630652120000014413795003855929785_);" d="M300.315,339.694
					c0,0-1.34,6.812-4.253,8.629c-1.052,0.654-9.659-0.964-20.459-3.689c-7.1-1.783-15.153-4.054-22.608-6.458
					c-12.506-4.032-23.361-8.452-25.333-11.675c-3.102-6.358,1.296-13.436,12.041-18.465c9.271-4.342,34.339-14.954,34.339-14.954
					c5.129-3.367,20.802-3.523,29.72,0.155c-9.925,4.132-24.469,16.571-35.457,27.371c-3.855,0.986-6.846,1.828-8.208,2.459
					c0.93,0.687,2.204,1.374,3.733,2.06c6.613,2.991,17.889,5.982,26.175,8.862C295.652,335.95,299.895,337.867,300.315,339.694z"/>
				<path style="fill:#2E3092;" d="M294.541,346.284c-0.283,2.313,0.526,2.346,0.331,4.668c-0.317,3.771-2.488,7.125-3.382,10.803
					c-0.319,1.312-2.864,9.072,2.122,6.345c6.433-3.52,20.421-19.63,18.154-25.034c-1.125-2.682-7.478-4.197-12.887-4.197
					C298.878,338.868,295.364,339.551,294.541,346.284z"/>
			</g>
			<g>
				<path style="fill:#FFC8B6;" d="M270.91,258.151c-2.045,1.871-4.943,2.432-7.694,2.773c-2.751,0.34-5.623,0.569-8.012,1.973
					c-2.39,1.405-4.108,4.423-3.042,6.982c0.942,2.261,3.566,3.269,5.968,3.747c7.195,1.435,14.624,0.275,21.869-0.887
					c1.741-0.279,3.555-0.587,4.981-1.624c1.966-1.429,2.791-3.93,3.37-6.291c1.435-5.852,2.073-11.898,1.89-17.92
					c-0.075-2.483-0.34-5.104-1.803-7.114c-1.844-2.532-14.158-3.017-14.396,0.585C273.613,246.855,273.661,255.636,270.91,258.151z
					"/>
				<path style="fill:#60C4F6;" d="M278.473,222.007c-2.373,4.834-4.11,12.993-4.431,18.368c3.455,0.723,8.159,2.596,11.671,2.95
					c3.512,0.354,7.377-0.345,9.791-2.921c2.081-2.221,2.722-5.408,3.036-8.436c0.514-4.955,2.184-19.691-5.294-20.69
					C287.729,210.54,280.524,217.828,278.473,222.007z"/>
				<path style="fill:#60C4F6;" d="M280.764,240.626c3.803,23.109,5.492,36.129-6.722,52.457
					c23.437-3.877,36.715,13.477,58.893,9.046c5.538-17.354,2.124-38.919,2.634-64.267c0.146-7.237-4.685-20.368-9.51-25.764
					c-6.656-7.444-25.078-4.61-33.648-1.632C278.874,215.172,278.731,228.271,280.764,240.626z"/>
				<path style="fill:#FFC8B6;" d="M345.011,255.791c0.182,10.51-16.999,12.305-21.123,12.297c-7.648-0.016-16.442,0.875-24-0.297
					c-2.584-0.401-14.547-2.483-16.062-4.615c-4.013-5.651,6.099-6.294,7.15-6.384c6.029-0.516,6.859,1.162,10.758,2.323
					c6.621,1.971,29.102-2.843,29.011-3.616c-0.525-4.46-3.666-9.212-5.011-13.496c-0.462-1.473,17.537-7.383,17.911-4.031
					C343.965,240.838,344.94,251.696,345.011,255.791z"/>
				<path style="fill:#60C4F6;" d="M343.645,237.971c0.251,1.695-17.228,6.816-17.911,4.031c-1.476-6.018-13.113-35.64-4.398-33.244
					C334.614,212.406,341.612,224.222,343.645,237.971z"/>
			</g>
			<g>
				<path style="fill:#F2B5A5;" d="M311.084,199.681c-0.16-1.114-3.257-7.697-8.658-7.695c-4.855,0.003-9.016,5.212-7.682,9.88
					c0,0,0.156,10.092,0.592,14.722c0.86,9.131,12.306,7.634,18.445-2.228C314.572,213.09,311.931,205.576,311.084,199.681z"/>
				<path style="fill:#FFC8B6;" d="M282.658,190.4c0.399,6.805,2.246,14.688,8.499,17.401c5.029,2.182,15.008-0.563,19.927-8.119
					c2.991-4.595,4.693-8.584,5.558-13.998c0.626-3.918-0.551-20.099-17.088-21.277C282.626,163.2,281.334,167.822,282.658,190.4z"
					/>
				<path style="fill:#2E3092;" d="M279.133,159.246c-2.937,1.315-5.12,4.895-3.757,7.81c1.445,3.09,5.566,3.562,8.976,3.603
					c4.542,0.054,9.084,0.109,13.625,0.163c2.417,0.029,5.257,0.284,6.521,2.345c1.859,3.031,0.657,8.384,3.558,10.439
					c0.351-1.434,2.398-3.249,3.738-2.631c3.6,1.662,3.785,8.238-0.969,9.277c0.006,2.689,0.251,6.74,0.257,9.429
					c7.044-2.413,10.225-16.113,10.225-21.024c0-12.663-6.52-14.04-6.52-14.04c0.27-2.703-4.747-7.595-13.793-8.519
					C294.562,155.442,285.229,156.516,279.133,159.246z"/>
			</g>
		</g>
		<g>
			<rect x="122.288" y="265.945" style="fill:#2E3092;" width="271.755" height="9.231"/>
			<polygon style="fill:#2E3092;" points="123.026,423.238 119.334,423.238 154.78,275.176 165.119,275.176 			"/>
			<polygon style="fill:#2E3092;" points="395.15,423.238 398.843,423.238 363.396,275.176 353.058,275.176 			"/>
		</g>
		<g>
			
				<linearGradient id="SVGID_00000068640643283315597180000017933217892489533867_" gradientUnits="userSpaceOnUse" x1="195.7135" y1="239.2618" x2="269.8145" y2="239.2618">
				<stop  offset="0" style="stop-color:#75C0DF"/>
				<stop  offset="0.292" style="stop-color:#759CDA"/>
				<stop  offset="0.5651" style="stop-color:#7681D6"/>
				<stop  offset="0.8092" style="stop-color:#7672D4"/>
				<stop  offset="1" style="stop-color:#766CD3"/>
			</linearGradient>
			<path style="fill:url(#SVGID_00000068640643283315597180000017933217892489533867_);" d="M260.765,218.924
				c-0.286-1.362-1.488-2.336-2.879-2.336h-60.801c-0.871,0-1.521,0.801-1.342,1.653l9.193,43.695h64.878L260.765,218.924z"/>
			
				<linearGradient id="SVGID_00000119089503669426141010000012682077161621719703_" gradientUnits="userSpaceOnUse" x1="204.9365" y1="263.9405" x2="298.8776" y2="263.9405">
				<stop  offset="0" style="stop-color:#75C0DF"/>
				<stop  offset="0.292" style="stop-color:#759CDA"/>
				<stop  offset="0.5651" style="stop-color:#7681D6"/>
				<stop  offset="0.8092" style="stop-color:#7672D4"/>
				<stop  offset="1" style="stop-color:#766CD3"/>
			</linearGradient>
			<path style="fill:url(#SVGID_00000119089503669426141010000012682077161621719703_);" d="M298.209,261.936h-93.273v4.009h93.941
				v-3.341C298.878,262.235,298.578,261.936,298.209,261.936z"/>
			<path style="fill:#FFFFFF;" d="M237.552,240.375c0,2.732-2.215,4.947-4.947,4.947c-2.732,0-4.947-2.215-4.947-4.947
				c0-2.732,2.215-4.947,4.947-4.947C235.337,235.428,237.552,237.643,237.552,240.375z"/>
		</g>
		<g>
			
				<linearGradient id="SVGID_00000126318431352893938530000012951332474508903570_" gradientUnits="userSpaceOnUse" x1="353.0578" y1="254.0113" x2="380.7266" y2="254.0113">
				<stop  offset="0" style="stop-color:#F38C96"/>
				<stop  offset="1" style="stop-color:#ED5391"/>
			</linearGradient>
			<path style="fill:url(#SVGID_00000126318431352893938530000012951332474508903570_);" d="M377.324,246.358
				c-1.628-0.928-3.392-0.901-5.106-0.454v-2.415c0-0.78-0.632-1.412-1.412-1.412H354.47c-0.78,0-1.412,0.632-1.412,1.412v21.044
				c0,0.78,0.632,1.412,1.412,1.412h16.335c0.78,0,1.412-0.632,1.412-1.412v-3.293c1.348,0.146,2.732,0.029,3.693-0.235
				c3.246-0.889,4.845-3.509,4.816-6.768C380.7,251.319,380.077,247.928,377.324,246.358z M377.326,254.617
				c-0.151,2.328-1.767,3.069-3.844,3.055c-0.413-0.003-0.837-0.073-1.265-0.16v-8.432c1.402-0.467,2.897-0.622,3.941,0.393
				C377.394,250.673,377.428,253.035,377.326,254.617z"/>
			<g>
				<path style="fill:#FFFFFF;" d="M356.611,234.864c0.265-0.502,0.704-0.887,1.057-1.331c1.246-1.565,1.309-3.963,0.145-5.59
					c1.065,0.399,1.942,1.273,2.344,2.337c0.402,1.064,0.323,2.299-0.212,3.303c-0.26,0.489-0.619,0.919-0.888,1.402
					c-0.703,1.261-0.711,2.821-0.099,4.118C357.186,238.959,355.759,236.479,356.611,234.864z"/>
				<path style="fill:#FFFFFF;" d="M361.445,234.864c0.265-0.502,0.704-0.887,1.058-1.331c1.246-1.565,1.308-3.963,0.145-5.59
					c1.065,0.399,1.942,1.273,2.344,2.337c0.402,1.064,0.323,2.299-0.212,3.303c-0.26,0.489-0.619,0.919-0.888,1.402
					c-0.703,1.261-0.711,2.821-0.099,4.118C362.021,238.959,360.593,236.479,361.445,234.864z"/>
				<path style="fill:#FFFFFF;" d="M366.279,234.864c0.265-0.502,0.704-0.887,1.057-1.331c1.246-1.565,1.309-3.963,0.145-5.59
					c1.065,0.399,1.942,1.273,2.344,2.337c0.402,1.064,0.323,2.299-0.212,3.303c-0.26,0.489-0.619,0.919-0.888,1.402
					c-0.703,1.261-0.711,2.821-0.099,4.118C366.855,238.959,365.427,236.479,366.279,234.864z"/>
			</g>
		</g>
		<g>
			<g>
				
					<linearGradient id="SVGID_00000118360488275907523870000013057110191169273525_" gradientUnits="userSpaceOnUse" x1="79.8187" y1="82.7872" x2="140.265" y2="82.7872" gradientTransform="matrix(0.8314 -0.5557 0.5557 0.8314 -27.7662 141.2722)">
					<stop  offset="0" style="stop-color:#B2DDEF"/>
					<stop  offset="1" style="stop-color:#29A7DF"/>
				</linearGradient>
				<path style="fill:url(#SVGID_00000118360488275907523870000013057110191169273525_);" d="M78.537,155.761
					c3.408,8.388,11.63,15.032,20.683,15.126c4.112,0.043,8.169-1.194,12.278-1.037c8.004,0.305,16.092,4.959,23.423,1.732
					c11.234-4.945,9.748-20.702,6.506-28.013c-11.744-26.481-32.398-26.255-39.656-25.032
					C82.966,121.706,70.885,136.929,78.537,155.761z"/>
				<path style="fill:#0085E6;" d="M114.461,129.802c2.032,3.039,1.215,7.15-1.825,9.182c-3.039,2.032-7.15,1.215-9.182-1.824
					c-2.032-3.039-1.215-7.15,1.825-9.182C108.318,125.946,112.429,126.762,114.461,129.802z"/>
				
					<linearGradient id="SVGID_00000133497251251374515250000004025606300953518240_" gradientUnits="userSpaceOnUse" x1="93.5539" y1="69.4986" x2="106.7931" y2="69.4986" gradientTransform="matrix(0.8314 -0.5557 0.5557 0.8314 -27.7662 141.2722)">
					<stop  offset="0" style="stop-color:#F38C96"/>
					<stop  offset="1" style="stop-color:#ED5391"/>
				</linearGradient>
				<path style="fill:url(#SVGID_00000133497251251374515250000004025606300953518240_);" d="M99.642,139.708
					c2.032,3.039,1.215,7.15-1.824,9.182c-3.039,2.032-7.15,1.215-9.182-1.825s-1.215-7.15,1.824-9.182
					C93.499,135.852,97.61,136.669,99.642,139.708z"/>
				
					<linearGradient id="SVGID_00000036233897229487872680000012077565566880967319_" gradientUnits="userSpaceOnUse" x1="96.803" y1="87.6209" x2="110.0423" y2="87.6209" gradientTransform="matrix(0.8314 -0.5557 0.5557 0.8314 -27.7662 141.2722)">
					<stop  offset="0" style="stop-color:#75C0DF"/>
					<stop  offset="0.292" style="stop-color:#759CDA"/>
					<stop  offset="0.5651" style="stop-color:#7681D6"/>
					<stop  offset="0.8092" style="stop-color:#7672D4"/>
					<stop  offset="1" style="stop-color:#766CD3"/>
				</linearGradient>
				<path style="fill:url(#SVGID_00000036233897229487872680000012077565566880967319_);" d="M112.414,152.969
					c2.032,3.039,1.215,7.15-1.825,9.182s-7.15,1.215-9.182-1.824c-2.032-3.039-1.215-7.15,1.824-9.182
					C106.271,149.113,110.382,149.93,112.414,152.969z"/>
				<path style="fill:#FFFFFF;" d="M129.134,143.822c2.032,3.039,1.215,7.15-1.824,9.182s-7.15,1.215-9.182-1.825
					c-2.032-3.039-1.215-7.15,1.825-9.182C122.991,139.966,127.102,140.783,129.134,143.822z"/>
			</g>
			<g>
				
					<linearGradient id="SVGID_00000134971236251243971000000002847796826311176589_" gradientUnits="userSpaceOnUse" x1="167.0862" y1="168.3078" x2="210.5542" y2="168.3078" gradientTransform="matrix(0.8054 -0.5928 0.5928 0.8054 5.6857 120.7392)">
					<stop  offset="0" style="stop-color:#F38C96"/>
					<stop  offset="1" style="stop-color:#ED5391"/>
				</linearGradient>
				<path style="fill:url(#SVGID_00000134971236251243971000000002847796826311176589_);" d="M253.049,173.86L253.049,173.86
					c-1.167-0.178-1.979-1.255-1.828-2.426l6.888-54.482l7.026,1.069l-9.619,54.066C255.311,173.25,254.216,174.038,253.049,173.86z
					"/>
				
					<linearGradient id="SVGID_00000155863924407500486990000014953648688325962174_" gradientUnits="userSpaceOnUse" x1="205.529" y1="143.5265" x2="221.6757" y2="143.5265" gradientTransform="matrix(0.8054 -0.5928 0.5928 0.8054 5.6857 120.7392)">
					<stop  offset="0" style="stop-color:#B2DDEF"/>
					<stop  offset="1" style="stop-color:#29A7DF"/>
				</linearGradient>
				<polygon style="fill:url(#SVGID_00000155863924407500486990000014953648688325962174_);" points="267.499,102.471 
					260.473,101.403 258.108,116.953 265.134,118.021 				"/>
				
					<linearGradient id="SVGID_00000087408321846581383480000001184673229116892319_" gradientUnits="userSpaceOnUse" x1="216.6504" y1="131.8083" x2="233.9915" y2="131.8083" gradientTransform="matrix(0.8054 -0.5928 0.5928 0.8054 5.6857 120.7392)">
					<stop  offset="0" style="stop-color:#75C0DF"/>
					<stop  offset="0.292" style="stop-color:#759CDA"/>
					<stop  offset="0.5651" style="stop-color:#7681D6"/>
					<stop  offset="0.8092" style="stop-color:#7672D4"/>
					<stop  offset="1" style="stop-color:#766CD3"/>
				</linearGradient>
				<path style="fill:url(#SVGID_00000087408321846581383480000001184673229116892319_);" d="M260.473,101.403
					c0,0-3.524-5.357,1.648-10.838c5.172-5.481,5.018-9.361,5.018-9.361s8.963,11.969,0.361,21.267L260.473,101.403z"/>
			</g>
			<g>
				
					<rect x="237.764" y="184.582" transform="matrix(0.6846 -0.7289 0.7289 0.6846 -62.5249 234.5838)" style="fill:#1E2278;" width="4.11" height="9.926"/>
				
					<linearGradient id="SVGID_00000084524860026649047240000006498756891031575702_" gradientUnits="userSpaceOnUse" x1="218.4627" y1="177.2023" x2="248.457" y2="177.2023" gradientTransform="matrix(0.9995 -0.0313 0.0313 0.9995 -10.0017 9.4711)">
					<stop  offset="0" style="stop-color:#75C0DF"/>
					<stop  offset="0.292" style="stop-color:#759CDA"/>
					<stop  offset="0.5651" style="stop-color:#7681D6"/>
					<stop  offset="0.8092" style="stop-color:#7672D4"/>
					<stop  offset="1" style="stop-color:#766CD3"/>
				</linearGradient>
				<circle style="fill:url(#SVGID_00000084524860026649047240000006498756891031575702_);" cx="228.888" cy="179.277" r="14.997"/>
				
					<linearGradient id="SVGID_00000153681342133368113920000009855007049532892595_" gradientUnits="userSpaceOnUse" x1="222.4732" y1="177.2023" x2="244.4465" y2="177.2023" gradientTransform="matrix(0.9995 -0.0313 0.0313 0.9995 -10.0017 9.4711)">
					<stop  offset="0" style="stop-color:#B2DDEF"/>
					<stop  offset="1" style="stop-color:#29A7DF"/>
				</linearGradient>
				<path style="fill:url(#SVGID_00000153681342133368113920000009855007049532892595_);" d="M236.409,171.269
					c4.423,4.154,4.641,11.107,0.486,15.53c-4.154,4.423-11.107,4.641-15.53,0.486c-4.423-4.154-4.641-11.107-0.486-15.53
					C225.034,167.333,231.987,167.115,236.409,171.269z"/>
				
					<linearGradient id="SVGID_00000009555442212676966850000009415090936008981935_" gradientUnits="userSpaceOnUse" x1="245.263" y1="196.7747" x2="260.8495" y2="196.7747" gradientTransform="matrix(0.9995 -0.0313 0.0313 0.9995 -10.0017 9.4711)">
					<stop  offset="0" style="stop-color:#F38C96"/>
					<stop  offset="1" style="stop-color:#ED5391"/>
				</linearGradient>
				<path style="fill:url(#SVGID_00000009555442212676966850000009415090936008981935_);" d="M245.45,190.799l-4.027,4.287
					c-0.299,0.318-0.283,0.818,0.035,1.117l9.109,8.556c1.473,1.383,3.828,1.52,5.286,0.122c1.555-1.491,1.526-3.96-0.024-5.416
					l-9.263-8.7C246.249,190.465,245.749,190.481,245.45,190.799z"/>
				<g>
					<path style="fill:#FFFFFF;" d="M223.663,175.125c3.164,3.027,6.349,6.023,9.653,8.896c0.242,0.21,0.566-0.134,0.34-0.362
						c-3.075-3.118-6.264-6.109-9.483-9.077C223.821,174.255,223.316,174.792,223.663,175.125L223.663,175.125z"/>
				</g>
				<g>
					<path style="fill:#FFFFFF;" d="M228.762,172.674c2.271,2.136,4.487,4.371,6.886,6.364c0.198,0.165,0.45-0.104,0.273-0.291
						c-2.139-2.269-4.509-4.341-6.783-6.474C228.88,172.03,228.503,172.431,228.762,172.674L228.762,172.674z"/>
				</g>
				<g>
					<path style="fill:#FFFFFF;" d="M222.421,181.833c1.532,1.465,3.008,3.108,4.689,4.398c0.332,0.255,0.719-0.157,0.444-0.473
						c-1.394-1.598-3.125-2.968-4.683-4.405C222.56,181.067,222.115,181.54,222.421,181.833L222.421,181.833z"/>
				</g>
			</g>
			<g>
				<path style="fill:#2E3092;" d="M200.643,141.666l4.116-8.393l-2.725-1.336c0.269-1.424,0.357-2.851,0.272-4.252l2.874-0.991
					l-3.024-8.844l-2.884,0.986c-0.786-1.169-1.729-2.244-2.809-3.19l1.341-2.735l-8.393-4.116l-1.341,2.735
					c-1.409-0.274-2.836-0.362-4.242-0.267l-0.986-2.884l-8.844,3.024l0.976,2.88c-1.16,0.791-2.234,1.734-3.195,2.818l-2.735-1.341
					l-4.116,8.393l2.735,1.341c-0.269,1.423-0.357,2.851-0.272,4.252l-2.87,0.981l3.024,8.844l2.87-0.981
					c0.791,1.16,1.734,2.234,2.818,3.195l-1.336,2.725l8.393,4.116l1.336-2.725c1.423,0.269,2.85,0.357,4.251,0.272l0.981,2.87
					l8.844-3.024l-0.981-2.87c1.16-0.791,2.234-1.734,3.195-2.818L200.643,141.666z M181.943,134.64
					c-3.268-1.603-4.622-5.561-3.019-8.83c1.607-3.278,5.561-4.622,8.83-3.019c3.268,1.603,4.627,5.551,3.019,8.83
					C189.17,134.889,185.212,136.242,181.943,134.64z"/>
				
					<linearGradient id="SVGID_00000006709761427030692110000010054978747566808467_" gradientUnits="userSpaceOnUse" x1="220.4045" y1="174.7015" x2="241.58" y2="174.7015" gradientTransform="matrix(0.8979 0.4403 -0.4403 0.8979 75.4846 -105.866)">
					<stop  offset="0" style="stop-color:#F38C96"/>
					<stop  offset="1" style="stop-color:#ED5391"/>
				</linearGradient>
				<path style="fill:url(#SVGID_00000006709761427030692110000010054978747566808467_);" d="M214.381,159.603l2.191-4.468
					l-1.451-0.711c0.143-0.758,0.19-1.518,0.145-2.263l1.53-0.528l-1.61-4.708l-1.535,0.525c-0.419-0.623-0.921-1.195-1.495-1.698
					l0.714-1.456l-4.468-2.191l-0.714,1.456c-0.75-0.146-1.51-0.193-2.258-0.142l-0.525-1.536l-4.708,1.61l0.52,1.533
					c-0.617,0.421-1.189,0.923-1.701,1.5l-1.456-0.714l-2.191,4.468l1.456,0.714c-0.143,0.758-0.19,1.518-0.145,2.263l-1.528,0.522
					l1.61,4.708l1.528-0.522c0.421,0.617,0.923,1.189,1.5,1.701l-0.712,1.451l4.468,2.191l0.712-1.451
					c0.758,0.143,1.517,0.19,2.263,0.145l0.522,1.528l4.708-1.61l-0.522-1.528c0.617-0.421,1.189-0.923,1.701-1.5L214.381,159.603z
					 M203.591,157.552c-2.676-1.312-3.782-4.548-2.467-7.229c1.312-2.676,4.548-3.782,7.223-2.47
					c2.681,1.315,3.787,4.55,2.475,7.226C209.507,157.761,206.272,158.867,203.591,157.552z"/>
			</g>
			<g>
				
					<rect x="84.723" y="46.975" transform="matrix(0.8349 -0.5505 0.5505 0.8349 -17.4806 70.6189)" style="fill:#FFFFFF;" width="48.468" height="34.937"/>
				
					<rect x="88.409" y="50.332" transform="matrix(0.8349 -0.5505 0.5505 0.8349 -17.4805 70.619)" style="fill:#8BDEFC;" width="41.096" height="28.223"/>
				
					<linearGradient id="SVGID_00000170256708504983581970000016851444317904694685_" gradientUnits="userSpaceOnUse" x1="174.5851" y1="-52.8526" x2="215.6794" y2="-52.8526" gradientTransform="matrix(0.8349 -0.5505 0.5505 0.8349 -22.5196 219.5449)">
					<stop  offset="0" style="stop-color:#75C0DF"/>
					<stop  offset="0.292" style="stop-color:#759CDA"/>
					<stop  offset="0.5651" style="stop-color:#7681D6"/>
					<stop  offset="0.8092" style="stop-color:#7672D4"/>
					<stop  offset="1" style="stop-color:#766CD3"/>
				</linearGradient>
				<polygon style="fill:url(#SVGID_00000170256708504983581970000016851444317904694685_);" points="92.525,76.85 99.033,64.283 
					111.245,64.507 118.452,55.618 128.565,56.853 133.88,64.914 99.57,87.536 				"/>
				
					<linearGradient id="SVGID_00000029038845373538888030000010783298327553908614_" gradientUnits="userSpaceOnUse" x1="195.1324" y1="-64.2981" x2="202.8883" y2="-64.2981" gradientTransform="matrix(0.8349 -0.5505 0.5505 0.8349 -22.5196 219.5449)">
					<stop  offset="0" style="stop-color:#F38C96"/>
					<stop  offset="1" style="stop-color:#ED5391"/>
				</linearGradient>
				<path style="fill:url(#SVGID_00000029038845373538888030000010783298327553908614_);" d="M111.476,54.172
					c1.179,1.788,0.685,4.193-1.103,5.372c-1.788,1.179-4.194,0.685-5.373-1.103c-1.179-1.788-0.685-4.193,1.103-5.372
					C107.891,51.89,110.297,52.384,111.476,54.172z"/>
			</g>
			<g>
				
					<rect x="159.053" y="171.175" transform="matrix(0.6558 -0.755 0.755 0.6558 -82.0246 199.1929)" style="fill:#FFFFFF;" width="36.739" height="36.74"/>
				
					<linearGradient id="SVGID_00000140720810283407269080000007177606304494009781_" gradientUnits="userSpaceOnUse" x1="143.6514" y1="169.4931" x2="180.3892" y2="169.4931" gradientTransform="matrix(0.6558 -0.755 0.755 0.6558 -66.0751 192.6575)">
					<stop  offset="0" style="stop-color:#F38C96"/>
					<stop  offset="1" style="stop-color:#ED5391"/>
				</linearGradient>
				<polygon style="fill:url(#SVGID_00000140720810283407269080000007177606304494009781_);" points="184.782,171.605 
					160.689,199.342 151.508,191.367 175.601,163.63 				"/>
				<g>
					<path style="fill:#2E3092;" d="M179.552,195.313c0.995-2.453,0.454-5.285-2.647-6.269c-2.93-0.929-6.764,3.736-6.927,5.967
						l1.756,0.95c0.099-1.212,2.298-4.84,4.171-4.043c2.967,1.262,1.345,4.483,0.249,5.991l2.049,1.788
						c1.466-1.848,4.069-4.608,6.219-2.197c1.157,1.298-0.818,4.965-4.345,6.071l2.176,1.801c6.2-3.935,6.487-8.327,3.806-10.657
						C183.884,192.826,181.879,193.365,179.552,195.313z"/>
					<path style="fill:#2E3092;" d="M181.079,181.161l-1.52,1.752c-0.007,0.049-0.471,3.372-0.471,3.372l1.962,0.695
						c0,0,0.274-1.638,0.287-2.109c1.673,1.522,7.02,6.375,10.985,9.762l1.605-1.921
						C190.385,189.527,183.242,183.146,181.079,181.161z"/>
				</g>
				<g>
					<path style="fill:#60C4F6;" d="M153.703,180.304c-0.469,0.54-0.411,1.358,0.128,1.826l5.846,5.078
						c0.54,0.469,1.357,0.411,1.826-0.128c0.469-0.54,0.411-1.357-0.128-1.826l-5.846-5.078
						C154.989,179.707,154.172,179.764,153.703,180.304z"/>
					<path style="fill:#60C4F6;" d="M159.329,173.827c-0.469,0.54-0.411,1.358,0.128,1.826l5.846,5.078
						c0.54,0.469,1.358,0.411,1.826-0.128c0.469-0.54,0.411-1.357-0.128-1.826l-5.846-5.078
						C160.615,173.23,159.797,173.288,159.329,173.827z"/>
					<path style="fill:#60C4F6;" d="M164.954,167.351c-0.469,0.54-0.411,1.357,0.128,1.826l5.846,5.078
						c0.54,0.469,1.357,0.411,1.826-0.128c0.469-0.54,0.411-1.357-0.128-1.826l-5.846-5.078
						C166.241,166.754,165.423,166.811,164.954,167.351z"/>
				</g>
			</g>
			
				<linearGradient id="SVGID_00000010281258434738664910000015877115052396754581_" gradientUnits="userSpaceOnUse" x1="106.9949" y1="177.8963" x2="147.6172" y2="177.8963" gradientTransform="matrix(0.914 0.4056 -0.4056 0.914 154.2237 -144.9507)">
				<stop  offset="0" style="stop-color:#75C0DF"/>
				<stop  offset="0.292" style="stop-color:#759CDA"/>
				<stop  offset="0.5651" style="stop-color:#7681D6"/>
				<stop  offset="0.8092" style="stop-color:#7672D4"/>
				<stop  offset="1" style="stop-color:#766CD3"/>
			</linearGradient>
			<path style="fill:url(#SVGID_00000010281258434738664910000015877115052396754581_);" d="M206.665,50.717
				c-10.237-4.543-22.26,0.09-26.802,10.326c-4.542,10.236,0.09,22.26,10.326,26.802c10.237,4.543,22.26-0.09,26.803-10.326
				C221.533,67.284,216.902,55.26,206.665,50.717z M191.327,85.281c-1.39-0.617-2.105-3.649-1.464-8.159l8.495,3.77
				C195.445,84.393,192.718,85.897,191.327,85.281z M190.408,74.293c0.449-1.883,1.107-3.945,2.008-6.143l10.882,4.829
				c-1.025,2.143-2.112,4.014-3.207,5.61L190.408,74.293z M181.924,63.494l7.926,3.517c-0.826,2.019-1.514,4.097-2.027,6.134
				l-6.859-3.044C180.856,67.906,181.16,65.668,181.924,63.494z M205.526,53.283c1.39,0.617,2.105,3.649,1.463,8.158l-8.495-3.77
				C201.408,54.171,204.136,52.666,205.526,53.283z M206.444,64.271c-0.449,1.883-1.107,3.945-2.008,6.143l-10.882-4.829
				c1.025-2.143,2.112-4.014,3.208-5.61L206.444,64.271z M190.988,64.445l-7.926-3.517c1.1-2.025,2.555-3.752,4.255-5.146
				l6.859,3.044C193.01,60.574,191.931,62.478,190.988,64.445z M205.864,74.118l7.927,3.518c-1.1,2.025-2.555,3.752-4.255,5.146
				l-6.861-3.044C203.842,77.989,204.921,76.085,205.864,74.118z M207.003,71.552c0.826-2.019,1.514-4.097,2.027-6.134l6.861,3.044
				c0.107,2.195-0.197,4.433-0.961,6.607L207.003,71.552z M215.416,65.181l-5.784-2.567c0.411-2.398,0.52-4.643,0.264-6.551
				C212.673,58.475,214.569,61.687,215.416,65.181z M200.532,51.908c-1.587,1.09-3.178,2.677-4.681,4.591l-5.783-2.566
				C193.227,52.217,196.881,51.467,200.532,51.908z M181.437,73.383l5.783,2.566c-0.411,2.398-0.52,4.643-0.264,6.551
				C184.18,80.088,182.285,76.877,181.437,73.383z M196.32,86.656c1.587-1.09,3.178-2.677,4.681-4.591l5.784,2.567
				C203.626,86.347,199.972,87.096,196.32,86.656z"/>
			<g>
				<g>
					
						<linearGradient id="SVGID_00000072995688782793110200000004251967735174962345_" gradientUnits="userSpaceOnUse" x1="238.9151" y1="51.5436" x2="267.8142" y2="51.5436" gradientTransform="matrix(0.6789 -0.7342 0.7342 0.6789 21.5764 237.4877)">
						<stop  offset="0" style="stop-color:#F38C96"/>
						<stop  offset="1" style="stop-color:#ED5391"/>
					</linearGradient>
					<path style="fill:url(#SVGID_00000072995688782793110200000004251967735174962345_);" d="M232.617,105.994l-1.291,0.051
						l-0.302-7.716c-0.137-3.489,2.591-6.439,6.079-6.575l6.005-0.235c2.759-0.108,4.916-2.441,4.808-5.2
						c-0.108-2.759-2.441-4.916-5.2-4.808l-5.279,0.207c-3.889,0.152-7.177-2.888-7.329-6.778l-0.331-8.442l1.291-0.051l0.331,8.442
						c0.124,3.177,2.811,5.661,5.988,5.537l5.279-0.207c3.472-0.136,6.406,2.578,6.542,6.049c0.136,3.471-2.577,6.406-6.049,6.542
						l-6.005,0.235c-2.777,0.109-4.947,2.456-4.838,5.233L232.617,105.994z"/>
				</g>
				<g>
					
						<linearGradient id="SVGID_00000043418121016097742110000006082679736134347189_" gradientUnits="userSpaceOnUse" x1="211.2994" y1="76.6233" x2="244.6517" y2="76.6233" gradientTransform="matrix(0.6789 -0.7342 0.7342 0.6789 21.5764 237.4877)">
						<stop  offset="0" style="stop-color:#75C0DF"/>
						<stop  offset="0.292" style="stop-color:#759CDA"/>
						<stop  offset="0.5651" style="stop-color:#7681D6"/>
						<stop  offset="0.8092" style="stop-color:#7672D4"/>
						<stop  offset="1" style="stop-color:#766CD3"/>
					</linearGradient>
					<path style="fill:url(#SVGID_00000043418121016097742110000006082679736134347189_);" d="M243.271,113.673l0.629,16.051
						c0.238,6.069-4.477,11.181-10.546,11.419c-6.069,0.238-11.182-4.49-11.42-10.559l-0.629-16.051
						c-0.229-5.85,4.154-10.82,9.914-11.381c0.219-0.022,0.426-0.03,0.645-0.038c0.219-0.009,0.426-0.017,0.646-0.012
						C238.296,103.211,243.042,107.824,243.271,113.673z"/>
				</g>
				<g>
					<path style="fill:#60C4F6;" d="M243.415,117.341l0.051,1.291l-21.966,0.86l-0.051-1.291l10.344-0.405l-0.574-14.644
						c0.219-0.022,0.426-0.03,0.645-0.038c0.219-0.009,0.426-0.017,0.646-0.012l0.574,14.644L243.415,117.341z"/>
				</g>
				<g>
					<path style="fill:#FFFFFF;" d="M232.191,111.527c-1.414,0.055-2.515,1.246-2.46,2.66l0.339,8.66
						c0.055,1.414,1.247,2.515,2.661,2.46c1.414-0.055,2.515-1.247,2.46-2.661l-0.339-8.659
						C234.796,112.573,233.605,111.472,232.191,111.527z"/>
				</g>
			</g>
			<g>
				
					<linearGradient id="SVGID_00000126284970039801851760000010729881196193495997_" gradientUnits="userSpaceOnUse" x1="127.3565" y1="94.3882" x2="165.5648" y2="94.3882">
					<stop  offset="0" style="stop-color:#F38C96"/>
					<stop  offset="1" style="stop-color:#ED5391"/>
				</linearGradient>
				<path style="fill:url(#SVGID_00000126284970039801851760000010729881196193495997_);" d="M165.565,94.383
					c0,5.278-2.136,10.053-5.601,13.518c-3.455,3.455-8.23,5.591-13.508,5.591c-10.546,0-19.099-8.553-19.099-19.109
					c0-10.546,8.553-19.099,19.099-19.099c5.278,0,10.053,2.136,13.508,5.591C163.429,84.34,165.565,89.105,165.565,94.383z"/>
				
					<linearGradient id="SVGID_00000154423263160357749900000012253788721552848787_" gradientUnits="userSpaceOnUse" x1="146.4559" y1="84.8337" x2="159.9641" y2="84.8337">
					<stop  offset="0" style="stop-color:#B2DDEF"/>
					<stop  offset="1" style="stop-color:#29A7DF"/>
				</linearGradient>
				<path style="fill:url(#SVGID_00000154423263160357749900000012253788721552848787_);" d="M159.964,80.875l-13.508,13.508V75.284
					C151.734,75.284,156.509,77.42,159.964,80.875z"/>
				
					<linearGradient id="SVGID_00000065045518019577837450000009474875073615262347_" gradientUnits="userSpaceOnUse" x1="146.4559" y1="94.3882" x2="165.5648" y2="94.3882">
					<stop  offset="0" style="stop-color:#75C0DF"/>
					<stop  offset="0.292" style="stop-color:#759CDA"/>
					<stop  offset="0.5651" style="stop-color:#7681D6"/>
					<stop  offset="0.8092" style="stop-color:#7672D4"/>
					<stop  offset="1" style="stop-color:#766CD3"/>
				</linearGradient>
				<path style="fill:url(#SVGID_00000065045518019577837450000009474875073615262347_);" d="M165.565,94.383
					c0,5.278-2.136,10.053-5.601,13.518l-13.508-13.518l13.508-13.508C163.429,84.34,165.565,89.105,165.565,94.383z"/>
				<path style="fill:#2E3092;" d="M159.964,107.901c-3.455,3.455-8.23,5.591-13.508,5.591c-10.546,0-19.099-8.553-19.099-19.109
					h19.099L159.964,107.901z"/>
			</g>
		</g>
	</g>
</g>
<g id="DESIGNED_BY_FREEPIK">
	<g>
		<g id="XMLID_29_">
			<g id="XMLID_48_">
				<path id="XMLID_56_" style="fill:#122129;" d="M260.104,466.161c-0.432,0.443-0.803,0.931-1.108,1.453l-0.465-0.241
					c-0.067-0.298-0.349-0.503-0.659-0.466c-0.331,0.039-0.568,0.339-0.529,0.67c0.039,0.331,0.339,0.568,0.67,0.529
					c0.065-0.008,0.127-0.026,0.183-0.052l0.452,0.234c-0.251,0.554-0.433,1.139-0.539,1.744l0.747,0.132
					c0.23-1.306,0.85-2.507,1.792-3.473L260.104,466.161z"/>
				<path id="XMLID_55_" style="fill:#122129;" d="M265.592,463.859c-0.171,0-0.341,0.006-0.51,0.017l-0.074-0.626
					c0.188-0.149,0.296-0.389,0.266-0.645c-0.046-0.393-0.402-0.674-0.795-0.628c-0.393,0.046-0.674,0.402-0.628,0.795
					c0.03,0.254,0.189,0.461,0.405,0.564l0.073,0.624c-0.714,0.116-1.403,0.332-2.06,0.646l0.327,0.684
					c0.934-0.447,1.942-0.673,2.995-0.673c0.496,0,0.993,0.053,1.475,0.158l0.161-0.741
					C266.692,463.918,266.142,463.859,265.592,463.859z"/>
				<path id="XMLID_54_" style="fill:#122129;" d="M272.194,466.406c0.331-0.04,0.566-0.341,0.526-0.672
					c-0.04-0.331-0.341-0.566-0.672-0.526c-0.309,0.038-0.535,0.304-0.53,0.609l-0.416,0.363c-0.418-0.43-0.89-0.813-1.408-1.139
					l-0.404,0.641c1.134,0.715,2.021,1.726,2.563,2.925l0.691-0.313c-0.251-0.554-0.568-1.072-0.942-1.545l0.402-0.351
					C272.065,466.411,272.129,466.414,272.194,466.406z"/>
				<path id="XMLID_53_" style="fill:#122129;" d="M265.044,474.068c-0.386,0.023-0.775,0.035-1.157,0.035
					c-0.88,0-1.733-0.061-2.478-0.179c-0.39-0.062-0.846-0.155-1.27-0.292c1.046,1.861,3.069,3.125,5.388,3.125
					c2.855,0,5.262-1.916,5.95-4.504c-0.682,0.449-1.505,0.825-2.459,1.123C267.839,473.743,266.464,473.982,265.044,474.068z"/>
				<path id="XMLID_49_" style="fill:#122129;" d="M265.592,465.375c-3.352,0-6.08,2.666-6.08,5.943
					c0,0.426,0.046,0.849,0.137,1.261c0.673,0.483,2.706,0.89,5.348,0.731c2.879-0.173,5.297-0.957,6.672-2.159
					c-0.005-0.195-0.021-0.39-0.045-0.582C271.244,467.609,268.65,465.375,265.592,465.375z M263.432,471.89
					c-1.02,0-1.85-0.83-1.85-1.85c0-1.02,0.83-1.85,1.85-1.85c1.02,0,1.85,0.83,1.85,1.85
					C265.282,471.06,264.452,471.89,263.432,471.89z M268.17,470.982c-0.75,0-1.36-0.61-1.36-1.36s0.61-1.361,1.36-1.361
					c0.75,0,1.361,0.61,1.361,1.361S268.92,470.982,268.17,470.982z"/>
			</g>
			<path id="XMLID_46_" style="fill:#122129;" d="M281.595,467.242c-0.295-0.116-0.805-0.309-1.382-0.237
				c-0.551,0.069-0.844,0.341-0.844,1.007v0.866h2.228v1.717h-2.228v5.455h-1.932v-5.455h-1.34v-1.717h1.34v-0.888
				c0-1.68,0.896-2.783,2.568-2.783c0.643,0,1.157,0.122,1.59,0.308L281.595,467.242z"/>
			<path id="XMLID_44_" style="fill:#122129;" d="M286.298,470.574c-0.177-0.03-0.358-0.046-0.526-0.046
				c-0.896,0-1.51,0.548-1.51,1.614v3.908h-1.932v-7.172h1.873v0.785c0.451-0.673,1.14-0.977,2.021-0.977
				c0.414,0,0.848,0.128,1.094,0.337L286.298,470.574z"/>
			<path id="XMLID_41_" style="fill:#122129;" d="M293.965,472.453c0,0.222-0.015,0.489-0.037,0.651h-5.085
				c0.207,1.036,0.933,1.488,1.843,1.488c0.622,0,1.295-0.252,1.813-0.688l1.132,1.243c-0.814,0.748-1.85,1.088-3.057,1.088
				c-2.198,0-3.723-1.495-3.723-3.753c0-2.258,1.48-3.797,3.627-3.797C292.544,468.685,293.958,470.217,293.965,472.453z
				 M288.851,471.786h3.175c-0.177-0.918-0.733-1.436-1.562-1.436C289.554,470.351,289.021,470.898,288.851,471.786z"/>
			<path id="XMLID_38_" style="fill:#122129;" d="M301.618,472.453c0,0.222-0.015,0.489-0.037,0.651h-5.085
				c0.207,1.036,0.933,1.488,1.843,1.488c0.622,0,1.295-0.252,1.813-0.688l1.132,1.243c-0.814,0.748-1.85,1.088-3.057,1.088
				c-2.198,0-3.723-1.495-3.723-3.753c0-2.258,1.48-3.797,3.627-3.797C300.197,468.685,301.611,470.217,301.618,472.453z
				 M296.504,471.786h3.175c-0.178-0.918-0.733-1.436-1.562-1.436C297.207,470.351,296.674,470.898,296.504,471.786z"/>
			<path id="XMLID_35_" style="fill:#122129;" d="M309.964,472.46c0,2.154-1.495,3.775-3.471,3.775
				c-0.962,0-1.643-0.378-2.109-0.933v3.708h-1.924v-10.133h1.887v0.792c0.466-0.585,1.155-0.984,2.139-0.984
				C308.469,468.685,309.964,470.306,309.964,472.46z M304.287,472.46c0,1.132,0.747,1.976,1.843,1.976
				c1.14,0,1.85-0.881,1.85-1.976c0-1.095-0.71-1.976-1.85-1.976C305.035,470.484,304.287,471.328,304.287,472.46z"/>
			<path id="XMLID_32_" style="fill:#122129;" d="M313.068,466.531c0,0.696-0.54,1.229-1.236,1.229
				c-0.696,0-1.229-0.533-1.229-1.229c0-0.696,0.533-1.243,1.229-1.243C312.527,465.288,313.068,465.836,313.068,466.531z
				 M312.809,476.05h-1.932v-7.172h1.932V476.05z"/>
			<path id="XMLID_30_" style="fill:#122129;" d="M316.032,471.431l2.701-2.554h2.368l-3.479,3.375l3.501,3.797h-2.376l-2.716-2.901
				v2.901H314.1v-10.658h1.932V471.431z"/>
		</g>
		<g>
			<path style="fill:#122129;" d="M184.412,475.985v-1.055c-0.527,0.718-1.391,1.23-2.387,1.23c-1.846,0-3.149-1.406-3.149-3.706
				c0-2.256,1.289-3.721,3.149-3.721c0.952,0,1.816,0.469,2.387,1.245v-3.765h1.099v9.77H184.412z M184.412,474.066v-3.208
				c-0.395-0.615-1.245-1.143-2.124-1.143c-1.421,0-2.27,1.172-2.27,2.739c0,1.567,0.85,2.724,2.27,2.724
				C183.168,475.179,184.017,474.681,184.412,474.066z"/>
			<path style="fill:#122129;" d="M186.932,472.44c0-2.051,1.465-3.706,3.486-3.706c2.139,0,3.398,1.67,3.398,3.794v0.279h-5.727
				c0.088,1.333,1.025,2.446,2.549,2.446c0.805,0,1.626-0.322,2.182-0.894l0.527,0.718c-0.703,0.703-1.655,1.084-2.812,1.084
				C188.44,476.16,186.932,474.652,186.932,472.44z M190.403,469.642c-1.509,0-2.256,1.274-2.314,2.358h4.643
				C192.718,470.946,192.015,469.642,190.403,469.642z"/>
			<path style="fill:#122129;" d="M194.607,475.047l0.571-0.791c0.469,0.542,1.362,1.011,2.329,1.011c1.084,0,1.67-0.513,1.67-1.216
				c0-1.714-4.38-0.659-4.38-3.281c0-1.098,0.952-2.036,2.636-2.036c1.201,0,2.051,0.454,2.622,1.026l-0.513,0.762
				c-0.424-0.513-1.201-0.894-2.109-0.894c-0.967,0-1.567,0.483-1.567,1.113c0,1.552,4.38,0.527,4.38,3.281
				c0,1.187-0.952,2.138-2.783,2.138C196.306,476.16,195.325,475.809,194.607,475.047z"/>
			<path style="fill:#122129;" d="M201.477,467.167c0-0.41,0.337-0.747,0.732-0.747c0.41,0,0.747,0.337,0.747,0.747
				c0,0.41-0.337,0.732-0.747,0.732C201.814,467.899,201.477,467.577,201.477,467.167z M201.667,475.985v-7.075h1.099v7.075H201.667
				z"/>
			<path style="fill:#122129;" d="M204.582,477.801l0.556-0.82c0.586,0.703,1.289,0.967,2.3,0.967c1.172,0,2.27-0.571,2.27-2.124
				v-1.011c-0.513,0.718-1.377,1.26-2.373,1.26c-1.845,0-3.149-1.377-3.149-3.662c0-2.27,1.289-3.677,3.149-3.677
				c0.952,0,1.802,0.469,2.373,1.245v-1.069h1.098v6.87c0,2.344-1.641,3.076-3.369,3.076
				C206.237,478.856,205.417,478.621,204.582,477.801z M209.709,473.949v-3.091c-0.381-0.615-1.23-1.143-2.109-1.143
				c-1.421,0-2.27,1.128-2.27,2.695c0,1.553,0.849,2.695,2.27,2.695C208.478,475.106,209.328,474.564,209.709,473.949z"/>
			<path style="fill:#122129;" d="M217.413,475.985v-4.629c0-1.245-0.63-1.641-1.582-1.641c-0.865,0-1.685,0.527-2.095,1.099v5.17
				h-1.099v-7.075h1.099v1.025c0.498-0.586,1.465-1.201,2.519-1.201c1.48,0,2.256,0.747,2.256,2.285v4.966H217.413z"/>
			<path style="fill:#122129;" d="M219.932,472.44c0-2.051,1.465-3.706,3.486-3.706c2.139,0,3.398,1.67,3.398,3.794v0.279h-5.727
				c0.088,1.333,1.025,2.446,2.549,2.446c0.806,0,1.626-0.322,2.183-0.894l0.527,0.718c-0.703,0.703-1.655,1.084-2.812,1.084
				C221.441,476.16,219.932,474.652,219.932,472.44z M223.404,469.642c-1.509,0-2.256,1.274-2.314,2.358h4.643
				C225.718,470.946,225.015,469.642,223.404,469.642z"/>
			<path style="fill:#122129;" d="M233.35,475.985v-1.055c-0.527,0.718-1.392,1.23-2.388,1.23c-1.846,0-3.149-1.406-3.149-3.706
				c0-2.256,1.289-3.721,3.149-3.721c0.952,0,1.817,0.469,2.388,1.245v-3.765h1.098v9.77H233.35z M233.35,474.066v-3.208
				c-0.396-0.615-1.245-1.143-2.124-1.143c-1.421,0-2.27,1.172-2.27,2.739c0,1.567,0.849,2.724,2.27,2.724
				C232.105,475.179,232.954,474.681,233.35,474.066z"/>
			<path style="fill:#122129;" d="M239.692,475.985v-9.77h1.098v3.765c0.572-0.776,1.421-1.245,2.388-1.245
				c1.845,0,3.149,1.465,3.149,3.721c0,2.299-1.304,3.706-3.149,3.706c-0.996,0-1.86-0.513-2.388-1.23v1.055H239.692z
				 M242.9,475.179c1.436,0,2.285-1.157,2.285-2.724c0-1.568-0.85-2.739-2.285-2.739c-0.864,0-1.728,0.527-2.109,1.143v3.208
				C241.171,474.681,242.036,475.179,242.9,475.179z"/>
			<path style="fill:#122129;" d="M247.528,477.757c0.161,0.073,0.425,0.117,0.601,0.117c0.483,0,0.805-0.161,1.055-0.747
				l0.469-1.069l-2.959-7.148h1.187l2.358,5.8l2.344-5.8h1.201l-3.545,8.51c-0.425,1.025-1.143,1.421-2.08,1.435
				c-0.234,0-0.601-0.044-0.806-0.103L247.528,477.757z"/>
		</g>
	</g>
</g>
</svg>
