<?xml version="1.0" encoding="utf-8"?>
<!-- Generator: Adobe Illustrator 27.5.0, SVG Export Plug-In . SVG Version: 6.00 Build 0)  -->
<svg version="1.1" id="Capa_1" xmlns="http://www.w3.org/2000/svg" xmlns:xlink="http://www.w3.org/1999/xlink" x="0px" y="0px"
	 viewBox="0 0 2122 2122" style="enable-background:new 0 0 2122 2122;" xml:space="preserve">
<path style="fill:#321C27;" d="M1799.905,565.664c-8.062-22.149-23.558-40.55-46.335-48.148c-0.112-0.037-0.213-0.04-0.324-0.074
	c0.704-2.396,1.43-4.785,2.134-7.181c1.846-6.281-2.281-11.496-7.798-13.734c-28.882-11.714-57.763-23.427-86.644-35.142
	c-0.213-0.086-0.435-0.097-0.651-0.163c0.611-4.698,0.907-9.405,0.473-14.029c-1.749-18.649-14.158-34.232-31.361-41.291
	c-11.173-4.585-24.748-7.087-36.651-4.401c-17.386,3.922-28.706,19.569-36.068,34.737c-41.313-15.481-82.979-29.994-124.965-43.542
	c1.71-8.655,3.394-17.614,2.58-26.289c-1.748-18.65-14.158-34.232-31.361-41.291c-11.174-4.585-24.749-7.086-36.653-4.401
	c-17.774,4.011-29.221,20.278-36.567,35.756c-0.026,0.054-0.039,0.112-0.063,0.167c-0.421,0.752-0.787,1.574-1.062,2.5
	c-0.367,1.232-0.732,2.463-1.099,3.695c-44.674-15.558-89.481-30.723-134.415-45.508c1.892-9.651,4.136-19.784,3.22-29.556
	c-1.749-18.65-14.158-34.232-31.361-41.291c-11.173-4.585-24.748-7.087-36.651-4.401c-17.775,4.01-29.222,20.277-36.568,35.755
	c-0.026,0.055-0.039,0.113-0.063,0.167c-0.421,0.752-0.787,1.573-1.062,2.5c-0.646,2.172-1.291,4.343-1.937,6.515
	c-45.151-18.722-91.14-35.338-137.826-49.815c1.562-8.03,2.938-16.284,2.186-24.292c-1.749-18.649-14.158-34.232-31.362-41.291
	c-11.173-4.585-24.748-7.087-36.652-4.401c-16.347,3.688-27.331,17.743-34.706,32.018c-26.189-7.733-52.585-14.723-79.175-20.94
	c-6.152-1.438-11.709,1.898-13.734,7.798c-46.743,136.167-91.699,272.946-134.825,410.302
	c-12.074,38.46-24.004,76.965-35.796,115.512c-2.076,6.786,2.109,11.642,7.385,13.196c5.431,1.601,12.017-0.299,14.147-7.26
	c42.114-137.669,86.033-274.785,131.773-411.292c11.659-34.793,23.471-69.534,35.363-104.248
	c22.643,5.472,45.15,11.478,67.501,18.053c-5.149,17.318-10.297,34.635-15.446,51.953c-0.209,0.702-0.418,1.405-0.628,2.108
	c-3.094,10.409-6.187,20.818-9.283,31.226c-3.069,10.324-6.278,20.558-7.294,31.334c-3.746,39.662,46.575,76.589,81.342,51.674
	c16.263-11.656,25.24-30.26,32.311-48.422c3.612-9.279,6.689-18.797,9.496-28.401c15.18,28.36-1.684,66.406-26.822,83.484
	c-30.405,20.656-74.073,16.65-97.263-13.273c-12.752-16.457-17.2-38.605-11.895-58.661c1.397-5.283-0.853-9.405-4.371-11.736
	c-5.743-3.804-14.88-2.82-17.161,5.8c-12.946,48.953,18.333,99.489,67.434,110.84c47.833,11.058,97.901-17.556,113.388-64.103
	c8.608-25.87,4.771-54.747-12.639-75.976c-0.998-1.215-2.283-2.049-3.7-2.574c0.721-2.947,1.463-5.895,2.158-8.837
	c1.38-5.834,2.666-11.689,3.896-17.557c46.004,14.318,91.335,30.702,135.847,49.145c-3.593,12.085-7.186,24.17-10.779,36.255
	c-0.251,0.845-0.502,1.689-0.753,2.533c-3.303,11.112-6.606,22.223-9.911,33.335c-3.068,10.323-6.276,20.557-7.295,31.333
	c-3.744,39.662,46.576,76.59,81.342,51.674c16.265-11.655,25.241-30.26,32.312-48.422c3.613-9.279,6.689-18.797,9.496-28.401
	c15.179,28.361-1.683,66.406-26.822,83.484c-30.404,20.655-74.073,16.65-97.263-13.273c-12.753-16.456-17.2-38.605-11.895-58.661
	c1.737-6.57-2.167-11.32-7.143-13.08c-5.555-1.965-12.449-0.19-14.389,7.144c-12.947,48.953,18.332,99.49,67.432,110.84
	c47.834,11.057,97.902-17.556,113.39-64.104c8.608-25.87,4.771-54.746-12.64-75.975c-0.996-1.215-2.283-2.05-3.7-2.574
	c0.721-2.947,1.463-5.895,2.158-8.837c0.967-4.092,1.866-8.2,2.76-12.308c44.302,14.586,88.485,29.538,132.532,44.876
	c-3.738,12.574-7.476,25.148-11.215,37.723c-0.383,1.288-0.766,2.576-1.149,3.865c-3.303,11.112-6.606,22.223-9.91,33.334
	c-3.069,10.324-6.278,20.558-7.294,31.334c-3.745,39.662,46.575,76.589,81.342,51.674c16.264-11.655,25.24-30.26,32.31-48.422
	c3.613-9.28,6.689-18.797,9.496-28.401c15.18,28.361-1.683,66.407-26.822,83.484c-30.404,20.655-74.073,16.649-97.263-13.273
	c-12.752-16.456-17.2-38.605-11.895-58.66c1.781-6.733-2.359-11.566-7.51-13.214c-5.487-1.757-12.125,0.106-14.022,7.278
	c-12.946,48.953,18.333,99.489,67.434,110.84c32.492,7.511,65.984-3.316,89-25.601c10.867-10.523,19.421-23.573,24.388-38.502
	c5.128-15.413,5.802-31.883,1.856-47.177c-2.676-10.377-7.458-20.218-14.496-28.799c-0.996-1.216-2.282-2.05-3.7-2.574
	c0.721-2.947,1.463-5.895,2.158-8.837c1.223-5.172,2.384-10.358,3.488-15.556c8.639,2.793,17.265,5.62,25.876,8.495
	c32.415,10.823,64.635,22.227,96.643,34.208c-4.736,15.928-9.471,31.857-14.206,47.786c-0.135,0.455-0.271,0.911-0.407,1.367
	c-3.303,11.112-6.607,22.223-9.91,33.335c-3.07,10.324-6.278,20.557-7.295,31.333c-3.745,39.662,46.575,76.59,81.341,51.674
	c16.264-11.655,25.241-30.26,32.312-48.422c3.612-9.279,6.689-18.797,9.495-28.4c15.18,28.36-1.683,66.406-26.821,83.483
	c-30.404,20.655-74.073,16.65-97.263-13.273c-12.753-16.456-17.2-38.605-11.895-58.661c1.292-4.887-0.557-8.755-3.623-11.158
	c-5.657-4.435-15.525-3.795-17.91,5.221c-12.947,48.953,18.332,99.49,67.433,110.84c47.833,11.057,97.901-17.556,113.389-64.103
	c8.608-25.87,4.771-54.747-12.64-75.976c-0.997-1.215-2.282-2.049-3.7-2.574c0.721-2.947,1.463-5.895,2.158-8.837
	c2.171-9.178,4.12-18.408,5.918-27.665c24.941,10.116,49.884,20.232,74.824,30.348c-40.45,137.312-82.293,274.213-125.584,410.655
	c-12.44,39.205-24.999,78.372-37.67,117.502c-2.029,6.263,1.388,10.856,6.1,12.731c5.599,2.229,13.034,0.609,15.431-6.796
	c45.111-139.304,88.755-279.083,130.897-419.314c4.521-15.041,8.94-30.113,13.425-45.165c0.338,0.224,0.682,0.44,1.013,0.672
	c0.089,0.062,0.334,0.239,0.585,0.42c0.342,0.275,0.89,0.708,0.938,0.747c0.505,0.429,1.002,0.869,1.492,1.317
	c1.96,1.794,3.677,3.763,5.419,5.758c0.462,0.653,0.928,1.3,1.373,1.965c0.738,1.109,1.436,2.245,2.095,3.404
	c0.657,1.159,1.274,2.342,1.848,3.544c0.039,0.08,0.129,0.274,0.231,0.494c0.146,0.354,0.448,1.065,0.518,1.25
	c0.933,2.49,1.688,5.048,2.244,7.648c0.149,0.693,0.27,1.389,0.398,2.086c-0.007-0.12-0.022-0.249-0.01-0.344
	c-0.015,0.114,0.02,0.252,0.014,0.371c0.015,0.078,0.031,0.156,0.045,0.233c0.203,1.096,0.042,0.607-0.034,0.021
	c-0.006,1.213,0.268,2.568,0.307,3.737c0.043,1.327,0.033,2.654-0.033,3.98c-0.031,0.664-0.076,1.327-0.136,1.989
	c-0.066,0.721-0.461,3.242,0,0.204c-0.871,5.749,1.443,12.286,7.798,13.734c5.319,1.211,12.799-1.623,13.734-7.798
	c2.199-14.508-0.171-28.797-7.255-41.721c-5.869-10.71-15.089-20.102-26.047-25.7c2.242-7.553,4.502-15.102,6.736-22.658
	c0.247,0.1,0.453,0.233,0.715,0.32c20.374,6.797,31.468,27.814,34.795,47.879c4.458,26.877-6.169,54.408-16.143,78.847
	c-5.624,13.781-11.32,27.379-16.317,41.388c-11.764,32.986-22.744,66.257-33.751,99.5c-17.017,51.389-33.765,102.867-50.434,154.37
	c-20.228,62.498-40.313,125.041-60.324,187.609c-21.396,66.901-42.702,133.83-63.937,200.783
	c-20.443,64.46-40.822,128.941-61.123,193.445c-17.365,55.176-34.679,110.368-51.884,165.594
	c-12.196,39.147-24.371,78.302-36.308,117.529c-3.44,11.301-6.872,22.604-10.186,33.942c-6.172,21.122-14.006,42.616-31.843,54.577
	c-12.085,8.104-25.958,11.471-40.203,12.106c-17.089,0.762-33.789-1.728-50.386-5.491c-39.234-8.897-76.776-24.124-114.257-38.439
	c-16.829-6.428-33.694-12.797-50.855-18.294c-6.866-2.199-11.765,2.102-13.235,7.495c-1.469,5.382,0.478,11.853,7.298,14.037
	c37.874,12.131,74.413,28.053,111.979,41.066c35.484,12.292,74.104,24.29,112.122,21.81c35.218-2.297,65.357-20.073,80.436-52.694
	c6.208-13.431,9.741-27.889,13.968-42.027c10.155-33.951,20.672-67.794,31.173-101.64c16.218-52.269,32.565-104.498,48.961-156.711
	c20.129-64.101,40.342-128.174,60.62-192.227c21.499-67.908,43.07-135.793,64.727-203.65
	c20.878-65.416,41.832-130.806,62.919-196.155c17.71-54.881,35.5-109.737,53.527-164.515
	c12.438-37.788,24.892-75.581,37.974-113.152c3.526-10.127,7.049-20.271,10.939-30.266
	C1793.938,654.532,1816.236,610.528,1799.905,565.664z"/>
<path style="fill:#EE7352;" d="M1782.428,586.927c-3.327-20.064-14.421-41.082-34.795-47.879c-0.262-0.087-0.468-0.221-0.715-0.32
	c-2.234,7.556-4.494,15.104-6.736,22.658c10.958,5.598,20.179,14.99,26.047,25.7c7.084,12.924,9.453,27.213,7.255,41.721
	c-0.936,6.175-8.415,9.009-13.734,7.798c-6.355-1.447-8.669-7.984-7.798-13.734c-0.461,3.038-0.066,0.517,0-0.204
	c0.06-0.662,0.105-1.325,0.136-1.989c0.066-1.326,0.076-2.653,0.033-3.98c-0.039-1.169-0.313-2.523-0.307-3.737
	c-0.013-0.101-0.011-0.182-0.016-0.282c-0.128-0.697-0.25-1.393-0.398-2.086c-0.555-2.6-1.311-5.158-2.244-7.648
	c-0.069-0.185-0.372-0.896-0.518-1.25c-0.102-0.22-0.192-0.414-0.231-0.494c-0.574-1.202-1.19-2.386-1.848-3.544
	c-0.659-1.158-1.357-2.294-2.095-3.404c-0.444-0.666-0.911-1.312-1.373-1.965c-1.743-1.995-3.459-3.964-5.419-5.758
	c-0.489-0.448-0.986-0.888-1.492-1.317c-0.048-0.039-0.596-0.471-0.938-0.747c-0.251-0.181-0.496-0.358-0.585-0.42
	c-0.331-0.232-0.675-0.448-1.013-0.672c-4.485,15.052-8.905,30.123-13.425,45.165c-42.142,140.231-85.786,280.01-130.897,419.314
	c-2.397,7.404-9.832,9.024-15.431,6.796l-7.128,22.378c0.26,0.106,0.537,0.159,0.792,0.292c1.385,0.45,2.582,1.22,3.593,2.308
	c1.089,1.011,1.858,2.209,2.309,3.593c0.697,1.331,1.019,2.765,0.961,4.302c0,0.59,0,1.179,0,1.769
	c-0.006,2.015-0.514,3.894-1.524,5.635c-0.582,0.753-1.164,1.507-1.747,2.259c-1.392,1.384-3.035,2.341-4.926,2.871
	c-0.99,0.133-1.98,0.266-2.969,0.399c-1.321,0.049-2.549-0.238-3.717-0.746l-9.189,28.844c4.811,1.845,8.454,6.514,6.648,12.917
	c-15.301,54.226-30.928,108.36-46.896,162.393c-28.348,95.929-57.753,191.546-88.205,286.828
	c-30.453,95.282-61.962,190.226-94.497,284.817c-0.356,1.033-0.836,1.916-1.369,2.729c-2.191,4.034-6.533,6.822-12.263,5.304
	c-73.038-19.336-145.605-40.403-217.822-62.601c-128.352-39.452-255.586-82.414-382.822-125.294
	c-114.69-38.652-229.427-77.214-345.001-113.156c-0.283,0.42-0.555,0.846-0.888,1.239c-12.264,14.512,0.3,36.286,12.871,45.615
	c19.049,14.136,44.48,19.83,66.575,27.336c94.593,32.136,189.311,63.908,284.151,95.313
	c95.231,31.536,190.586,62.699,286.057,93.499c4.447,1.434,6.791,4.697,7.495,8.283l20.049,6.386
	c1.631-3.202,4.763-5.592,9.449-5.592c7.564,0,11.104,6.164,10.715,12.016l16.647,5.303c1.47-5.393,6.369-9.694,13.235-7.495
	c17.161,5.497,34.026,11.866,50.855,18.294c37.481,14.315,75.023,29.542,114.257,38.439c16.597,3.764,33.297,6.254,50.386,5.491
	c14.245-0.635,28.118-4.003,40.203-12.106c17.837-11.961,25.671-33.455,31.843-54.577c3.314-11.339,6.747-22.642,10.186-33.942
	c11.938-39.227,24.112-78.382,36.308-117.529c17.206-55.226,34.519-110.418,51.884-165.594
	c20.301-64.505,40.679-128.985,61.123-193.445c21.235-66.952,42.541-133.882,63.937-200.783
	c20.011-62.567,40.096-125.111,60.324-187.609c16.668-51.503,33.417-102.981,50.434-154.37c11.007-33.243,21.988-66.514,33.751-99.5
	c4.996-14.01,10.693-27.607,16.317-41.388C1776.26,641.335,1786.887,613.803,1782.428,586.927z"/>
<path style="fill:#CBE9FC;" d="M1324.632,581.783c-49.101-11.351-80.38-61.887-67.434-110.84c1.897-7.172,8.535-9.035,14.022-7.278
	c7.162-18.336,21.069-33.236,38.695-41.721c3.739-12.574,7.478-25.148,11.215-37.723c-44.047-15.338-88.23-30.289-132.532-44.876
	c-0.894,4.108-1.793,8.216-2.76,12.308c-0.695,2.942-1.437,5.89-2.158,8.837c1.418,0.524,2.704,1.359,3.7,2.574
	c17.41,21.229,21.247,50.106,12.64,75.975c-15.487,46.547-65.555,75.161-113.39,64.104c-49.1-11.351-80.379-61.887-67.432-110.84
	c1.94-7.334,8.834-9.108,14.389-7.144c7.217-17.746,20.81-32.162,37.932-40.523c3.593-12.085,7.186-24.17,10.779-36.255
	c-44.513-18.443-89.843-34.827-135.847-49.145c-1.229,5.868-2.516,11.723-3.896,17.557c-0.695,2.942-1.437,5.89-2.158,8.837
	c1.418,0.524,2.703,1.358,3.7,2.574c17.41,21.229,21.247,50.106,12.639,75.976c-15.487,46.547-65.555,75.161-113.388,64.103
	c-49.101-11.351-80.38-61.887-67.434-110.84c2.28-8.62,11.418-9.604,17.161-5.8c6.838-15.836,18.789-28.934,33.781-37.226
	c0.21-0.702,0.419-1.405,0.628-2.108c5.148-17.318,10.297-34.635,15.446-51.953c-22.351-6.575-44.857-12.581-67.501-18.053
	c-11.891,34.714-23.704,69.455-35.363,104.248c-45.74,136.507-89.659,273.622-131.773,411.292c-2.13,6.962-8.716,8.861-14.147,7.26
	l-6.989,21.941c8.504,4.872,6.68,20.902-5.51,20.902c-0.396,0-0.739-0.078-1.113-0.111l-3.013,9.458
	c4.17,2.507,6.989,7.842,5.255,12.585c-20.348,55.642-39.203,111.815-57.151,168.272c-31.912,100.379-61.028,201.613-91.119,302.544
	c-29.027,97.359-59.05,194.461-93.225,290.152c47.254,14.461,94.359,29.401,141.366,44.648
	c172.39-70.554,334.75-163.511,474.193-289.65c-2.769-3.114-5.477-6.349-8.24-9.611c-10.528-12.432-23.295-22.433-38.743-28.012
	c-13.601-4.912-28.116-6.831-42.498-4.953c-16.599,2.168-32.608,7.276-49.295,2.33c-19.92-5.903-34.191-21.221-48.966-35.115
	c-14.358,17.328-29.127,34.296-44.48,50.72c-66.277,70.904-139.051,152.252-236.422,178.493
	c-35.499,9.567-80.677,5.791-78.188-40.673c1.632-30.441,18.645-62.992,30.149-90.752c17.313-41.785,34.503-83.573,49.912-126.104
	c35.829-98.89,75.012-196.82,102.192-298.558c25.046-93.747,53.799-186.448,84.025-278.59
	c12.149-37.032,23.838-74.313,35.423-111.501c30.886-99.151,88.403-73.176,107.668-59.125
	c17.675,12.891,29.052,32.591,45.003,47.333c19.041,17.598,44.253,28.421,68.837,35.94c65.496,20.034,139.429-36.006,155.263,62.65
	c6.286,39.164,2.323,77.116-7.846,113.869c3.094,2.441,6.013,5.089,8.694,7.951c4.413,4.712,8.242,10.805,14.435,13.352
	c4.457,1.833,9.403,1.955,14.144,1.876c13.482-0.225,26.693-3.012,40.151-0.61c13.417,2.395,22.708,10.875,31.48,20.676
	c3.685,4.118,7.571,8.924,12.737,11.251c6.6,2.974,14.708,1.336,21.466-0.05c14.916-3.057,28.674-5.65,43.892-3.201
	c14.312,2.302,27.781,8.651,39.106,17.608c5.481,4.336,10.029,9.396,14.168,14.81c35.639-78.36,66.083-159.226,92.723-241.67
	C1390.615,578.467,1357.124,589.294,1324.632,581.783z"/>
<path style="fill:#CBE9FC;" d="M1453.203,423.232c-8.612-2.875-17.238-5.702-25.876-8.495c-1.105,5.198-2.266,10.384-3.488,15.556
	c-0.695,2.942-1.437,5.89-2.158,8.837c1.418,0.524,2.704,1.358,3.7,2.574c7.038,8.581,11.82,18.422,14.496,28.799
	C1444.435,454.79,1448.868,439.028,1453.203,423.232z"/>
<path style="fill:#CBE9FC;" d="M1121.563,1068.215c-15.077-1.171-25.22-9.714-34.875-20.509c-3.907-4.37-7.937-9.303-13.431-11.73
	c-5.063-2.237-10.777-2.318-16.201-2.161c-12.836,0.371-25.448,2.865-38.268,0.698c-7.09-1.198-13.634-4.094-19.255-8.569
	c-5.524-4.398-9.571-10.162-14.649-15.017c-9.421-9.008-22.161-14.91-35.13-16.3c-6.035-0.646-12.015-0.151-17.983,0.552
	c-24.867,40.969-50.501,81.71-77.561,121.422c1.531,0.89,3.048,1.802,4.66,2.563c11.562,5.463,23.775,3.067,35.95,0.844
	c14.873-2.717,29.255-3.382,44.192-0.739c28.128,4.976,51.132,20.861,69.093,42.504c7.155,8.622,14.919,19.233,26.488,21.794
	c13.78,3.05,28.388-3.766,41.818-6.06c1.873-0.32,3.748-0.577,5.621-0.783c31.963-36.891,61.6-75.042,89.128-114.305
	c-1.201-0.072-2.402-0.147-3.61-0.147C1151.99,1062.277,1137.239,1069.433,1121.563,1068.215z"/>
<path style="fill:#CBE9FC;" d="M1290.181,798.354c-10.754-7.548-23.571-11.879-36.739-11.876
	c-15.558,0.004-30.309,7.16-45.985,5.942c-15.076-1.171-25.22-9.714-34.874-20.509c-3.907-4.369-7.938-9.303-13.431-11.73
	c-5.063-2.237-10.777-2.318-16.201-2.161c-12.837,0.372-25.448,2.865-38.269,0.698c-7.089-1.198-13.632-4.094-19.253-8.569
	c-4.588-3.653-8.186-8.223-12.172-12.456c-12.713,36.374-30.821,71.534-50.363,105.478c0.672,0.106,1.34,0.184,2.014,0.303
	c28.127,4.977,51.131,20.861,69.091,42.504c7.155,8.622,14.92,19.234,26.49,21.795c13.78,3.05,28.387-3.766,41.817-6.06
	c28.869-4.931,58.137,3.704,79.532,23.78c3.233,3.034,6.307,6.417,9.447,9.757c21.061-37.295,40.585-75.37,58.825-114.072
	C1304.455,812.624,1298.58,804.25,1290.181,798.354z"/>
<path style="fill:#CBE9FC;" d="M1221.895,937.587c-9.854-7.985-22.35-13.125-34.927-14.653c-14.719-1.788-28.073,2.723-42.284,5.64
	c-14.977,3.074-30.401,3.32-43.82-5.026c-11.197-6.964-18.888-17.57-27.353-27.387c-16.049-18.61-38.457-30.411-62.903-32.042
	c-13.849,23.214-27.97,45.846-41.022,67.889c-7.972,13.463-16,26.947-24.085,40.425c6.513,0.053,13.03,0.726,19.76,2.595
	c14.394,3.998,27.95,11.992,38.174,22.909c4.413,4.712,8.242,10.805,14.435,13.352c4.458,1.833,9.403,1.955,14.144,1.876
	c13.482-0.225,26.693-3.012,40.152-0.61c13.418,2.395,22.708,10.875,31.48,20.677c3.684,4.117,7.57,8.924,12.735,11.251
	c6.602,2.974,14.708,1.335,21.466-0.05c14.916-3.057,28.675-5.649,43.893-3.201c1.185,0.191,2.356,0.45,3.529,0.696
	c19.235-28.443,37.444-57.425,54.65-86.92C1234.01,949.094,1228.409,942.865,1221.895,937.587z"/>
<path style="fill:#CBE9FC;" d="M1014.969,1199.343c-11.196-6.964-18.887-17.57-27.353-27.387
	c-17.388-20.166-42.239-32.364-69.064-32.26c-15.414,0.059-30.253,5.835-45.686,5.29c-11.212-0.395-21.875-4.055-31.339-9.967
	c-18.665,26.702-38.08,52.829-58.364,78.202c13.726,13.266,28.037,30.12,47.236,32.203c8.897,0.965,17.802-1.413,26.488-2.933
	c7.742-1.355,15.546-2.348,23.418-2.219c15.732,0.257,31.107,4.006,45.403,10.482c13.808,6.255,26.29,15.568,36.307,26.935
	c3.583,4.067,7.117,8.828,10.931,13.341c27.451-25.671,53.974-52.672,79.46-81.099c1.614-1.745,3.171-3.521,4.773-5.271
	C1042.711,1207.42,1027.91,1207.39,1014.969,1199.343z"/>
<path style="fill:#AFDFF9;" d="M1605.462,924.416c43.292-136.442,85.135-273.344,125.584-410.655
	c-24.941-10.116-49.883-20.232-74.824-30.348c-1.798,9.258-3.747,18.487-5.918,27.665c-0.695,2.942-1.437,5.89-2.158,8.837
	c1.418,0.525,2.703,1.359,3.7,2.574c17.411,21.229,21.247,50.106,12.64,75.976c-15.487,46.547-65.555,75.16-113.389,64.103
	c-49.101-11.35-80.38-61.887-67.433-110.84c2.385-9.017,12.252-9.656,17.91-5.221c6.139-17.472,18.316-32.057,34.066-41.279
	c4.734-15.929,9.47-31.858,14.206-47.786c-32.007-11.982-64.227-23.385-96.643-34.208c-4.335,15.796-8.768,31.557-13.327,47.271
	c3.945,15.294,3.272,31.764-1.856,47.177c-4.967,14.929-13.521,27.979-24.388,38.502c-26.64,82.444-57.084,163.31-92.723,241.67
	c3.641,4.765,6.969,9.801,10.293,14.892c5.471,8.381,12.102,19.354,22.966,20.924c7.075,1.022,14.586-2.064,21.107-4.376
	c6.512-2.308,12.979-4.762,19.818-5.918c14.939-2.526,29.996-0.212,43.636,6.336c13.386,6.426,22.361,17.11,30.973,28.828
	c5.685,7.735,16.905,22.567,27.966,15.267c12.04-7.946,23.212,11.399,11.269,19.281c-15.108,9.972-34.516,3.35-46.478-8.427
	c-11.212-11.039-17.434-26.016-31.638-33.932c-13.152-7.329-27.575-7.403-41.581-2.742c-16.418,5.463-32.453,11.982-49.414,4.373
	c-13.96-6.263-21.609-18.908-29.717-31.178c-18.24,38.702-37.764,76.777-58.825,114.072c5.362,5.702,10.918,11.277,17.796,14.766
	c12.056,6.116,25.087-1.414,36.402-5.859c27.448-10.78,58.551-5.37,79.216,16.298c9.358,9.812,16.427,22.202,28.654,28.823
	c11.258,6.096,24.453,6.009,36.199,1.54c5.665-2.155,12.251,2.403,13.734,7.798c1.707,6.209-2.165,11.591-7.797,13.734
	c-15.179,5.775-32.326,5.211-47.276-0.975c-15.773-6.529-25.103-18.931-35.94-31.406c-9.604-11.056-21.807-18.628-36.779-19.193
	c-16.581-0.626-29.866,9.262-45.561,12.624c-14.292,3.062-27.757-0.085-39.377-8.847c-3.83-2.888-7.269-6.178-10.636-9.545
	c-17.206,29.495-35.416,58.477-54.65,86.92c12.99,2.718,25.191,8.698,35.577,16.913c10.303,8.15,17.359,18.825,24.461,29.703
	c5.471,8.38,12.102,19.354,22.968,20.923c7.075,1.022,14.584-2.064,21.107-4.376c6.511-2.309,12.978-4.762,19.817-5.918
	c14.941-2.526,29.997-0.212,43.636,6.336c13.386,6.426,22.36,17.11,30.973,28.828c5.686,7.735,16.905,22.567,27.966,15.267
	c12.04-7.947,23.212,11.399,11.27,19.281c-15.109,9.972-34.518,3.35-46.48-8.427c-11.212-11.039-17.434-26.016-31.638-33.932
	c-13.152-7.33-27.575-7.404-41.581-2.743c-16.417,5.464-32.453,11.982-49.413,4.373c-23.692-10.629-29.196-39.649-49.645-54.002
	c-9.766-6.855-21.24-11.018-33.128-11.729c-27.527,39.263-57.164,77.414-89.128,114.305c27.012-2.974,53.905,5.79,73.912,24.564
	c8.753,8.213,16.335,18.99,27.243,24.522c12.057,6.116,25.086-1.415,36.403-5.859c27.447-10.78,58.549-5.37,79.215,16.297
	c9.359,9.812,16.426,22.202,28.654,28.823c11.257,6.096,24.452,6.009,36.199,1.54c5.666-2.156,12.252,2.402,13.734,7.797
	c1.706,6.209-2.166,11.591-7.798,13.734c-15.179,5.775-32.326,5.211-47.274-0.975c-15.774-6.529-25.105-18.932-35.941-31.407
	c-9.604-11.056-21.806-18.628-36.777-19.193c-16.58-0.626-29.867,9.262-45.562,12.624c-14.293,3.062-27.756-0.085-39.376-8.848
	c-10.553-7.958-18.436-18.677-28.661-26.963c-9.854-7.985-22.349-13.125-34.927-14.653c-14.718-1.788-28.072,2.723-42.285,5.64
	c-0.535,0.11-1.073,0.186-1.609,0.288c-1.603,1.751-3.16,3.527-4.773,5.271c-25.486,28.427-52.01,55.428-79.46,81.099
	c5.24,6.201,11.029,11.917,18.366,14.574c13.429,4.864,7.598,26.434-5.935,21.532c-12-4.347-20.536-12.292-28.536-21.288
	c-139.443,126.139-301.803,219.095-474.193,289.65c22.384,7.261,44.753,14.565,67.096,21.947
	c127.525,42.132,254.501,85.911,382.115,127.778c105.283,34.541,211.048,67.708,317.742,97.614
	c12.447-35.127,24.82-70.28,37.078-105.473c45.665-131.092,90.016-262.641,133.063-394.615c4.443-13.625,25.997-7.758,21.531,5.936
	c-12.226,37.484-24.554,74.934-36.991,112.349c-43.118,129.714-87.531,258.996-133.181,387.84
	c12.745,3.514,25.517,6.939,38.292,10.351c17.101-49.847,33.946-99.782,50.473-149.823c31.366-94.985,61.688-190.315,90.957-285.967
	s57.478-191.629,84.643-287.9c2.099-7.439,9.284-9.128,14.883-6.981l9.189-28.844c-0.192-0.083-0.397-0.117-0.585-0.215
	c-1.384-0.45-2.581-1.22-3.593-2.309c-1.089-1.011-1.857-2.208-2.308-3.593c-0.699-1.331-1.019-2.764-0.961-4.302
	c0-0.589,0-1.179,0-1.769c0.006-2.016,0.514-3.894,1.524-5.635c0.582-0.753,1.164-1.506,1.746-2.26
	c1.393-1.383,3.035-2.34,4.927-2.871c0.989-0.133,1.979-0.266,2.969-0.399c1.244-0.047,2.401,0.22,3.509,0.669l7.128-22.378
	c-4.713-1.876-8.129-6.469-6.1-12.731C1580.463,1002.787,1593.022,963.62,1605.462,924.416z"/>
<path style="fill:#54B1D9;" d="M793.077,311.644c3.519,2.331,5.769,6.453,4.371,11.736c-5.304,20.056-0.857,42.204,11.895,58.661
	c23.19,29.923,66.859,33.928,97.263,13.273c25.138-17.077,42.002-55.124,26.822-83.484c-2.806,9.604-5.883,19.121-9.496,28.401
	c-7.071,18.162-16.048,36.766-32.311,48.422c-34.767,24.915-85.088-12.013-81.342-51.674c1.017-10.776,4.225-21.01,7.294-31.334
	c3.095-10.409,6.189-20.817,9.283-31.226C811.866,282.71,799.915,295.808,793.077,311.644z"/>
<path style="fill:#B3B3B3;" d="M930.702,213.048c-1.718-11.974-12.015-19.707-23.033-22.514c-2.071-0.528-4.147-1.047-6.242-1.468
	c-0.626-0.126-1.252-0.24-1.88-0.355c-0.253-0.047-0.37-0.073-0.521-0.104c-0.129-0.008-0.195-0.01-0.378-0.024
	c-2.016-0.158-4.006-0.219-6.027-0.109c-0.215,0.011-0.313,0.014-0.463,0.02c-0.067,0.014-0.085,0.022-0.182,0.041
	c-0.882,0.169-1.742,0.391-2.613,0.61c-2.194,0.552-3.108,0.977-5.804,2.831c-1.372,0.944-2.724,2.204-4.118,3.645
	c-4.692,4.848-7.961,10.863-10.888,16.91c-6.277,21.112-12.554,42.223-18.83,63.334c-3.068,10.318-6.135,20.636-9.202,30.953
	c-2.823,9.495-6.461,19.182-7.805,29.033c-2.135,15.66,7.467,28.328,20.938,35.423c12.99,6.841,25.003,1.731,33.734-9.034
	c9.99-12.318,15.581-28.294,20.38-43.189c5.843-18.136,10.686-36.634,14.878-55.217c2.116-9.376,4.039-18.795,5.766-28.25
	C929.742,228.316,931.766,220.473,930.702,213.048z"/>
<path style="fill:#E0E0E0;" d="M904.644,220.211c2.065-6.484-1.55-13.479-8.033-15.544l-3.104-0.988
	c-6.484-2.066-13.479,1.549-15.544,8.033L840.09,330.6c-2.066,6.484,1.549,13.479,8.033,15.544l3.103,0.988
	c6.484,2.066,13.479-1.549,15.543-8.033L904.644,220.211z"/>
<path style="fill:#54B1D9;" d="M1033.588,385.161c4.975,1.76,8.879,6.51,7.143,13.08c-5.305,20.056-0.859,42.205,11.895,58.661
	c23.19,29.923,66.859,33.928,97.263,13.273c25.139-17.077,42.001-55.123,26.822-83.484c-2.806,9.604-5.883,19.121-9.496,28.401
	c-7.071,18.162-16.047,36.766-32.312,48.422c-34.766,24.915-85.086-12.012-81.342-51.674c1.019-10.776,4.227-21.01,7.295-31.333
	c3.305-11.112,6.608-22.223,9.911-33.335c0.251-0.845,0.502-1.689,0.753-2.533C1054.398,352.998,1040.805,367.415,1033.588,385.161z
	"/>
<path style="fill:#B3B3B3;" d="M1173.984,287.909c-1.717-11.974-12.015-19.707-23.033-22.514c-2.07-0.528-4.147-1.047-6.244-1.468
	c-0.625-0.126-1.251-0.239-1.878-0.355c-0.254-0.046-0.37-0.073-0.521-0.104c-0.13-0.009-0.195-0.01-0.378-0.024
	c-2.016-0.158-4.006-0.219-6.027-0.109c-0.213,0.012-0.313,0.014-0.463,0.02c-0.067,0.014-0.084,0.022-0.182,0.041
	c-0.881,0.168-1.742,0.391-2.612,0.61c-2.194,0.552-3.109,0.977-5.804,2.831c-1.372,0.944-2.724,2.204-4.118,3.645
	c-4.691,4.846-7.96,10.86-10.887,16.906c-6.277,21.113-12.554,42.226-18.831,63.339c-3.068,10.318-6.135,20.635-9.203,30.953
	c-2.822,9.494-6.46,19.182-7.804,29.033c-2.135,15.66,7.467,28.328,20.938,35.423c12.99,6.841,25.002,1.732,33.734-9.034
	c9.99-12.318,15.58-28.295,20.38-43.189c5.843-18.136,10.685-36.635,14.878-55.217c2.115-9.375,4.039-18.795,5.766-28.25
	C1173.024,303.176,1175.048,295.334,1173.984,287.909z"/>
<path style="fill:#E0E0E0;" d="M1158.238,289.306c2.511-7.886-1.884-16.394-9.771-18.906l-6.244-1.989
	c-7.885-2.512-16.393,1.884-18.906,9.771l-40.402,126.823c-2.511,7.886,1.886,16.394,9.771,18.906l6.244,1.989
	c7.887,2.512,16.394-1.884,18.906-9.77L1158.238,289.306z"/>
<path style="fill:#54B1D9;" d="M1271.22,463.665c5.151,1.648,9.291,6.481,7.51,13.214c-5.305,20.056-0.858,42.204,11.895,58.66
	c23.19,29.923,66.859,33.928,97.263,13.273c25.139-17.077,42.002-55.124,26.822-83.484c-2.806,9.604-5.883,19.121-9.496,28.401
	c-7.07,18.162-16.046,36.766-32.31,48.422c-34.768,24.915-85.087-12.012-81.342-51.674c1.017-10.776,4.225-21.01,7.294-31.334
	c3.304-11.111,6.607-22.223,9.91-33.334c0.382-1.288,0.766-2.576,1.149-3.865C1292.289,430.429,1278.382,445.329,1271.22,463.665z"
	/>
<path style="fill:#B3B3B3;" d="M1411.984,366.548c-1.717-11.974-12.015-19.707-23.033-22.514c-2.07-0.527-4.147-1.046-6.242-1.467
	c-0.626-0.126-1.252-0.24-1.879-0.355c-0.253-0.047-0.371-0.073-0.52-0.104c-0.13-0.009-0.196-0.01-0.379-0.024
	c-2.016-0.158-4.005-0.219-6.026-0.109c-0.214,0.012-0.315,0.014-0.465,0.02c-0.067,0.014-0.084,0.022-0.181,0.041
	c-0.881,0.169-1.742,0.391-2.613,0.61c-2.194,0.552-3.108,0.977-5.804,2.831c-1.372,0.944-2.724,2.204-4.118,3.645
	c-4.692,4.848-7.961,10.864-10.888,16.91c-6.277,21.112-12.553,42.223-18.83,63.334c-3.067,10.318-6.135,20.636-9.202,30.953
	c-2.824,9.495-6.462,19.182-7.805,29.034c-2.135,15.659,7.467,28.328,20.938,35.422c12.99,6.841,25.004,1.732,33.734-9.034
	c9.99-12.318,15.581-28.295,20.38-43.189c5.843-18.136,10.686-36.634,14.878-55.217c2.116-9.376,4.04-18.796,5.766-28.25
	C1411.024,381.815,1413.048,373.972,1411.984,366.548z"/>
<path style="fill:#E0E0E0;" d="M1394.394,365.992c2.322-7.288-1.741-15.151-9.03-17.473l-6.589-2.099
	c-7.287-2.322-15.151,1.742-17.473,9.03l-37.973,119.2c-2.321,7.288,1.742,15.151,9.031,17.473l6.588,2.099
	c7.289,2.322,15.151-1.742,17.473-9.03L1394.394,365.992z"/>
<path style="fill:#54B1D9;" d="M1501.574,546.506c3.066,2.403,4.915,6.271,3.623,11.158c-5.304,20.056-0.858,42.204,11.895,58.661
	c23.19,29.923,66.859,33.928,97.263,13.273c25.138-17.077,42.001-55.123,26.821-83.483c-2.805,9.603-5.882,19.121-9.495,28.4
	c-7.071,18.162-16.047,36.766-32.312,48.422c-34.766,24.915-85.086-12.012-81.341-51.674c1.017-10.776,4.225-21.009,7.295-31.333
	c3.303-11.112,6.607-22.223,9.91-33.335c0.135-0.456,0.271-0.911,0.407-1.367C1519.89,514.449,1507.713,529.034,1501.574,546.506z"
	/>
<path style="fill:#B3B3B3;" d="M1638.45,447.332c-1.717-11.974-12.015-19.707-23.033-22.514c-2.07-0.528-4.147-1.047-6.242-1.468
	c-0.626-0.125-1.252-0.24-1.879-0.355c-0.253-0.046-0.37-0.073-0.521-0.104c-0.129-0.009-0.195-0.01-0.378-0.024
	c-2.016-0.158-4.006-0.219-6.027-0.109c-0.213,0.012-0.313,0.014-0.463,0.02c-0.067,0.014-0.084,0.023-0.182,0.041
	c-0.882,0.168-1.742,0.391-2.612,0.61c-2.194,0.552-3.109,0.977-5.804,2.831c-1.373,0.944-2.724,2.204-4.118,3.645
	c-4.692,4.848-7.961,10.863-10.888,16.91c-6.276,21.112-12.554,42.223-18.829,63.334c-3.068,10.317-6.135,20.636-9.204,30.953
	c-2.822,9.495-6.46,19.182-7.804,29.033c-2.135,15.659,7.467,28.328,20.938,35.423c12.99,6.841,25.004,1.732,33.734-9.034
	c9.99-12.317,15.581-28.294,20.38-43.189c5.843-18.136,10.686-36.635,14.878-55.217c2.114-9.376,4.039-18.795,5.766-28.25
	C1637.49,462.599,1639.514,454.757,1638.45,447.332z"/>
<path style="fill:#E0E0E0;" d="M1622.133,454.273c2.274-7.137-1.705-14.836-8.842-17.11l-5.844-1.861
	c-7.136-2.273-14.835,1.706-17.109,8.842l-38.313,120.268c-2.274,7.136,1.705,14.836,8.842,17.109l5.844,1.861
	c7.136,2.274,14.836-1.706,17.11-8.842L1622.133,454.273z"/>
<path style="fill:#DDF1FD;" d="M734.697,1209.276c-14.39-1.948-29.713,5.467-44.339,6.206c-16.973,0.857-30.165-7.435-40.229-20.489
	c-7.346-9.528-15.381-26.936-29.718-25.451c-6.034,0.625-11.164-5.61-11.164-11.165c0-6.478,5.168-10.543,11.164-11.164
	c19.954-2.066,33.373,14.605,43.598,29.136c4.026,5.721,8.468,12.379,15.107,15.304c7.2,3.171,15.765,1.187,23.085-0.404
	c14.611-3.172,29.22-6.647,43.975-2.208c11.653,3.505,21.633,10.588,30.754,18.441c2.073,1.785,4.146,3.723,6.232,5.738
	c20.283-25.373,39.699-51.5,58.364-78.202c-0.484-0.302-0.978-0.581-1.454-0.895c-17.722-11.658-30.396-29.53-48.214-40.907
	c-8.603-5.494-17.167-7.937-27.417-6.653c-14.68,1.839-28.543,7.704-43.58,5.477c-15.067-2.232-25.127-12.335-33.703-24.16
	c-6.455-8.903-13.754-22.555-26.548-21.23c-6.036,0.625-11.166-5.61-11.166-11.165c0-6.478,5.168-10.543,11.166-11.164
	c17.485-1.811,30.884,11.361,40.282,24.414c4.215,5.856,8.029,12.474,13.732,17.06c4.992,4.014,10.665,4.863,16.901,4.414
	c16.328-1.174,31.183-8.088,47.876-5.571c11.998,1.808,22.514,7.887,31.951,15.24c14.639,11.405,26.667,27.324,42.855,36.724
	c27.06-39.713,52.695-80.454,77.561-121.422c-9.427,1.111-18.822,2.746-28.348,1.259c-14.523-2.268-24.394-11.94-32.82-23.24
	c-5.959-7.993-11.471-18.038-21.084-22.161c-10.142-4.35-22.407-2.455-32.957-0.937c-12.269,1.766-24.769,4.142-37.202,2.826
	c-14.169-1.5-25.769-7.561-35.463-18.023c-7.201-7.773-16.994-23.956-29.597-18.963c-5.638,2.233-12.269-2.466-13.734-7.798
	c-1.721-6.266,2.196-11.515,7.798-13.734c16.703-6.616,33.374,4.399,44.107,16.485c5.111,5.754,9.898,12.466,16.715,16.326
	c4.816,2.727,10.328,3.628,15.8,3.753c26.583,0.608,55.738-12.917,80.24,3.297c10.655,7.052,17.084,17.706,24.658,27.659
	c3.171,4.167,6.899,8.615,11.725,10.898c6.129,2.899,13.315,2.14,19.841,1.375c8.256-0.968,16.15-1.834,24.05-1.771
	c8.085-13.478,16.113-26.962,24.085-40.425c13.051-22.042,27.173-44.675,41.022-67.889c-2.042-0.136-4.094-0.227-6.162-0.219
	c-15.414,0.059-30.253,5.835-45.685,5.291c-11.785-0.416-22.981-4.406-32.794-10.862c-17.721-11.658-30.396-29.53-48.214-40.908
	c-8.603-5.494-17.167-7.937-27.416-6.653c-14.68,1.838-28.543,7.703-43.581,5.476c-15.067-2.231-25.125-12.335-33.701-24.16
	c-6.455-8.902-13.754-22.555-26.549-21.23c-6.034,0.625-11.164-5.61-11.164-11.165c0-6.478,5.168-10.543,11.164-11.164
	c17.485-1.811,30.885,11.362,40.283,24.415c4.216,5.855,8.029,12.474,13.732,17.061c4.99,4.014,10.664,4.862,16.901,4.414
	c16.326-1.174,31.182-8.088,47.876-5.571c11.996,1.809,22.513,7.887,31.951,15.24c16.024,12.485,28.859,30.474,47.514,39.288
	c11.563,5.462,23.776,3.067,35.951,0.844c14.202-2.595,27.961-3.283,42.179-1.042c19.542-33.944,37.651-69.104,50.363-105.478
	c-0.814-0.865-1.618-1.738-2.479-2.562c-9.42-9.007-22.159-14.91-35.129-16.299c-15.57-1.668-30.777,4.24-46.331,1.811
	c-14.523-2.268-24.395-11.94-32.82-23.24c-5.96-7.994-11.471-18.038-21.084-22.162c-10.141-4.35-22.407-2.455-32.956-0.936
	c-12.269,1.766-24.77,4.142-37.202,2.826c-14.17-1.5-25.77-7.56-35.463-18.023c-7.202-7.773-16.994-23.956-29.597-18.963
	c-5.638,2.234-12.269-2.466-13.734-7.797c-1.723-6.266,2.196-11.515,7.797-13.734c16.702-6.617,33.374,4.399,44.107,16.484
	c5.109,5.754,9.896,12.466,16.715,16.326c4.816,2.727,10.328,3.629,15.799,3.753c26.583,0.608,55.738-12.916,80.24,3.298
	c10.657,7.052,17.085,17.706,24.658,27.659c3.17,4.167,6.9,8.615,11.726,10.898c6.129,2.899,13.316,2.14,19.842,1.374
	c15.061-1.767,28.917-3.312,43.81,0.825c10.62,2.95,20.773,8.089,29.48,14.959c10.169-36.753,14.132-74.705,7.846-113.869
	c-15.833-98.656-89.766-42.616-155.263-62.65c-24.583-7.519-49.796-18.342-68.837-35.94c-15.951-14.742-27.329-34.441-45.003-47.333
	c-19.265-14.052-76.782-40.026-107.668,59.125c-11.585,37.188-23.274,74.469-35.423,111.501
	c-30.226,92.142-58.979,184.843-84.025,278.59c-27.18,101.738-66.363,199.667-102.192,298.558
	c-15.409,42.531-32.599,84.319-49.912,126.104c-11.503,27.76-28.516,60.312-30.149,90.752c-2.49,46.464,42.688,50.24,78.188,40.673
	c97.371-26.241,170.145-107.589,236.422-178.493c15.353-16.425,30.122-33.392,44.48-50.72c-2.625-2.469-5.264-4.898-7.957-7.216
	C753.526,1216.713,744.784,1210.642,734.697,1209.276z"/>
<path style="fill:#321C27;" d="M587.157,747.045c-1.52-0.871-3.329-1.427-5.51-1.427c-13.973,0-14.337,21.057-1.113,22.219
	c0.374,0.033,0.717,0.111,1.113,0.111C593.837,767.948,595.662,751.918,587.157,747.045z"/>
<path style="fill:#321C27;" d="M1560.286,1076.757c-1.891,0.531-3.533,1.488-4.927,2.871c-0.581,0.753-1.163,1.507-1.746,2.26
	c-1.01,1.742-1.518,3.62-1.524,5.635c0,0.59,0,1.179,0,1.769c-0.058,1.537,0.262,2.971,0.961,4.302
	c0.451,1.385,1.219,2.582,2.308,3.593c1.012,1.089,2.209,1.859,3.593,2.309c0.188,0.099,0.393,0.132,0.585,0.215
	c1.168,0.509,2.397,0.796,3.717,0.746c0.989-0.133,1.978-0.266,2.969-0.399c1.89-0.53,3.533-1.487,4.926-2.871
	c0.582-0.753,1.164-1.506,1.747-2.259c1.01-1.741,1.518-3.62,1.524-5.635c0-0.589,0-1.179,0-1.769
	c0.058-1.537-0.264-2.971-0.961-4.302c-0.451-1.384-1.221-2.582-2.309-3.593c-1.011-1.089-2.209-1.858-3.593-2.308
	c-0.255-0.134-0.531-0.186-0.792-0.292c-1.109-0.449-2.266-0.716-3.509-0.669
	C1562.266,1076.491,1561.276,1076.624,1560.286,1076.757z"/>
<path style="fill:#321C27;" d="M1053.88,1854.569c-4.687,0-7.818,2.39-9.449,5.592c-3.372,6.614-0.248,16.737,9.449,16.737
	c6.816,0,10.364-5.03,10.715-10.313C1064.985,1860.733,1061.444,1854.569,1053.88,1854.569z"/>
<path style="fill:#321C27;" d="M1016.888,1845.492c-95.471-30.8-190.825-61.963-286.057-93.499
	c-94.839-31.405-189.558-63.177-284.151-95.313c-22.095-7.505-47.526-13.2-66.575-27.336c-12.571-9.329-25.135-31.103-12.871-45.615
	c0.333-0.393,0.605-0.819,0.888-1.239c115.573,35.942,230.31,74.504,345.001,113.156c127.236,42.88,254.47,85.842,382.822,125.294
	c72.217,22.198,144.784,43.265,217.822,62.601c5.73,1.518,10.072-1.27,12.263-5.304c0.533-0.813,1.013-1.695,1.369-2.729
	c32.534-94.592,64.044-189.535,94.497-284.817c30.452-95.283,59.856-190.899,88.205-286.828
	c15.968-54.034,31.595-108.167,46.896-162.393c1.807-6.402-1.837-11.071-6.648-12.917c-5.599-2.148-12.784-0.458-14.883,6.981
	c-27.165,96.271-55.374,192.247-84.643,287.9s-59.591,190.982-90.957,285.967c-16.526,50.041-33.372,99.975-50.473,149.823
	c-12.775-3.413-25.547-6.837-38.292-10.351c45.65-128.844,90.063-258.125,133.181-387.84
	c12.437-37.414,24.765-74.865,36.991-112.349c4.467-13.694-17.087-19.561-21.531-5.936
	c-43.048,131.974-87.398,263.523-133.063,394.615c-12.258,35.193-24.631,70.346-37.078,105.473
	c-106.695-29.907-212.46-63.074-317.742-97.614c-127.614-41.867-254.59-85.646-382.115-127.778
	c-22.343-7.382-44.712-14.686-67.096-21.947c-47.007-15.247-94.112-30.187-141.366-44.648
	c34.175-95.691,64.198-192.793,93.225-290.152c30.091-100.932,59.207-202.165,91.119-302.544
	c17.948-56.458,36.803-112.631,57.151-168.272c1.733-4.743-1.085-10.078-5.255-12.585c-0.81-0.487-1.652-0.904-2.542-1.149
	c-6.221-1.71-11.655,2.113-13.734,7.798c-36.167,98.9-67.542,199.455-97.717,300.319c-30.189,100.907-59.231,202.165-90.899,302.625
	c-17.812,56.505-36.478,112.746-56.585,168.479c-2.725,7.553,2.783,12.697,9.028,13.446c0.81,0.487,1.691,0.92,2.714,1.232
	c6.13,1.869,12.246,3.784,18.372,5.668c-8.19,15.022-7.015,33.013,0.838,48.731c9.822,19.659,30.11,30.708,49.72,38.46
	c23.233,9.185,47.348,16.445,71.004,24.462c24.632,8.348,49.273,16.671,73.921,24.97c99.769,33.589,199.672,66.773,299.711,99.549
	c56.492,18.509,113.027,36.887,169.603,55.139c9.24,2.981,14.888-5.834,13.43-13.248
	C1023.678,1850.188,1021.335,1846.926,1016.888,1845.492z"/>
<path style="fill:#321C27;" d="M1007.345,698.406c-6.526,0.766-13.713,1.524-19.842-1.374c-4.826-2.283-8.555-6.731-11.726-10.898
	c-7.572-9.953-14.001-20.607-24.658-27.659c-24.502-16.214-53.656-2.69-80.24-3.298c-5.471-0.125-10.983-1.026-15.799-3.753
	c-6.819-3.86-11.606-10.572-16.715-16.326c-10.733-12.085-27.406-23.101-44.107-16.484c-5.602,2.219-9.52,7.468-7.797,13.734
	c1.465,5.332,8.096,10.031,13.734,7.797c12.603-4.992,22.395,11.19,29.597,18.963c9.693,10.463,21.292,16.523,35.463,18.023
	c12.433,1.317,24.933-1.06,37.202-2.826c10.549-1.518,22.815-3.414,32.956,0.936c9.613,4.123,15.124,14.168,21.084,22.162
	c8.425,11.301,18.297,20.972,32.82,23.24c15.554,2.429,30.761-3.479,46.331-1.811c12.969,1.389,25.708,7.292,35.129,16.299
	c0.861,0.824,1.665,1.697,2.479,2.562c3.986,4.233,7.583,8.803,12.172,12.456c5.621,4.475,12.164,7.371,19.253,8.569
	c12.821,2.167,25.432-0.327,38.269-0.698c5.424-0.157,11.138-0.075,16.201,2.161c5.493,2.427,9.524,7.36,13.431,11.73
	c9.654,10.795,19.798,19.338,34.874,20.509c15.676,1.217,30.428-5.938,45.985-5.942c13.168-0.003,25.985,4.328,36.739,11.876
	c8.4,5.896,14.274,14.27,19.927,22.824c8.108,12.271,15.757,24.916,29.717,31.178c16.961,7.609,32.996,1.09,49.414-4.373
	c14.006-4.661,28.428-4.587,41.581,2.742c14.205,7.916,20.427,22.893,31.638,33.932c11.962,11.778,31.37,18.4,46.478,8.427
	c11.943-7.881,0.771-27.227-11.269-19.281c-11.061,7.3-22.281-7.532-27.966-15.267c-8.613-11.718-17.587-22.402-30.973-28.828
	c-13.64-6.548-28.696-8.861-43.636-6.336c-6.839,1.156-13.307,3.609-19.818,5.918c-6.521,2.312-14.032,5.399-21.107,4.376
	c-10.864-1.569-17.495-12.542-22.966-20.924c-3.324-5.091-6.652-10.127-10.293-14.892c-4.139-5.415-8.687-10.475-14.168-14.81
	c-11.325-8.957-24.794-15.306-39.106-17.608c-15.218-2.448-28.977,0.144-43.892,3.201c-6.759,1.385-14.866,3.024-21.466,0.05
	c-5.166-2.327-9.052-7.133-12.737-11.251c-8.771-9.801-18.062-18.281-31.48-20.676c-13.458-2.403-26.669,0.385-40.151,0.61
	c-4.741,0.079-9.687-0.042-14.144-1.876c-6.192-2.547-10.021-8.639-14.435-13.352c-2.681-2.862-5.6-5.51-8.694-7.951
	c-8.707-6.87-18.86-12.009-29.48-14.959C1036.262,695.094,1022.406,696.639,1007.345,698.406z"/>
<path style="fill:#321C27;" d="M1241.836,925.494c-21.396-20.076-50.664-28.711-79.532-23.78c-13.43,2.294-28.037,9.109-41.817,6.06
	c-11.57-2.561-19.335-13.173-26.49-21.795c-17.96-21.642-40.964-37.526-69.091-42.504c-0.674-0.119-1.341-0.197-2.014-0.303
	c-14.218-2.241-27.977-1.553-42.179,1.042c-12.175,2.224-24.388,4.618-35.951-0.844c-18.655-8.814-31.489-26.803-47.514-39.288
	c-9.439-7.353-19.955-13.431-31.951-15.24c-16.693-2.517-31.55,4.397-47.876,5.571c-6.238,0.449-11.911-0.4-16.901-4.414
	c-5.703-4.587-9.517-11.206-13.732-17.061c-9.398-13.053-22.798-26.226-40.283-24.415c-5.996,0.621-11.164,4.687-11.164,11.164
	c0,5.555,5.13,11.79,11.164,11.165c12.795-1.325,20.094,12.328,26.549,21.23c8.576,11.825,18.635,21.929,33.701,24.16
	c15.038,2.227,28.901-3.638,43.581-5.476c10.249-1.284,18.814,1.159,27.416,6.653c17.817,11.377,30.492,29.25,48.214,40.908
	c9.813,6.455,21.009,10.446,32.794,10.862c15.433,0.544,30.271-5.232,45.685-5.291c2.068-0.008,4.12,0.082,6.162,0.219
	c24.446,1.631,46.854,13.432,62.903,32.042c8.465,9.817,16.156,20.423,27.353,27.387c13.418,8.346,28.842,8.101,43.82,5.026
	c14.212-2.918,27.566-7.428,42.284-5.64c12.577,1.528,25.073,6.668,34.927,14.653c6.514,5.278,12.115,11.507,18.024,17.418
	c3.367,3.367,6.806,6.656,10.636,9.545c11.62,8.763,25.085,11.91,39.377,8.847c15.695-3.362,28.981-13.249,45.561-12.624
	c14.972,0.565,27.174,8.137,36.779,19.193c10.837,12.475,20.167,24.878,35.94,31.406c14.949,6.187,32.096,6.751,47.276,0.975
	c5.632-2.143,9.504-7.525,7.797-13.734c-1.483-5.395-8.069-9.953-13.734-7.798c-11.747,4.47-24.941,4.556-36.199-1.54
	c-12.227-6.621-19.296-19.011-28.654-28.823c-20.665-21.667-51.768-27.077-79.216-16.298c-11.315,4.445-24.346,11.975-36.402,5.859
	c-6.878-3.489-12.435-9.064-17.796-14.766C1248.143,931.911,1245.069,928.528,1241.836,925.494z"/>
<path style="fill:#321C27;" d="M1137.847,1044.431c-6.759,1.385-14.865,3.024-21.466,0.05c-5.166-2.327-9.051-7.134-12.735-11.251
	c-8.772-9.802-18.062-18.281-31.48-20.677c-13.459-2.402-26.67,0.385-40.152,0.61c-4.74,0.079-9.686-0.042-14.144-1.876
	c-6.192-2.547-10.022-8.64-14.435-13.352c-10.224-10.917-23.78-18.911-38.174-22.909c-6.73-1.869-13.247-2.542-19.76-2.595
	c-7.9-0.064-15.794,0.802-24.05,1.771c-6.526,0.765-13.712,1.524-19.841-1.375c-4.826-2.282-8.554-6.731-11.725-10.898
	c-7.574-9.953-14.003-20.607-24.658-27.659c-24.502-16.214-53.656-2.689-80.24-3.297c-5.472-0.125-10.984-1.026-15.8-3.753
	c-6.817-3.86-11.604-10.572-16.715-16.326c-10.733-12.085-27.404-23.101-44.107-16.485c-5.602,2.22-9.519,7.469-7.798,13.734
	c1.465,5.332,8.096,10.031,13.734,7.798c12.603-4.993,22.396,11.19,29.597,18.963c9.694,10.462,21.294,16.523,35.463,18.023
	c12.432,1.317,24.933-1.06,37.202-2.826c10.549-1.518,22.815-3.414,32.957,0.937c9.612,4.123,15.124,14.168,21.084,22.161
	c8.425,11.301,18.297,20.972,32.82,23.24c9.526,1.488,18.921-0.148,28.348-1.259c5.968-0.703,11.948-1.198,17.983-0.552
	c12.969,1.389,25.709,7.292,35.13,16.3c5.078,4.855,9.125,10.619,14.649,15.017c5.621,4.475,12.164,7.371,19.255,8.569
	c12.82,2.166,25.432-0.327,38.268-0.698c5.423-0.157,11.137-0.076,16.201,2.161c5.494,2.427,9.523,7.36,13.431,11.73
	c9.654,10.795,19.798,19.338,34.875,20.509c15.676,1.218,30.428-5.938,45.986-5.942c1.208,0,2.409,0.075,3.61,0.147
	c11.888,0.711,23.362,4.874,33.128,11.729c20.449,14.353,25.953,43.374,49.645,54.002c16.96,7.609,32.996,1.091,49.413-4.373
	c14.006-4.661,28.428-4.587,41.581,2.743c14.204,7.916,20.426,22.893,31.638,33.932c11.962,11.777,31.37,18.4,46.48,8.427
	c11.942-7.882,0.77-27.227-11.27-19.281c-11.061,7.3-22.28-7.532-27.966-15.267c-8.613-11.718-17.587-22.402-30.973-28.828
	c-13.639-6.548-28.695-8.861-43.636-6.336c-6.839,1.156-13.306,3.609-19.817,5.918c-6.523,2.312-14.032,5.398-21.107,4.376
	c-10.865-1.569-17.496-12.543-22.968-20.923c-7.102-10.878-14.158-21.553-24.461-29.703c-10.386-8.215-22.587-14.195-35.577-16.913
	c-1.173-0.245-2.344-0.505-3.529-0.696C1166.522,1038.782,1152.763,1041.373,1137.847,1044.431z"/>
<path style="fill:#321C27;" d="M1034.593,1183.568c-11.57-2.561-19.333-13.172-26.488-21.794
	c-17.961-21.643-40.964-37.527-69.093-42.504c-14.938-2.643-29.319-1.978-44.192,0.739c-12.175,2.224-24.388,4.619-35.95-0.844
	c-1.612-0.761-3.129-1.673-4.66-2.563c-16.187-9.4-28.215-25.319-42.855-36.724c-9.437-7.353-19.954-13.432-31.951-15.24
	c-16.693-2.517-31.548,4.397-47.876,5.571c-6.236,0.448-11.91-0.4-16.901-4.414c-5.703-4.587-9.517-11.205-13.732-17.06
	c-9.398-13.053-22.798-26.225-40.282-24.414c-5.998,0.621-11.166,4.686-11.166,11.164c0,5.555,5.13,11.79,11.166,11.165
	c12.794-1.325,20.092,12.328,26.548,21.23c8.576,11.824,18.636,21.928,33.703,24.16c15.036,2.227,28.9-3.639,43.58-5.477
	c10.25-1.283,18.814,1.159,27.417,6.653c17.818,11.378,30.492,29.25,48.214,40.907c0.477,0.313,0.971,0.593,1.454,0.895
	c9.463,5.912,20.127,9.572,31.339,9.967c15.433,0.545,30.272-5.231,45.686-5.29c26.826-0.104,51.676,12.095,69.064,32.26
	c8.467,9.818,16.157,20.424,27.353,27.387c12.94,8.048,27.742,8.078,42.211,5.315c0.536-0.102,1.074-0.178,1.609-0.288
	c14.213-2.917,27.567-7.428,42.285-5.64c12.577,1.528,25.073,6.668,34.927,14.653c10.225,8.285,18.109,19.005,28.661,26.963
	c11.62,8.763,25.084,11.91,39.376,8.848c15.696-3.363,28.982-13.25,45.562-12.624c14.971,0.565,27.173,8.137,36.777,19.193
	c10.837,12.475,20.167,24.878,35.941,31.407c14.948,6.186,32.095,6.75,47.274,0.975c5.632-2.143,9.504-7.525,7.798-13.734
	c-1.482-5.395-8.068-9.953-13.734-7.797c-11.747,4.469-24.942,4.556-36.199-1.54c-12.228-6.621-19.296-19.011-28.654-28.823
	c-20.666-21.667-51.768-27.077-79.215-16.297c-11.317,4.444-24.346,11.975-36.403,5.859c-10.908-5.532-18.49-16.309-27.243-24.522
	c-20.007-18.774-46.9-27.537-73.912-24.564c-1.873,0.206-3.748,0.463-5.621,0.783
	C1062.98,1179.802,1048.373,1186.618,1034.593,1183.568z"/>
<path style="fill:#321C27;" d="M985.376,1327.134c13.533,4.902,19.364-16.667,5.935-21.532c-7.336-2.658-13.126-8.374-18.366-14.574
	c-3.814-4.513-7.347-9.275-10.931-13.341c-10.017-11.366-22.499-20.68-36.307-26.935c-14.296-6.476-29.671-10.225-45.403-10.482
	c-7.872-0.129-15.676,0.864-23.418,2.219c-8.686,1.52-17.592,3.898-26.488,2.933c-19.199-2.082-33.51-18.937-47.236-32.203
	c-2.085-2.015-4.158-3.953-6.232-5.738c-9.12-7.853-19.101-14.936-30.754-18.441c-14.755-4.439-29.364-0.964-43.975,2.208
	c-7.32,1.591-15.886,3.575-23.085,0.404c-6.639-2.925-11.082-9.582-15.107-15.304c-10.226-14.531-23.645-31.203-43.598-29.136
	c-5.996,0.621-11.164,4.687-11.164,11.164c0,5.555,5.131,11.79,11.164,11.165c14.337-1.485,22.372,15.923,29.718,25.451
	c10.064,13.054,23.256,21.346,40.229,20.489c14.626-0.739,29.949-8.154,44.339-6.206c10.086,1.366,18.829,7.437,26.445,13.995
	c2.692,2.318,5.331,4.747,7.957,7.216c14.774,13.894,29.046,29.211,48.966,35.115c16.687,4.946,32.695-0.163,49.295-2.33
	c14.382-1.878,28.897,0.04,42.498,4.953c15.448,5.579,28.215,15.58,38.743,28.012c2.763,3.262,5.471,6.497,8.24,9.611
	C964.84,1314.842,973.376,1322.788,985.376,1327.134z"/>
</svg>
